<?xml version="1.0" standalone="no"?>
<!DOCTYPE svg PUBLIC "-//W3C//DTD SVG 20010904//EN"
 "http://www.w3.org/TR/2001/REC-SVG-20010904/DTD/svg10.dtd">
<svg version="1.0" xmlns="http://www.w3.org/2000/svg"
 width="700.000000pt" height="700.000000pt" viewBox="0 0 700.000000 700.000000"
 preserveAspectRatio="xMidYMid meet">
<metadata>
Created by potrace 1.14, written by Peter Selinger 2001-2017
</metadata>
<g transform="translate(0.000000,700.000000) scale(0.100000,-0.100000)"
fill="#000000" stroke="none">
<path d="M3310 6929 c-314 -36 -659 -164 -925 -342 -179 -120 -404 -335 -519
-497 -270 -376 -405 -788 -406 -1235 0 -242 31 -441 105 -661 140 -423 416
-800 762 -1042 45 -31 82 -60 82 -64 1 -4 -228 -538 -509 -1187 -280 -649
-516 -1204 -525 -1233 -31 -106 -15 -250 40 -358 96 -187 335 -291 542 -236
132 35 250 131 307 250 22 45 165 511 392 1276 196 663 360 1209 365 1214 4 4
40 1 79 -8 208 -48 515 -60 732 -31 864 119 1558 754 1759 1609 68 290 66 660
-5 951 -208 849 -907 1477 -1769 1590 -127 16 -381 18 -507 4z m418 -300 c855
-93 1504 -741 1603 -1599 14 -125 7 -357 -15 -479 -116 -638 -532 -1143 -1133
-1376 -94 -36 -239 -75 -363 -97 -99 -17 -440 -17 -540 0 -514 91 -934 359
-1212 772 -476 708 -389 1647 209 2254 306 310 654 473 1128 529 67 8 232 6
323 -4z"/>
</g>
</svg>
