<?xml version="1.0" encoding="UTF-8" standalone="no"?>
<!DOCTYPE svg PUBLIC "-//W3C//DTD SVG 1.1//EN" "http://www.w3.org/Graphics/SVG/1.1/DTD/svg11.dtd">
<svg width="100%" height="100%" viewBox="0 0 506 547" version="1.1" xmlns="http://www.w3.org/2000/svg" xmlns:xlink="http://www.w3.org/1999/xlink" xml:space="preserve" xmlns:serif="http://www.serif.com/" style="fill-rule:evenodd;clip-rule:evenodd;stroke-linejoin:round;stroke-miterlimit:2;">
    <g id="path36" transform="matrix(0.019455,0,0,-0.019455,-26.0581,667.416)">
        <path d="M21570.4,16455C21225.6,14338.4 19661.4,12684.6 17535.8,12612.5C16937.9,12592.2 16224.4,12731.1 15699.9,12943.5C15645.2,12965.7 15582.5,12943.3 15552.9,12892.3L12283.9,7268.8C13828.2,6494.4 15572.1,6115.3 17395.3,6232.2C22692.6,6571.7 26852.3,11003.4 27314,16337.2L21570.4,16455" style="fill:rgb(102,176,50);fill-rule:nonzero;"/>
    </g>
    <g id="path32" transform="matrix(0.019455,0,0,-0.019455,-142.264,615.037)">
        <path d="M13398.9,19496C14077.5,20814.3 15339.8,21743.7 16806,21909.7L16906.3,28257.1C16907.2,28311.3 16863.1,28356 16808.9,28355.4C12673.6,28310.6 9024.6,25736.8 7321.64,21924.5C7296.87,21869 7324.26,21804 7381.05,21782.4L13398.9,19496" style="fill:rgb(167,25,75);fill-rule:nonzero;"/>
    </g>
    <g id="path56" transform="matrix(0.019455,0,0,-0.019455,-95.9268,633.26)">
        <path d="M17966.4,21879.5C19843.9,21565.5 21299.8,19984.6 21546.4,18009C21559.6,17903.3 21646.9,17822.6 21753.3,17819L30834,17514.7C30862.2,17542.1 30877.1,17556.5 30905.3,17583.8C30877.6,25180.4 25430.5,31688.6 18134.1,32550L17966.4,21879.5" style="fill:rgb(253,83,8);fill-rule:nonzero;"/>
    </g>
    <g id="path40" transform="matrix(0.019455,0,0,-0.019455,-111.303,666.385)">
        <path d="M11286,8318L14566.1,13924.8C14607.8,13996 14593.4,14086.8 14531.5,14141.3C13590.5,14968.9 12991.9,16212.9 12991.9,17616.4C12991.9,17968.3 13029.9,18311.3 13101.4,18641.5L7044.13,20905.7C6995.88,20923.8 6942.12,20897.4 6927.4,20848C6614.65,19799.7 6446.17,18686.9 6446.17,17535C6446.17,13610.1 8385.5,10230.3 11286,8318" style="fill:rgb(3,145,206);fill-rule:nonzero;"/>
    </g>
</svg>
