<?xml version="1.0" encoding="UTF-8" standalone="no"?>
<!DOCTYPE svg PUBLIC "-//W3C//DTD SVG 1.1//EN" "http://www.w3.org/Graphics/SVG/1.1/DTD/svg11.dtd">
<svg width="100%" height="100%" viewBox="0 0 177 70" version="1.1" xmlns="http://www.w3.org/2000/svg" xmlns:xlink="http://www.w3.org/1999/xlink" xml:space="preserve" xmlns:serif="http://www.serif.com/" style="fill-rule:evenodd;clip-rule:evenodd;stroke-linejoin:round;stroke-miterlimit:2;">
    <g transform="matrix(0.721359,0.0128805,-0.0128805,0.721359,-168.94,-133.91)">
        <path d="M243.117,272.548C239.694,271.26 238.038,267.376 239.478,264.015L253.303,230.352L261.48,232.598L251.481,268.532C250.347,272.009 246.54,273.836 243.117,272.548Z" style="fill-rule:nonzero;"/>
    </g>
    <g transform="matrix(0.721359,0.0128805,-0.0128805,0.721359,-168.94,-133.91)">
        <path d="M289.471,217.15C288.692,219.218 287.656,221.116 286.413,222.816C283.928,226.222 280.615,228.85 276.876,230.519C271.347,232.99 264.879,233.366 258.764,231.063C255.925,229.995 253.41,228.444 251.279,226.535C246.813,222.549 244.02,217.005 243.436,211.091C243.085,207.563 243.521,203.9 244.854,200.357C247.798,192.531 254.42,187.16 262.017,185.475C264.263,184.978 266.595,184.801 268.939,184.976C270.968,185.129 273.009,185.548 275.015,186.247C275.195,186.311 275.377,186.378 275.559,186.445C276.689,186.87 277.769,187.374 278.79,187.942C288.932,193.593 293.683,205.96 289.471,217.15Z" style="fill:white;fill-rule:nonzero;"/>
    </g>
    <g transform="matrix(0.721359,0.0128805,-0.0128805,0.721359,-168.94,-133.91)">
        <path d="M289.471,217.15C288.692,219.218 287.656,221.116 286.413,222.816C283.928,226.222 280.615,228.85 276.876,230.519C271.347,232.99 264.879,233.366 258.764,231.063C255.925,229.995 253.41,228.444 251.279,226.535C246.813,222.549 244.02,217.005 243.436,211.091C243.085,207.563 243.521,203.9 244.854,200.357C247.798,192.531 254.42,187.16 262.017,185.475C264.263,184.978 266.595,184.801 268.938,184.976C270.968,185.129 273.009,185.548 275.015,186.247C275.195,186.311 275.377,186.378 275.559,186.445C276.689,186.87 277.769,187.373 278.79,187.942C288.932,193.593 293.683,205.96 289.471,217.15ZM276.982,182.664C262.573,177.241 246.496,184.524 241.072,198.933C235.648,213.342 242.933,229.419 257.342,234.843C271.75,240.267 287.827,232.983 293.251,218.574C298.675,204.166 291.391,188.088 276.982,182.664Z" style="fill-rule:nonzero;"/>
    </g>
    <g transform="matrix(0.72922,0,0,0.196524,9.41425,-0.613231)">
        <g transform="matrix(49.3678,0,0,183.184,57.6302,192.239)">
            <path d="M0.201,-0.562L0.294,-0.562C0.412,-0.562 0.472,-0.481 0.472,-0.361C0.472,-0.237 0.413,-0.15 0.287,-0.15L0.201,-0.15L0.201,-0.562ZM0.039,-0.081C0.039,-0.029 0.078,-0 0.12,-0L0.314,-0C0.49,-0 0.646,-0.128 0.646,-0.361C0.646,-0.544 0.526,-0.712 0.314,-0.712L0.12,-0.712C0.078,-0.712 0.039,-0.683 0.039,-0.631L0.039,-0.081Z" style="fill-rule:nonzero;"/>
        </g>
        <g transform="matrix(49.3678,0,0,183.184,90.5586,192.239)">
            <path d="M0.541,-0.457C0.541,-0.502 0.509,-0.538 0.463,-0.538C0.425,-0.538 0.401,-0.512 0.39,-0.488C0.355,-0.531 0.315,-0.548 0.256,-0.548C0.12,-0.548 0.015,-0.423 0.015,-0.266C0.015,-0.109 0.12,0.016 0.256,0.016C0.315,0.016 0.355,-0.001 0.39,-0.044C0.401,-0.02 0.425,0.006 0.463,0.006C0.509,0.006 0.541,-0.03 0.541,-0.075L0.541,-0.457ZM0.278,-0.398C0.347,-0.398 0.385,-0.338 0.385,-0.266C0.385,-0.194 0.347,-0.134 0.278,-0.134C0.209,-0.134 0.171,-0.194 0.171,-0.266C0.171,-0.338 0.209,-0.398 0.278,-0.398Z" style="fill-rule:nonzero;"/>
        </g>
        <g transform="matrix(49.3678,0,0,183.184,119.883,192.239)">
            <path d="M0.076,-0.075C0.076,-0.03 0.108,0.006 0.154,0.006C0.2,0.006 0.232,-0.03 0.232,-0.075L0.232,-0.388L0.275,-0.388C0.325,-0.388 0.357,-0.41 0.357,-0.46C0.357,-0.51 0.325,-0.532 0.275,-0.532L0.232,-0.532L0.232,-0.634C0.232,-0.679 0.2,-0.715 0.154,-0.715C0.108,-0.715 0.076,-0.679 0.076,-0.634L0.076,-0.532L0.058,-0.532C0.008,-0.532 -0.024,-0.51 -0.024,-0.46C-0.024,-0.41 0.008,-0.388 0.058,-0.388L0.076,-0.388L0.076,-0.075Z" style="fill-rule:nonzero;"/>
        </g>
        <g transform="matrix(49.3678,0,0,183.184,136.323,192.239)">
            <path d="M0.541,-0.457C0.541,-0.502 0.509,-0.538 0.463,-0.538C0.425,-0.538 0.401,-0.512 0.39,-0.488C0.355,-0.531 0.315,-0.548 0.256,-0.548C0.12,-0.548 0.015,-0.423 0.015,-0.266C0.015,-0.109 0.12,0.016 0.256,0.016C0.315,0.016 0.355,-0.001 0.39,-0.044C0.401,-0.02 0.425,0.006 0.463,0.006C0.509,0.006 0.541,-0.03 0.541,-0.075L0.541,-0.457ZM0.278,-0.398C0.347,-0.398 0.385,-0.338 0.385,-0.266C0.385,-0.194 0.347,-0.134 0.278,-0.134C0.209,-0.134 0.171,-0.194 0.171,-0.266C0.171,-0.338 0.209,-0.398 0.278,-0.398Z" style="fill-rule:nonzero;"/>
        </g>
    </g>
    <g transform="matrix(0.72922,0,0,0.196524,-15.722,31.1456)">
        <g transform="matrix(49.3678,0,0,183.184,57.6302,192.239)">
            <path d="M0.201,-0.562L0.294,-0.562C0.412,-0.562 0.472,-0.481 0.472,-0.361C0.472,-0.237 0.413,-0.15 0.287,-0.15L0.201,-0.15L0.201,-0.562ZM0.039,-0.081C0.039,-0.029 0.078,-0 0.12,-0L0.314,-0C0.49,-0 0.646,-0.128 0.646,-0.361C0.646,-0.544 0.526,-0.712 0.314,-0.712L0.12,-0.712C0.078,-0.712 0.039,-0.683 0.039,-0.631L0.039,-0.081Z" style="fill-rule:nonzero;"/>
        </g>
        <g transform="matrix(49.3678,0,0,183.184,90.5586,192.239)">
            <path d="M0.465,-0.215C0.515,-0.215 0.541,-0.228 0.541,-0.283C0.541,-0.419 0.442,-0.548 0.288,-0.548C0.128,-0.548 0.015,-0.416 0.015,-0.266C0.015,-0.109 0.12,0.016 0.288,0.016C0.406,0.016 0.533,-0.034 0.533,-0.11C0.533,-0.15 0.503,-0.177 0.468,-0.177C0.432,-0.177 0.385,-0.128 0.308,-0.128C0.208,-0.128 0.183,-0.182 0.183,-0.215L0.465,-0.215ZM0.183,-0.322C0.183,-0.357 0.223,-0.416 0.284,-0.416C0.345,-0.416 0.385,-0.357 0.385,-0.322L0.183,-0.322Z" style="fill-rule:nonzero;"/>
        </g>
        <g transform="matrix(49.3678,0,0,183.184,118.007,192.239)">
            <path d="M0.076,-0.075C0.076,-0.03 0.108,0.006 0.154,0.006C0.2,0.006 0.232,-0.03 0.232,-0.075L0.232,-0.388L0.275,-0.388C0.325,-0.388 0.357,-0.41 0.357,-0.46C0.357,-0.51 0.325,-0.532 0.275,-0.532L0.232,-0.532L0.232,-0.634C0.232,-0.679 0.2,-0.715 0.154,-0.715C0.108,-0.715 0.076,-0.679 0.076,-0.634L0.076,-0.532L0.058,-0.532C0.008,-0.532 -0.024,-0.51 -0.024,-0.46C-0.024,-0.41 0.008,-0.388 0.058,-0.388L0.076,-0.388L0.076,-0.075Z" style="fill-rule:nonzero;"/>
        </g>
        <g transform="matrix(49.3678,0,0,183.184,134.447,192.239)">
            <path d="M0.465,-0.215C0.515,-0.215 0.541,-0.228 0.541,-0.283C0.541,-0.419 0.442,-0.548 0.288,-0.548C0.128,-0.548 0.015,-0.416 0.015,-0.266C0.015,-0.109 0.12,0.016 0.288,0.016C0.406,0.016 0.533,-0.034 0.533,-0.11C0.533,-0.15 0.503,-0.177 0.468,-0.177C0.432,-0.177 0.385,-0.128 0.308,-0.128C0.208,-0.128 0.183,-0.182 0.183,-0.215L0.465,-0.215ZM0.183,-0.322C0.183,-0.357 0.223,-0.416 0.284,-0.416C0.345,-0.416 0.385,-0.357 0.385,-0.322L0.183,-0.322Z" style="fill-rule:nonzero;"/>
        </g>
        <g transform="matrix(49.3678,0,0,183.184,161.895,192.239)">
            <path d="M0.015,-0.266C0.015,-0.109 0.12,0.016 0.278,0.016C0.34,0.016 0.463,-0.014 0.463,-0.092C0.463,-0.125 0.435,-0.161 0.399,-0.161C0.376,-0.161 0.345,-0.134 0.278,-0.134C0.209,-0.134 0.171,-0.194 0.171,-0.266C0.171,-0.338 0.208,-0.398 0.287,-0.398C0.348,-0.398 0.359,-0.372 0.399,-0.372C0.435,-0.372 0.463,-0.403 0.463,-0.445C0.463,-0.528 0.348,-0.548 0.278,-0.548C0.12,-0.548 0.015,-0.423 0.015,-0.266Z" style="fill-rule:nonzero;"/>
        </g>
        <g transform="matrix(49.3678,0,0,183.184,186.727,192.239)">
            <path d="M0.076,-0.075C0.076,-0.03 0.108,0.006 0.154,0.006C0.2,0.006 0.232,-0.03 0.232,-0.075L0.232,-0.388L0.275,-0.388C0.325,-0.388 0.357,-0.41 0.357,-0.46C0.357,-0.51 0.325,-0.532 0.275,-0.532L0.232,-0.532L0.232,-0.634C0.232,-0.679 0.2,-0.715 0.154,-0.715C0.108,-0.715 0.076,-0.679 0.076,-0.634L0.076,-0.532L0.058,-0.532C0.008,-0.532 -0.024,-0.51 -0.024,-0.46C-0.024,-0.41 0.008,-0.388 0.058,-0.388L0.076,-0.388L0.076,-0.075Z" style="fill-rule:nonzero;"/>
        </g>
        <g transform="matrix(49.3678,0,0,183.184,203.167,192.239)">
            <path d="M0.033,-0.075C0.033,-0.03 0.065,0.006 0.111,0.006C0.157,0.006 0.189,-0.03 0.189,-0.075L0.189,-0.457C0.189,-0.502 0.157,-0.538 0.111,-0.538C0.065,-0.538 0.033,-0.502 0.033,-0.457L0.033,-0.075ZM0.018,-0.677C0.018,-0.625 0.06,-0.584 0.111,-0.584C0.162,-0.584 0.204,-0.625 0.204,-0.677C0.204,-0.729 0.162,-0.77 0.111,-0.77C0.06,-0.77 0.018,-0.729 0.018,-0.677Z" style="fill-rule:nonzero;"/>
        </g>
        <g transform="matrix(49.3678,0,0,183.184,214.126,192.239)">
            <path d="M0.146,-0.057C0.161,-0.02 0.188,0.006 0.232,0.006C0.276,0.006 0.303,-0.02 0.318,-0.057L0.445,-0.373C0.459,-0.408 0.469,-0.436 0.469,-0.46C0.469,-0.502 0.434,-0.538 0.391,-0.538C0.36,-0.538 0.333,-0.528 0.316,-0.479L0.233,-0.243L0.231,-0.243L0.148,-0.479C0.131,-0.528 0.104,-0.538 0.073,-0.538C0.03,-0.538 -0.005,-0.502 -0.005,-0.46C-0.005,-0.436 0.005,-0.408 0.019,-0.373L0.146,-0.057Z" style="fill-rule:nonzero;"/>
        </g>
        <g transform="matrix(49.3678,0,0,183.184,237.033,192.239)">
            <path d="M0.465,-0.215C0.515,-0.215 0.541,-0.228 0.541,-0.283C0.541,-0.419 0.442,-0.548 0.288,-0.548C0.128,-0.548 0.015,-0.416 0.015,-0.266C0.015,-0.109 0.12,0.016 0.288,0.016C0.406,0.016 0.533,-0.034 0.533,-0.11C0.533,-0.15 0.503,-0.177 0.468,-0.177C0.432,-0.177 0.385,-0.128 0.308,-0.128C0.208,-0.128 0.183,-0.182 0.183,-0.215L0.465,-0.215ZM0.183,-0.322C0.183,-0.357 0.223,-0.416 0.284,-0.416C0.345,-0.416 0.385,-0.357 0.385,-0.322L0.183,-0.322Z" style="fill-rule:nonzero;"/>
        </g>
    </g>
</svg>
