<?xml version="1.0" encoding="UTF-8" standalone="no"?>
<!DOCTYPE svg PUBLIC "-//W3C//DTD SVG 1.1//EN" "http://www.w3.org/Graphics/SVG/1.1/DTD/svg11.dtd">
<svg width="100%" height="100%" viewBox="0 0 18555 15127" version="1.1" xmlns="http://www.w3.org/2000/svg" xmlns:xlink="http://www.w3.org/1999/xlink" xml:space="preserve" xmlns:serif="http://www.serif.com/" style="fill-rule:evenodd;clip-rule:evenodd;stroke-linejoin:round;stroke-miterlimit:2;">
    <g transform="matrix(4.16667,0,0,4.16667,-1337.5,-4736.21)">
        <path d="M1456.3,1403.46C1456.3,1403.46 1463.12,1136.69 1761.05,1136.69L1773.9,1866.38C1773.9,1866.38 1636.55,2201.54 1363.26,2103.94C1363.26,2103.94 1456.3,1579.14 1456.3,1403.46Z" style="fill:rgb(48,72,96);fill-rule:nonzero;"/>
    </g>
    <g transform="matrix(4.16667,0,0,4.16667,-1337.5,-4736.21)">
        <path d="M2071.06,1403.46C2071.06,1403.46 2055.9,1136.69 1759.71,1136.69L1753.46,1866.38C1753.46,1866.38 1873.06,2173.97 2146.34,2076.37C2146.34,2076.37 2071.06,1579.14 2071.06,1403.46Z" style="fill:rgb(48,72,96);fill-rule:nonzero;"/>
    </g>
    <g transform="matrix(4.16667,0,0,4.16667,-1337.5,-4736.21)">
        <path d="M1850.72,1840.1L1661.17,1840.1L1661.17,1872.59L1660.25,1872.59C1660.25,1872.59 1660.24,1872.59 1660.24,1872.61C1645.55,1905.17 1620.42,1931.96 1589.16,1948.88C1748.06,1925.5 1825.8,1871.35 1850.72,1850.4L1850.72,1840.1Z" style="fill:rgb(207,180,174);fill-rule:nonzero;"/>
    </g>
    <g transform="matrix(4.16667,0,0,4.16667,-1337.5,-4736.21)">
        <path d="M2068.38,1977.8L1991.02,1976.65L1991.02,1966.33C1929.25,1963.27 1876.57,1925.74 1851.77,1872.59L1850.72,1872.59L1850.72,1850.4C1825.8,1871.35 1748.06,1925.5 1589.16,1948.88C1568.44,1960.1 1545.05,1967.01 1520.14,1968.24L1520.14,1969.64L1428.16,1968.27L1457.39,2073.24L1448.73,2139.26L1476.87,2156.58L1762.67,2681.29L2033.12,2180.37L2088.3,2146.84L2104.54,2079.74L2068.38,1977.8Z" style="fill:rgb(226,197,189);fill-rule:nonzero;"/>
    </g>
    <g transform="matrix(4.16667,0,0,4.16667,-1337.5,-4736.21)">
        <path d="M1750.85,1288.84C1617.6,1293.17 1506.26,1374.02 1506.26,1546.03C1506.26,1720.52 1615.27,1862.31 1750.85,1866.19L1750.85,1865.83C1753.91,1866.16 1756.09,1866.38 1756.55,1866.38L1756.55,1288.73C1754.65,1288.77 1752.75,1288.78 1750.85,1288.84Z" style="fill:rgb(207,180,174);fill-rule:nonzero;"/>
    </g>
    <g transform="matrix(4.16667,0,0,4.16667,-1337.5,-4736.21)">
        <path d="M1762.23,1288.63C1760.33,1288.63 1758.45,1288.7 1756.55,1288.73L1756.55,1866.38C1894.79,1866.38 2006.84,1722.96 2006.84,1546.03C2006.84,1369.14 1900.47,1288.63 1762.23,1288.63Z" style="fill:rgb(226,197,189);fill-rule:nonzero;"/>
    </g>
    <g transform="matrix(4.16667,0,0,4.16667,-1337.5,-4736.21)">
        <path d="M1982.08,1566.15C1976.69,1603.08 1987.04,1635.19 2005.17,1637.84C2023.3,1640.52 2042.36,1612.74 2047.73,1575.81C2053.1,1538.88 2042.77,1506.77 2024.64,1504.11C2006.53,1501.44 1987.46,1529.22 1982.08,1566.15Z" style="fill:rgb(226,197,189);fill-rule:nonzero;"/>
    </g>
    <g transform="matrix(4.16667,0,0,4.16667,-1337.5,-4736.21)">
        <path d="M1523.7,1563.14C1527.21,1599.59 1516.57,1630.45 1499.93,1632.06C1483.31,1633.69 1466.97,1605.44 1463.47,1569C1459.95,1532.54 1470.59,1501.68 1487.23,1500.06C1503.85,1498.46 1520.2,1526.68 1523.7,1563.14Z" style="fill:rgb(207,180,174);fill-rule:nonzero;"/>
    </g>
    <g transform="matrix(4.16667,0,0,4.16667,-1337.5,-4736.21)">
        <path d="M2015.23,1598.52C2015.23,1605.14 2009.86,1610.51 2003.23,1610.51C1996.6,1610.51 1991.23,1605.14 1991.23,1598.52C1991.23,1591.9 1996.6,1586.52 2003.23,1586.52C2009.86,1586.52 2015.23,1591.9 2015.23,1598.52Z" style="fill:rgb(199,150,45);fill-rule:nonzero;"/>
    </g>
    <g transform="matrix(4.16667,0,0,4.16667,-1337.5,-4736.21)">
        <path d="M2011.83,1598.51C2011.83,1603.27 2007.98,1607.11 2003.23,1607.11C1998.49,1607.11 1994.63,1603.27 1994.63,1598.51C1994.63,1593.77 1998.49,1589.91 2003.23,1589.91C2007.98,1589.91 2011.83,1593.77 2011.83,1598.51Z" style="fill:rgb(170,49,49);fill-rule:nonzero;"/>
    </g>
    <g transform="matrix(4.16667,0,0,4.16667,-1337.5,-4736.21)">
        <path d="M1518.29,1592.94C1518.29,1599.56 1512.93,1604.93 1506.3,1604.93C1499.67,1604.93 1494.3,1599.56 1494.3,1592.94C1494.3,1586.31 1499.67,1580.94 1506.3,1580.94C1512.93,1580.94 1518.29,1586.31 1518.29,1592.94Z" style="fill:rgb(199,150,45);fill-rule:nonzero;"/>
    </g>
    <g transform="matrix(4.16667,0,0,4.16667,-1337.5,-4736.21)">
        <path d="M1514.9,1592.94C1514.9,1597.68 1511.04,1601.54 1506.3,1601.54C1501.55,1601.54 1497.7,1597.68 1497.7,1592.94C1497.7,1588.19 1501.55,1584.35 1506.3,1584.35C1511.04,1584.35 1514.9,1588.19 1514.9,1592.94Z" style="fill:rgb(170,49,49);fill-rule:nonzero;"/>
    </g>
    <g transform="matrix(4.16667,0,0,4.16667,-1337.5,-4736.21)">
        <path d="M1544.34,1324.9C1544.34,1324.9 1513.62,1476.26 1806.1,1477.41C2098.58,1478.54 2053.05,1574.13 2057.61,1646.97C2057.61,1646.97 2105.4,1530.9 2031.43,1412.53C1957.45,1294.17 1866.41,1215.65 1767.4,1222.48C1668.39,1229.3 1592.14,1227.03 1539.78,1321.48" style="fill:rgb(48,72,96);fill-rule:nonzero;"/>
    </g>
    <g transform="matrix(4.16667,0,0,4.16667,-1337.5,-4736.21)">
        <path d="M1754.95,2981L1758.89,2070.69C1758.89,2070.69 1651.48,2008.08 1615.48,1933.05C1615.48,1933.05 1570.39,1927.8 1510.45,1938.32C1392.01,1959.11 1244.5,2041.46 1243.54,2347.54L1241.53,2365.7L1236.15,2414.65L1217.34,2585.25C1217.34,2585.25 1217.35,2678.97 1232.97,2750.37C1248.6,2821.78 1317.77,3250.18 1317.77,3272.51C1317.77,3294.82 1304.36,3408.62 1349,3473.33C1393.63,3538.03 1449.41,3582.66 1458.33,3558.11C1467.26,3533.57 1427.09,3486.71 1418.17,3468.86C1409.24,3451.02 1386.93,3395.23 1407.01,3404.16C1427.1,3413.08 1418.18,3448.78 1427.1,3459.94C1436.02,3471.09 1447.18,3468.85 1449.41,3435.39C1451.65,3401.93 1444.95,3330.52 1413.7,3301.51C1382.47,3272.51 1371.31,3194.42 1373.55,3131.94C1375.77,3069.45 1389.16,2774.92 1371.31,2687.89C1361.19,2638.5 1373.34,2535.22 1386.56,2452.67C1389.25,2435.81 1392,2419.82 1394.6,2405.33C1395.4,2400.9 1396.18,2396.67 1396.95,2392.53C1396.14,2433.97 1400.96,2479.37 1437.68,2539.95C1487.38,2621.96 1455.93,2981 1455.93,2981L1754.95,2981Z" style="fill:rgb(115,71,119);fill-rule:nonzero;"/>
    </g>
    <g transform="matrix(4.16667,0,0,4.16667,-1337.5,-4736.21)">
        <path d="M2292.85,2585.25L2275.12,2424.31L2268.78,2329.4L2266.44,2330.56C2260.18,2038.39 2115.97,1958.69 1999.75,1938.29C1939.82,1927.76 1894.71,1932.98 1894.71,1932.98C1836.14,2055.14 1759.31,2070.98 1759.31,2070.98L1754.64,2980.73L2054.26,2980.73C2054.26,2980.73 2022.82,2617.49 2072.52,2535.48C2109.14,2475.06 2114.03,2432.15 2113.26,2391.77C2114.06,2396.07 2114.86,2400.87 2115.69,2405.49L2117.28,2405.08L2115.69,2405.88C2118.43,2421.12 2121.32,2438.03 2124.15,2455.84C2137.17,2537.85 2148.89,2639.13 2138.89,2687.89C2121.04,2774.92 2134.42,3069.45 2136.65,3131.94C2138.89,3194.42 2127.73,3272.51 2096.49,3301.51C2065.25,3330.52 2058.55,3401.93 2060.79,3435.39C2063.01,3468.85 2074.17,3471.09 2083.09,3459.94C2092.01,3448.78 2083.09,3413.08 2103.18,3404.16C2123.26,3395.23 2100.95,3451.02 2092.03,3468.86C2083.1,3486.71 2042.94,3533.57 2051.86,3558.11C2060.79,3582.66 2116.58,3538.03 2161.2,3473.33C2205.84,3408.62 2192.43,3294.82 2192.43,3272.51C2192.43,3250.18 2261.61,2821.77 2277.22,2750.37C2292.84,2678.97 2292.85,2585.25 2292.85,2585.25Z" style="fill:rgb(131,82,138);fill-rule:nonzero;"/>
    </g>
    <g transform="matrix(4.16667,0,0,4.16667,-1337.5,-4736.21)">
        <path d="M451.849,3049.11L404,3017C404,3017 321.125,3090.42 321.125,3145.88C321.125,3201.34 469.855,3140.23 469.855,3140.23L451.849,3049.11Z" style="fill:rgb(44,71,70);fill-rule:nonzero;"/>
    </g>
    <g transform="matrix(4.16667,0,0,4.16667,-1337.5,-4736.21)">
        <rect x="401" y="4591" width="4294" height="176" style="fill:rgb(59,99,99);fill-rule:nonzero;"/>
    </g>
    <g transform="matrix(4.16667,0,0,4.16667,-1337.5,-4736.21)">
        <path d="M1897.88,1919.29L1759.49,2072.12L1788.35,2155.33L1910.62,1932.45L1897.88,1919.29Z" style="fill:white;fill-rule:nonzero;"/>
    </g>
    <g transform="matrix(4.16667,0,0,4.16667,-1337.5,-4736.21)">
        <path d="M1620.39,1919.29L1758.79,2072.12L1729.92,2155.33L1607.65,1932.45L1620.39,1919.29Z" style="fill:white;fill-rule:nonzero;"/>
    </g>
    <g transform="matrix(4.16667,0,0,4.16667,-1337.5,-4736.21)">
        <path d="M1499.98,1938.43L1608.16,2244L1568,2244L1459.07,1945.77C1459.07,1945.77 1478.05,1936.02 1499.98,1938.43Z" style="fill:rgb(161,165,59);fill-rule:nonzero;"/>
    </g>
    <g transform="matrix(4.16667,0,0,4.16667,-1337.5,-4736.21)">
        <path d="M2006.25,1938.43L1898.07,2244L1938.23,2244L2047.16,1945.77C2047.16,1945.77 2028.18,1936.02 2006.25,1938.43Z" style="fill:rgb(178,189,71);fill-rule:nonzero;"/>
    </g>
    <g transform="matrix(4.16667,0,0,4.16667,-1337.5,-4736.21)">
        <path d="M1761,2244L1561,2244L1561.84,2247.86C1556.25,2281.81 1513.25,2529.44 1444.41,2554.68C1444.41,2554.68 1497.39,2744 1421,3118L1761,3118L1761,2244Z" style="fill:rgb(161,165,59);fill-rule:nonzero;"/>
    </g>
    <g transform="matrix(4.16667,0,0,4.16667,-1337.5,-4736.21)">
        <path d="M2064.05,2554.68C1995.21,2529.44 1952.21,2281.81 1946.62,2247.86L1947.46,2244L1761,2244L1761,3118L2087.46,3118C2011.07,2744 2064.05,2554.68 2064.05,2554.68Z" style="fill:rgb(178,189,71);fill-rule:nonzero;"/>
    </g>
    <g transform="matrix(4.16667,0,0,4.16667,-1337.5,-4736.21)">
        <rect x="404" y="3017" width="4288" height="168" style="fill:rgb(44,71,70);fill-rule:nonzero;"/>
    </g>
    <g transform="matrix(4.16667,0,0,4.16667,-1337.5,-4736.21)">
        <path d="M4218.02,2906.9C4218.02,2906.9 4227.61,2881.45 4263.99,2887.56C4253.07,2880.69 4237.25,2876.87 4214.41,2874.92C4212.87,2876.06 4211.39,2877.35 4210.01,2878.83C4210.01,2878.83 4174.65,2871.9 4170.23,2907.11C4183.1,2898.24 4201.79,2891.05 4218.02,2906.9Z" style="fill:rgb(159,30,33);fill-rule:nonzero;"/>
    </g>
    <g transform="matrix(4.16667,0,0,4.16667,-1337.5,-4736.21)">
        <path d="M4317,2879.2C4307.6,2868.61 4290.23,2857.48 4263.47,2871.48C4263.47,2871.48 4233.68,2860.62 4214.41,2874.92C4243.16,2877.38 4258.82,2882.88 4267.15,2893.75C4271.49,2882.83 4283.63,2867.4 4317,2879.2Z" style="fill:rgb(161,29,34);fill-rule:nonzero;"/>
    </g>
    <g transform="matrix(4.16667,0,0,4.16667,-1337.5,-4736.21)">
        <path d="M4292.87,2973.72C4287.32,3049.88 4314.5,3017.56 4333.92,2985.34C4341.47,2957.31 4342.41,2924.27 4325.61,2892.2C4325.61,2892.2 4322.84,2885.8 4317,2879.2C4293.67,2870.96 4280.73,2876.01 4273.56,2883.53C4282.37,2885.68 4298.27,2899.54 4292.87,2973.72Z" style="fill:rgb(174,31,37);fill-rule:nonzero;"/>
    </g>
    <g transform="matrix(4.16667,0,0,4.16667,-1337.5,-4736.21)">
        <path d="M4292.87,2973.72C4298.27,2899.54 4282.37,2885.68 4273.56,2883.53C4270.48,2886.77 4268.46,2890.46 4267.15,2893.75C4279.2,2909.48 4275.95,2936.45 4274.82,2981.74C4273.94,3017.67 4256.75,3046.57 4243.13,3058.69C4248.66,3055.84 4253.55,3050.5 4257.45,3042.55C4257.45,3042.55 4280.84,3070.62 4297.54,3053.91C4306.62,3044.84 4324.94,3018.63 4333.92,2985.34C4314.5,3017.56 4287.32,3049.88 4292.87,2973.72Z" style="fill:rgb(161,29,34);fill-rule:nonzero;"/>
    </g>
    <g transform="matrix(4.16667,0,0,4.16667,-1337.5,-4736.21)">
        <path d="M4216.69,2985.08C4260.96,2990.96 4274.67,2943.32 4278.45,2902.89C4275.02,2896.58 4270.34,2891.55 4263.99,2887.56C4227.61,2881.45 4218.02,2906.9 4218.02,2906.9C4201.79,2891.05 4183.1,2898.24 4170.23,2907.11C4170.1,2908.12 4169.99,2909.16 4169.91,2910.24C4169.91,2910.24 4165.43,2916.86 4163.2,2929.79C4166.78,2954.61 4179.72,2980.18 4216.69,2985.08Z" style="fill:rgb(199,32,42);fill-rule:nonzero;"/>
    </g>
    <g transform="matrix(4.16667,0,0,4.16667,-1337.5,-4736.21)">
        <path d="M4278.45,2902.89C4274.67,2943.32 4260.96,2990.96 4216.69,2985.08C4179.72,2980.18 4166.78,2954.61 4163.2,2929.79C4160.56,2945.08 4161.08,2969.21 4175.92,3001.79C4197.17,3048.43 4224.04,3068.52 4243.13,3058.69C4256.75,3046.57 4285.96,3017 4286.85,2981.07C4287.78,2943.81 4287.28,2919.12 4278.45,2902.89Z" style="fill:rgb(187,33,39);fill-rule:nonzero;"/>
    </g>
    <g transform="matrix(4.16667,0,0,4.16667,-1337.5,-4736.21)">
        <path d="M4212.68,2894.87C4212.68,2894.87 4234.06,2881.51 4233.39,2864.8C4232.73,2848.09 4216.69,2836.07 4216.69,2836.07C4216.69,2836.07 4220.03,2814.02 4230.72,2824.71C4241.41,2835.4 4258.79,2837.4 4255.45,2878.83L4275.49,2883.51L4266.8,2896.21C4266.8,2896.21 4230.72,2893.54 4223.37,2902.89C4216.02,2912.25 4212.68,2894.87 4212.68,2894.87Z" style="fill:rgb(74,129,60);fill-rule:nonzero;"/>
    </g>
    <g transform="matrix(4.16667,0,0,4.16667,-1337.5,-4736.21)">
        <path d="M2334.48,2611.9L2385.4,2859.35L2648.76,2805.16L2617.65,2653.96C2565.33,2620.86 2482.55,2614.38 2421.01,2625.2C2382.87,2631.9 2353.61,2622.52 2334.48,2611.9Z" style="fill:rgb(185,224,206);fill-rule:nonzero;"/>
    </g>
    <g transform="matrix(4.16667,0,0,4.16667,-1337.5,-4736.21)">
        <path d="M2315.44,2519.35L2334.48,2611.9C2353.61,2622.52 2382.87,2631.9 2421.01,2625.2C2482.55,2614.38 2565.33,2620.86 2617.65,2653.96L2578.8,2465.16L2315.44,2519.35Z" style="fill:rgb(225,236,181);fill-rule:nonzero;"/>
    </g>
    <g transform="matrix(4.16667,0,0,4.16667,-1337.5,-4736.21)">
        <path d="M2623.32,2732.84C2628.05,2755.8 2576.37,2785.83 2507.91,2799.92C2439.44,2814.01 2380.11,2806.82 2375.39,2783.86C2370.66,2760.9 2422.34,2730.87 2490.8,2716.79C2559.27,2702.7 2618.6,2709.89 2623.32,2732.84Z" style="fill:rgb(254,248,233);fill-rule:nonzero;"/>
    </g>
    <g transform="matrix(4.16667,0,0,4.16667,-1337.5,-4736.21)">
        <path d="M2601,2737.44C2604.38,2753.9 2561.62,2776.61 2505.49,2788.16C2449.35,2799.71 2401.1,2795.73 2397.71,2779.27C2394.33,2762.81 2437.09,2740.1 2493.22,2728.55C2549.36,2717 2597.61,2720.98 2601,2737.44Z" style="fill:rgb(254,248,233);fill-rule:nonzero;"/>
    </g>
    <g transform="matrix(4.16667,0,0,4.16667,-1337.5,-4736.21)">
        <path d="M2493.86,2731.66C2435.8,2743.61 2398.23,2766 2400.83,2778.63C2403.42,2791.25 2446.78,2797 2504.85,2785.05C2562.91,2773.1 2600.48,2750.7 2597.89,2738.08C2595.29,2725.45 2551.93,2719.71 2493.86,2731.66ZM2506.13,2791.27C2455.35,2801.72 2399,2801.29 2394.6,2779.91C2390.2,2758.53 2441.8,2735.88 2492.58,2725.44C2543.37,2714.99 2599.71,2715.42 2604.11,2736.8C2608.51,2758.18 2556.91,2780.82 2506.13,2791.27Z" style="fill:rgb(211,211,211);fill-rule:nonzero;"/>
    </g>
    <g transform="matrix(4.16667,0,0,4.16667,-1337.5,-4736.21)">
        <path d="M2572.11,2715.8L2571.6,2715.7L2571.63,2715.85L2572.11,2715.8Z" style="fill:rgb(251,216,152);fill-rule:nonzero;"/>
    </g>
    <g transform="matrix(4.16667,0,0,4.16667,-1337.5,-4736.21)">
        <path d="M2412.83,2732.08L2412.68,2732.11L2415.53,2745.93L2574.21,2728.36L2571.63,2715.85L2412.83,2732.08Z" style="fill:rgb(246,174,80);fill-rule:nonzero;"/>
    </g>
    <g transform="matrix(4.16667,0,0,4.16667,-1337.5,-4736.21)">
        <path d="M2532.59,2707.44L2447.79,2689.49L2412.68,2732.1L2412.83,2732.08L2571.63,2715.85L2571.6,2715.7L2532.59,2707.44Z" style="fill:rgb(251,216,152);fill-rule:nonzero;"/>
    </g>
    <g transform="matrix(4.16667,0,0,4.16667,-1337.5,-4736.21)">
        <path d="M2415.22,2743.69L2415.07,2743.72L2417.92,2757.54L2576.84,2741.14L2574.02,2727.46L2415.22,2743.69Z" style="fill:rgb(223,92,38);fill-rule:nonzero;"/>
    </g>
    <g transform="matrix(4.16667,0,0,4.16667,-1337.5,-4736.21)">
        <path d="M2418.01,2757.24L2417.86,2757.27L2420.71,2771.09L2579.38,2753.52L2576.81,2741.01L2418.01,2757.24Z" style="fill:rgb(246,174,80);fill-rule:nonzero;"/>
    </g>
    <g transform="matrix(4.16667,0,0,4.16667,-1337.5,-4736.21)">
        <path d="M2420.6,2769.82L2420.45,2769.85L2423.29,2783.67L2581.97,2766.11L2579.4,2753.6L2420.6,2769.82Z" style="fill:rgb(223,92,38);fill-rule:nonzero;"/>
    </g>
    <g transform="matrix(4.16667,0,0,4.16667,-1337.5,-4736.21)">
        <path d="M2426.88,2591.39C2425,2592.87 2421.02,2594.78 2415.65,2595.89C2403.19,2598.45 2392.2,2592.52 2389.22,2578.03C2386.37,2564.2 2393.82,2552.9 2407.52,2550.08C2413.02,2548.95 2416.74,2549.41 2418.41,2549.89L2417.99,2554.83C2415.61,2554.22 2412.37,2554.07 2408.7,2554.82C2398.34,2556.96 2392.82,2564.99 2395.21,2576.59C2397.43,2587.41 2405.09,2593.07 2415.84,2590.86C2419.31,2590.15 2422.7,2588.7 2424.77,2587.11L2426.88,2591.39Z" style="fill:rgb(223,92,38);fill-rule:nonzero;"/>
    </g>
    <g transform="matrix(4.16667,0,0,4.16667,-1337.5,-4736.21)">
        <path d="M2452.44,2568.51L2445.5,2556.68C2443.92,2554 2442.72,2551.51 2441.54,2549.09L2441.41,2549.12C2441.29,2551.88 2441.13,2554.71 2440.83,2557.57L2439.13,2571.24L2452.44,2568.51ZM2438.87,2575.94L2437.14,2590.78L2431.24,2592L2437.16,2544.73L2444.04,2543.32L2468.21,2584.39L2462.11,2585.65L2454.53,2572.72L2438.87,2575.94Z" style="fill:rgb(223,92,38);fill-rule:nonzero;"/>
    </g>
    <g transform="matrix(4.16667,0,0,4.16667,-1337.5,-4736.21)">
        <path d="M2465.61,2538.88L2471.31,2537.7L2475.69,2559.01L2475.89,2558.97C2476.72,2557.02 2477.58,2555.2 2478.39,2553.53L2488.48,2534.17L2495.56,2532.71L2483.43,2554.75L2505.9,2576.64L2499.15,2578.03L2480.13,2559.32L2476.93,2565.04L2480.4,2581.88L2474.7,2583.06L2465.61,2538.88Z" style="fill:rgb(223,92,38);fill-rule:nonzero;"/>
    </g>
    <g transform="matrix(4.16667,0,0,4.16667,-1337.5,-4736.21)">
        <path d="M2528.84,2550.33L2511.67,2553.86L2514.94,2569.79L2534.08,2565.85L2535.06,2570.63L2510.22,2575.75L2501.13,2531.57L2524.99,2526.66L2525.98,2531.44L2507.82,2535.18L2510.69,2549.14L2527.87,2545.61L2528.84,2550.33Z" style="fill:rgb(223,92,38);fill-rule:nonzero;"/>
    </g>
    <g transform="matrix(4.16667,0,0,4.16667,-1337.5,-4736.21)">
        <path d="M2783.98,2488.76L2634.15,2464.1L2569.16,2859.45L2718.99,2884.11L2783.98,2488.76Z" style="fill:rgb(212,237,237);fill-rule:nonzero;"/>
    </g>
    <g transform="matrix(4.16667,0,0,4.16667,-1337.5,-4736.21)">
        <path d="M2812.28,2899.46L2718.99,2884.11L2783.98,2488.76L2877.28,2504.11L2812.28,2899.46Z" style="fill:rgb(178,205,204);fill-rule:nonzero;"/>
    </g>
    <g transform="matrix(4.16667,0,0,4.16667,-1337.5,-4736.21)">
        <path d="M2634.68,2464.07L2699.99,2422.61L2844.56,2446.4L2784.51,2488.73L2634.68,2464.07Z" style="fill:rgb(61,192,196);fill-rule:nonzero;"/>
    </g>
    <g transform="matrix(4.16667,0,0,4.16667,-1337.5,-4736.21)">
        <path d="M2877.28,2504.11L2844.04,2446.43L2783.98,2488.76L2877.28,2504.11Z" style="fill:rgb(19,123,154);fill-rule:nonzero;"/>
    </g>
    <g transform="matrix(4.16667,0,0,4.16667,-1337.5,-4736.21)">
        <path d="M2847.73,2423.98L2703.16,2400.18L2699.46,2422.64L2844.04,2446.43L2847.73,2423.98Z" style="fill:rgb(212,237,237);fill-rule:nonzero;"/>
    </g>
    <g transform="matrix(4.16667,0,0,4.16667,-1337.5,-4736.21)">
        <path d="M2653.2,2540.1C2654.68,2540.34 2656.09,2540.81 2657.42,2541.51C2658.75,2542.21 2659.93,2543.15 2660.95,2544.34C2663.64,2542.8 2666.57,2542.3 2669.73,2542.82C2671.46,2543.1 2673.07,2543.71 2674.57,2544.64C2676.06,2545.57 2677.33,2546.7 2678.35,2548.04C2679.37,2549.38 2680.11,2550.89 2680.57,2552.59C2681.02,2554.29 2681.1,2556.03 2680.81,2557.81L2677.75,2576.41C2677.55,2577.6 2676.89,2578.55 2675.76,2579.28C2674.62,2580.01 2673.41,2580.27 2672.13,2580.05C2670.84,2579.84 2669.8,2579.18 2668.99,2578.06C2668.19,2576.93 2667.89,2575.73 2668.1,2574.44L2671.07,2556.43C2671.22,2555.5 2671.02,2554.65 2670.46,2553.9C2669.89,2553.15 2669.12,2552.69 2668.13,2552.53C2667.29,2552.38 2666.46,2552.54 2665.66,2552.99C2664.85,2553.45 2664.35,2554.21 2664.18,2555.3L2661.21,2573.31C2660.99,2574.64 2660.32,2575.7 2659.2,2576.49C2658.09,2577.26 2656.86,2577.54 2655.53,2577.32C2654.29,2577.12 2653.25,2576.51 2652.41,2575.48C2651.55,2574.45 2651.24,2573.32 2651.44,2572.08L2654.46,2553.7C2654.58,2552.7 2654.34,2551.84 2653.75,2551.11C2653.16,2550.38 2652.45,2549.94 2651.6,2549.81C2650.67,2549.65 2649.81,2549.84 2649.04,2550.37C2648.26,2550.91 2647.77,2551.66 2647.56,2552.64L2644.53,2571.02C2644.23,2572.19 2643.56,2573.13 2642.51,2573.85C2641.45,2574.56 2640.28,2574.82 2638.99,2574.6C2638.3,2574.49 2637.68,2574.26 2637.13,2573.92C2636.58,2573.57 2636.11,2573.14 2635.74,2572.62C2635.37,2572.1 2635.1,2571.53 2634.93,2570.89C2634.75,2570.25 2634.74,2569.62 2634.89,2568.98L2637.89,2550.75C2638.18,2549.01 2638.8,2547.43 2639.75,2545.99C2640.69,2544.54 2641.86,2543.34 2643.23,2542.38C2644.61,2541.42 2646.16,2540.71 2647.88,2540.29C2649.6,2539.86 2651.37,2539.8 2653.2,2540.1Z" style="fill:rgb(61,192,196);fill-rule:nonzero;"/>
    </g>
    <g transform="matrix(4.16667,0,0,4.16667,-1337.5,-4736.21)">
        <path d="M2692.67,2546.82C2693.96,2547.03 2694.95,2547.68 2695.66,2548.76C2696.37,2549.84 2696.67,2551.06 2696.55,2552.4L2692.23,2578.64C2692.01,2579.98 2691.41,2581.02 2690.42,2581.77C2689.43,2582.52 2688.21,2582.83 2686.76,2582.7C2685.48,2582.48 2684.46,2581.91 2683.7,2580.97C2682.94,2580.03 2682.58,2578.83 2682.62,2577.37L2687.03,2550.54C2687.35,2549.27 2688.04,2548.29 2689.12,2547.6C2690.19,2546.92 2691.38,2546.66 2692.67,2546.82ZM2694.54,2535.48C2695.82,2535.69 2696.84,2536.36 2697.6,2537.47C2698.35,2538.58 2698.63,2539.78 2698.42,2541.07C2698.21,2542.36 2697.56,2543.39 2696.49,2544.21C2695.42,2545.02 2694.24,2545.33 2692.95,2545.11C2691.53,2544.83 2690.42,2544.18 2689.66,2543.16C2688.88,2542.15 2688.63,2540.85 2688.89,2539.27C2689.15,2537.99 2689.84,2536.98 2690.95,2536.26C2692.06,2535.53 2693.25,2535.27 2694.54,2535.48Z" style="fill:rgb(61,192,196);fill-rule:nonzero;"/>
    </g>
    <g transform="matrix(4.16667,0,0,4.16667,-1337.5,-4736.21)">
        <path d="M2708.94,2537.7C2710.27,2537.92 2711.32,2538.57 2712.08,2539.66C2712.84,2540.75 2713.15,2541.99 2713.03,2543.39L2708.21,2572.67C2708.04,2573.66 2708.23,2574.55 2708.76,2575.35C2709.28,2576.15 2710.04,2576.63 2711.03,2576.79C2712.32,2577 2713.37,2577.63 2714.18,2578.68C2715,2579.73 2715.32,2580.92 2715.15,2582.27C2714.96,2583.45 2714.38,2584.43 2713.41,2585.21C2712.45,2585.99 2711.3,2586.38 2709.99,2586.36L2708.95,2586.19C2707.22,2585.91 2705.65,2585.28 2704.24,2584.31C2702.82,2583.35 2701.63,2582.17 2700.67,2580.79C2699.7,2579.42 2699.02,2577.88 2698.61,2576.19C2698.2,2574.5 2698.14,2572.79 2698.42,2571.06L2703.29,2541.49C2703.64,2540.28 2704.33,2539.3 2705.37,2538.55C2706.41,2537.81 2707.6,2537.53 2708.94,2537.7Z" style="fill:rgb(61,192,196);fill-rule:nonzero;"/>
    </g>
    <g transform="matrix(4.16667,0,0,4.16667,-1337.5,-4736.21)">
        <path d="M2747.34,2583.75C2748.16,2584.91 2748.47,2586.16 2748.24,2587.52C2748.02,2588.88 2747.33,2589.97 2746.18,2590.8C2745.04,2591.52 2743.8,2591.81 2742.46,2591.67C2741.11,2591.52 2740,2590.85 2739.14,2589.64L2729.77,2576.68L2728.53,2584.24C2728.31,2585.52 2727.63,2586.59 2726.48,2587.44C2725.32,2588.29 2724.08,2588.61 2722.75,2588.39C2721.46,2588.18 2720.38,2587.5 2719.5,2586.37C2718.62,2585.23 2718.3,2583.98 2718.53,2582.59L2724.68,2545.16C2724.9,2543.88 2725.58,2542.81 2726.73,2541.96C2727.89,2541.11 2729.16,2540.79 2730.54,2541.02C2731.92,2541.25 2733.02,2541.93 2733.83,2543.04C2734.63,2544.17 2734.92,2545.42 2734.69,2546.81L2731.63,2565.41L2744.67,2556.06C2745.81,2555.24 2747.05,2554.95 2748.38,2555.19C2749.71,2555.43 2750.82,2556.11 2751.7,2557.22C2752.53,2558.37 2752.83,2559.63 2752.61,2560.98C2752.39,2562.34 2751.69,2563.43 2750.54,2564.26L2739.15,2572.44L2747.34,2583.75Z" style="fill:rgb(61,192,196);fill-rule:nonzero;"/>
    </g>
    <g transform="matrix(4.16667,0,0,4.16667,-1337.5,-4736.21)">
        <path d="M2788.07,2468.28C2787.45,2471.98 2783.95,2474.47 2780.25,2473.85C2776.56,2473.23 2774.07,2469.73 2774.69,2466.03C2775.31,2462.34 2778.81,2459.85 2782.5,2460.47C2786.2,2461.09 2788.69,2464.59 2788.07,2468.28Z" style="fill:rgb(212,237,237);fill-rule:nonzero;"/>
    </g>
    <g transform="matrix(4.16667,0,0,4.16667,-1337.5,-4736.21)">
        <path d="M2255.56,3030.1L2417,2997.24L2391.9,2873.95L2230.47,2906.81L2255.56,3030.1Z" style="fill:rgb(248,248,249);fill-rule:nonzero;"/>
    </g>
    <g transform="matrix(4.16667,0,0,4.16667,-1337.5,-4736.21)">
        <path d="M2358.45,2711.71C2358.08,2709.94 2357.88,2709.06 2357.5,2707.29L2195.81,2740.2C2196.14,2741.98 2196.31,2742.87 2196.67,2744.64L2197.43,2744.48L2230.47,2906.81L2391.9,2873.95L2358.86,2711.63L2358.45,2711.71Z" style="fill:rgb(219,214,33);fill-rule:nonzero;"/>
    </g>
    <g transform="matrix(4.16667,0,0,4.16667,-1337.5,-4736.21)">
        <path d="M2283.75,2561.12C2276.09,2553.3 2271.29,2543.78 2267.78,2534.33L2254.97,2536.94C2252.8,2542.92 2247.51,2546.88 2240.83,2548.24C2234.14,2549.6 2227.73,2548.03 2223.39,2543.37L2210.98,2545.89C2211.39,2555.97 2210.61,2566.93 2206.74,2576.79C2196.97,2601.73 2179.32,2653.03 2195.81,2740.2L2357.5,2707.29C2338.6,2620.6 2302.49,2580.25 2283.75,2561.12Z" style="fill:rgb(248,248,249);fill-rule:nonzero;"/>
    </g>
    <g transform="matrix(4.16667,0,0,4.16667,-1337.5,-4736.21)">
        <path d="M2240.83,2548.24C2247.51,2546.88 2252.8,2542.92 2254.97,2536.94L2267.78,2534.33C2267.75,2534.34 2267.36,2534.39 2267.33,2534.21L2264.3,2519.34L2253.33,2521.57C2249.36,2515.91 2241.75,2512.76 2233.93,2514.35C2226.1,2515.95 2220.33,2521.82 2218.89,2528.58L2208.42,2530.71L2211.21,2544.41C2211.32,2544.98 2211.07,2545.87 2210.98,2545.89L2223.39,2543.37C2227.73,2548.03 2234.14,2549.6 2240.83,2548.24Z" style="fill:rgb(219,214,33);fill-rule:nonzero;"/>
    </g>
    <g transform="matrix(4.16667,0,0,4.16667,-1337.5,-4736.21)">
        <path d="M2248.05,2439.51L2249.84,2439.14C2251.84,2438.74 2253.13,2437.24 2252.73,2435.25L2252.66,2434.93C2252.26,2432.94 2250.39,2431.64 2248.4,2432.04L2187.13,2444.52C2185.14,2444.92 2183.96,2446.84 2184.37,2448.83L2184.43,2449.15C2184.83,2451.14 2186.59,2452.02 2188.58,2451.61L2192.17,2450.88L2193.25,2456.2L2249.14,2444.83L2248.05,2439.51Z" style="fill:rgb(219,214,33);fill-rule:nonzero;"/>
    </g>
    <g transform="matrix(4.16667,0,0,4.16667,-1337.5,-4736.21)">
        <path d="M2193.25,2456.2L2208.42,2530.71L2218.89,2528.58C2220.33,2521.82 2226.1,2515.95 2233.93,2514.35C2241.75,2512.76 2249.36,2515.91 2253.33,2521.57L2264.3,2519.34L2249.14,2444.83L2193.25,2456.2Z" style="fill:rgb(248,248,249);fill-rule:nonzero;"/>
    </g>
    <g transform="matrix(4.16667,0,0,4.16667,-1337.5,-4736.21)">
        <path d="M4643.4,3049.11L4691.25,3017C4691.25,3017 4774.13,3090.42 4774.13,3145.88C4774.13,3201.34 4625.39,3140.23 4625.39,3140.23L4643.4,3049.11Z" style="fill:rgb(44,71,70);fill-rule:nonzero;"/>
    </g>
    <g transform="matrix(4.16667,0,0,4.16667,-1337.5,-4736.21)">
        <path d="M2101.1,2706.31L2145.93,3045.34L2798.77,3050.94L2863.22,2697.9L2101.1,2706.31Z" style="fill:rgb(226,136,129);fill-rule:nonzero;"/>
    </g>
    <g transform="matrix(4.16667,0,0,4.16667,-1337.5,-4736.21)">
        <rect x="401" y="3202" width="4294" height="747" style="fill:rgb(76,136,136);fill-rule:nonzero;"/>
    </g>
    <g transform="matrix(4.16667,0,0,4.16667,-1337.5,-4736.21)">
        <rect x="401" y="3949" width="4294" height="642" style="fill:rgb(81,146,148);fill-rule:nonzero;"/>
    </g>
    <g transform="matrix(4.16667,0,0,4.16667,-1337.5,-4736.21)">
        <path d="M4774,3146.12C4774,3176.98 4748.98,3202 4718.12,3202L376.882,3202C346.019,3202 321,3176.98 321,3146.12L321,3145.88C321,3115.02 346.019,3090 376.882,3090L4718.12,3090C4748.98,3090 4774,3115.02 4774,3145.88L4774,3146.12Z" style="fill:rgb(59,99,99);fill-rule:nonzero;"/>
    </g>
    <g transform="matrix(4.16667,0,0,4.16667,-1337.5,-4736.21)">
        <path d="M1369.96,3608L1542.07,4183L1774.56,4183L1589.82,3608L1369.96,3608Z" style="fill:rgb(227,109,109);fill-rule:nonzero;"/>
    </g>
    <g transform="matrix(4.16667,0,0,4.16667,-1337.5,-4736.21)">
        <path d="M904.956,3608L1077.07,4183L1309.56,4183L1124.82,3608L904.956,3608Z" style="fill:rgb(227,109,109);fill-rule:nonzero;"/>
    </g>
    <g transform="matrix(4.16667,0,0,4.16667,-1337.5,-4736.21)">
        <path d="M2305,4270.46C2305,4312.18 2271.18,4346 2229.46,4346L1924.54,4346C1882.82,4346 1849,4312.18 1849,4270.46L1849,3544.54C1849,3502.82 1882.82,3469 1924.54,3469L2229.46,3469C2271.18,3469 2305,3502.82 2305,3544.54L2305,4270.46Z" style="fill:rgb(192,229,230);fill-rule:nonzero;"/>
    </g>
    <g transform="matrix(4.16667,0,0,4.16667,-1337.5,-4736.21)">
        <path d="M2180.66,3611.9C2180.66,3660.6 2141.18,3700.09 2092.47,3700.09C2043.77,3700.09 2004.29,3660.6 2004.29,3611.9C2004.29,3563.2 2043.77,3523.71 2092.47,3523.71C2141.18,3523.71 2180.66,3563.2 2180.66,3611.9Z" style="fill:white;fill-rule:nonzero;"/>
    </g>
    <g transform="matrix(4.16667,0,0,4.16667,-1337.5,-4736.21)">
        <path d="M2180.66,4177.9C2180.66,4226.6 2141.18,4266.09 2092.47,4266.09C2043.77,4266.09 2004.29,4226.6 2004.29,4177.9C2004.29,4129.2 2043.77,4089.71 2092.47,4089.71C2141.18,4089.71 2180.66,4129.2 2180.66,4177.9Z" style="fill:white;fill-rule:nonzero;"/>
    </g>
    <g transform="matrix(4.16667,0,0,4.16667,-1337.5,-4736.21)">
        <path d="M910.215,4130C779.382,4130 672.941,4023.33 672.941,3892.5C672.941,3761.67 779.382,3655 910.215,3655L2125,3655L2125,3570L910.215,3570C732.196,3570 587.367,3714.48 587.367,3892.5C587.367,4070.52 732.196,4215 910.215,4215L2125,4215L2125,4130L910.215,4130Z" style="fill:white;fill-rule:nonzero;"/>
    </g>
    <g transform="matrix(4.16667,0,0,4.16667,-1337.5,-4736.21)">
        <path d="M2730.71,3031.41L2730.71,2968.08L2800.02,2968.26L2789.76,3031.41L2730.71,3031.41ZM2154.51,2966.62L2235.29,2966.83L2235.29,3031.41L2162.86,3031.41L2154.51,2966.62ZM2235.29,2844.17L2235.29,2947.09L2151.96,2946.88L2138.72,2844.17L2235.29,2844.17ZM2354.23,2844.17L2354.23,2947.4L2255.03,2947.15L2255.03,2844.17L2354.23,2844.17ZM2474.9,2844.17L2474.9,2947.69L2373.96,2947.44L2373.96,2844.17L2474.9,2844.17ZM2590.31,2844.17L2590.31,2948L2494.63,2947.75L2494.63,2844.17L2590.31,2844.17ZM2610.04,2967.77L2710.98,2968.04L2710.98,3031.41L2610.04,3031.41L2610.04,2967.77ZM2494.63,2967.49L2590.31,2967.74L2590.31,3031.41L2494.63,3031.41L2494.63,2967.49ZM2354.23,3031.41L2255.03,3031.41L2255.03,2966.89L2354.23,2967.14L2354.23,3031.41ZM2373.96,2967.18L2474.9,2967.43L2474.9,3031.41L2373.96,3031.41L2373.96,2967.18ZM2710.98,2844.17L2710.98,2948.31L2610.04,2948.03L2610.04,2844.17L2710.98,2844.17ZM2820.18,2844.17L2803.22,2948.53L2730.71,2948.34L2730.71,2844.17L2820.18,2844.17ZM2865.67,2687.15C2855.05,2685.48 2844.79,2692.73 2843.02,2703.48L2823.38,2824.43L2730.71,2824.43L2730.71,2717.13L2710.98,2717.13L2710.98,2824.43L2610.04,2824.43L2610.04,2713.63L2590.31,2713.63L2590.31,2824.43L2494.63,2824.43L2494.63,2715.38L2474.9,2715.38L2474.9,2824.43L2373.96,2824.43L2373.96,2715.38L2354.23,2715.38L2354.23,2824.43L2255.03,2824.43L2255.03,2713.63L2235.29,2713.63L2235.29,2824.43L2136.18,2824.43L2121.35,2709.36C2119.96,2698.56 2110.42,2690.85 2099.24,2692.3C2088.43,2693.69 2080.79,2703.59 2082.19,2714.41L2125.9,3053.67C2127.17,3063.52 2135.56,3070.88 2145.49,3070.88L2806.55,3070.88C2816.23,3070.88 2824.48,3063.87 2826.04,3054.31L2881.99,2709.8C2883.73,2699.04 2876.43,2688.9 2865.67,2687.15Z" style="fill:rgb(228,75,58);fill-rule:nonzero;"/>
    </g>
    <g transform="matrix(4.16667,0,0,4.16667,-1337.5,-4736.21)">
        <rect x="2042" y="2650" width="874" height="70" style="fill:rgb(210,70,53);fill-rule:nonzero;"/>
    </g>
    <g transform="matrix(4.16667,0,0,4.16667,-1337.5,-4736.21)">
        <path d="M2231.53,2692.6C2223.77,2692.6 2216.02,2689.57 2210.19,2683.52C2198.86,2671.75 2199.23,2653 2211,2641.66L2396.39,2463.27C2408.17,2451.92 2426.88,2452.29 2438.25,2464.08C2449.59,2475.87 2449.22,2494.6 2437.45,2505.95L2252.07,2684.33C2246.32,2689.86 2238.92,2692.6 2231.53,2692.6Z" style="fill:rgb(50,87,103);fill-rule:nonzero;"/>
    </g>
    <g transform="matrix(4.16667,0,0,4.16667,-1337.5,-4736.21)">
        <path d="M2710.71,2694.35C2703.03,2694.35 2695.37,2691.39 2689.58,2685.48L2505.95,2498.36C2494.51,2486.68 2494.67,2467.94 2506.34,2456.48C2518.02,2445.04 2536.8,2445.23 2548.21,2456.87L2731.84,2644C2743.28,2655.67 2743.11,2674.42 2731.45,2685.88C2725.69,2691.53 2718.19,2694.35 2710.71,2694.35Z" style="fill:rgb(50,87,103);fill-rule:nonzero;"/>
    </g>
    <g transform="matrix(4.16667,0,0,4.16667,-1337.5,-4736.21)">
        <path d="M4121.08,2947.87C4125.13,2925.11 4138.35,2911.92 4155.87,2900.6C4161.8,2896.77 4168.15,2893.59 4177.33,2888.4C4172.12,2883.15 4167.36,2878.35 4162.82,2873.78C4138.3,2902.57 4051.47,2995.7 3978.11,2964.51C3917.91,2938.92 3870.9,2873.65 3849.43,2822.14C3844.47,2827.06 3840.47,2831.67 3839.2,2836.94C3832.79,2863.64 3834.89,2890.46 3851.21,2914.42C3883.6,2961.99 3926.75,2995.66 3982.74,3009.25C4004.67,3014.58 4029.38,3015.61 4051.49,3011.46C4086.03,3004.96 4114.39,2985.55 4121.08,2947.87Z" style="fill:rgb(254,208,57);fill-rule:nonzero;"/>
    </g>
    <g transform="matrix(4.16667,0,0,4.16667,-1337.5,-4736.21)">
        <path d="M3978.11,2964.51C4051.47,2995.7 4138.3,2902.57 4162.82,2873.78C4158.07,2869 4153.57,2864.47 4149.08,2859.94C4145.22,2863.02 4143.03,2864.03 4141.96,2865.74C4113.73,2910.92 4072.34,2929.69 4019.74,2920.32C3978.48,2912.97 3946.85,2888.56 3917.34,2860.82C3899.95,2844.47 3882.9,2827.74 3862.92,2808.49C3858.45,2813.64 3853.61,2818 3849.43,2822.14C3870.9,2873.65 3917.91,2938.92 3978.11,2964.51Z" style="fill:rgb(236,186,29);fill-rule:nonzero;"/>
    </g>
    <g transform="matrix(4.16667,0,0,4.16667,-1337.5,-4736.21)">
        <path d="M3862.92,2808.49L3859.63,2804.7L3843.07,2818.63L3841.18,2834.2L3862.92,2808.49Z" style="fill:rgb(180,167,51);fill-rule:nonzero;"/>
    </g>
    <g transform="matrix(4.16667,0,0,4.16667,-1337.5,-4736.21)">
        <path d="M4153.6,2963.36C4148.49,2940.81 4155.55,2923.52 4167.3,2906.29C4171.28,2900.45 4175.89,2895.06 4182.35,2886.71C4175.5,2883.89 4169.25,2881.33 4163.29,2878.87C4151.88,2914.92 4108.02,3034.46 4028.3,3034.2C3962.89,3033.99 3894.22,2992.08 3854.44,2952.96C3851.78,2959.41 3849.88,2965.22 3850.76,2970.57C3855.22,2997.66 3867.56,3021.56 3891.91,3037.31C3940.22,3068.57 3993.06,3082.85 4049.94,3073.64C4072.22,3070.03 4095.39,3061.38 4114.15,3048.98C4143.46,3029.58 4162.06,3000.67 4153.6,2963.36Z" style="fill:rgb(254,208,57);fill-rule:nonzero;"/>
    </g>
    <g transform="matrix(4.16667,0,0,4.16667,-1337.5,-4736.21)">
        <path d="M4028.3,3034.2C4108.02,3034.46 4151.88,2914.92 4163.29,2878.87C4157.06,2876.31 4151.16,2873.88 4145.26,2871.46C4142.9,2875.79 4141.27,2877.58 4140.95,2879.56C4132.47,2932.16 4101.62,2965.53 4049.51,2977.31C4008.63,2986.56 3970,2976.34 3932.04,2962.24C3909.66,2953.92 3887.46,2945.12 3861.57,2935.14C3859.45,2941.62 3856.68,2947.52 3854.44,2952.96C3894.22,2992.08 3962.89,3033.99 4028.3,3034.2Z" style="fill:rgb(236,186,29);fill-rule:nonzero;"/>
    </g>
    <g transform="matrix(4.16667,0,0,4.16667,-1337.5,-4736.21)">
        <path d="M3861.57,2935.14L3857.07,2932.92L3847.21,2952.19L3851.52,2967.28L3861.57,2935.14Z" style="fill:rgb(180,167,51);fill-rule:nonzero;"/>
    </g>
    <g transform="matrix(4.16667,0,0,4.16667,-1337.5,-4736.21)">
        <path d="M3554.37,2665.22C3554.37,2672.7 3548.45,2678.75 3541.15,2678.75L3376.04,2678.75C3368.74,2678.75 3362.82,2672.7 3362.82,2665.22L3362.82,2558.57C3362.82,2551.09 3368.74,2545.04 3376.04,2545.04L3541.15,2545.04C3548.45,2545.04 3554.37,2551.09 3554.37,2558.57L3554.37,2665.22Z" style="fill:rgb(221,217,214);fill-rule:nonzero;"/>
    </g>
    <g transform="matrix(4.16667,0,0,4.16667,-1337.5,-4736.21)">
        <path d="M3362.95,2596.27L3316.64,2661.58L3319.85,2668.34L3513.03,2671.31L3516.81,2663.84L3554.64,2598.5L3362.95,2596.27Z" style="fill:rgb(246,247,252);fill-rule:nonzero;"/>
    </g>
    <g transform="matrix(4.16667,0,0,4.16667,-1337.5,-4736.21)">
        <path d="M3554.64,2598.5L3598.43,2650.51L3516.84,2663.84L3554.64,2598.5Z" style="fill:rgb(221,217,214);fill-rule:nonzero;"/>
    </g>
    <g transform="matrix(4.16667,0,0,4.16667,-1337.5,-4736.21)">
        <path d="M3461.32,2623.73C3463.16,2632.94 3448.16,2643.7 3427.81,2647.75C3407.47,2651.8 3389.49,2647.62 3387.66,2638.41C3385.82,2629.2 3400.83,2618.44 3421.17,2614.39C3441.51,2610.34 3459.49,2614.52 3461.32,2623.73Z" style="fill:rgb(33,142,174);fill-rule:nonzero;"/>
    </g>
    <g transform="matrix(4.16667,0,0,4.16667,-1337.5,-4736.21)">
        <path d="M3390.21,2606.51L3383.39,2608.52L3387.75,2639.22L3461.32,2623.73L3456.88,2593.48L3390.21,2606.51Z" style="fill:rgb(33,142,174);fill-rule:nonzero;"/>
    </g>
    <g transform="matrix(4.16667,0,0,4.16667,-1337.5,-4736.21)">
        <path d="M3457.05,2593.84C3458.89,2603.06 3443.89,2613.81 3423.54,2617.86C3403.2,2621.92 3385.23,2617.73 3383.39,2608.52C3381.55,2599.31 3396.56,2588.55 3416.9,2584.5C3437.24,2580.45 3455.22,2584.63 3457.05,2593.84Z" style="fill:rgb(37,160,208);fill-rule:nonzero;"/>
    </g>
    <g transform="matrix(4.16667,0,0,4.16667,-1337.5,-4736.21)">
        <path d="M3589.69,2854.28C3581.95,2853.76 3582.47,2830.55 3570.6,2829.01C3558.74,2827.46 3563.9,2855.83 3555.65,2856.34C3547.39,2856.86 3557.19,2833.13 3542.75,2833.13C3528.42,2833.13 3540.49,2907.25 3517.52,2908.43L3517.99,3071.27L3598.43,3028.04L3598.43,2831.59C3594.86,2832.23 3597.4,2854.8 3589.69,2854.28Z" style="fill:rgb(178,226,246);fill-rule:nonzero;"/>
    </g>
    <g transform="matrix(4.16667,0,0,4.16667,-1337.5,-4736.21)">
        <path d="M3516.81,2663.84L3517.52,2908.43C3540.49,2907.25 3528.42,2833.13 3542.75,2833.13C3557.19,2833.13 3547.39,2856.86 3555.65,2856.34C3563.9,2855.83 3558.74,2827.46 3570.6,2829.01C3582.47,2830.55 3581.95,2853.76 3589.69,2854.28C3597.4,2854.8 3594.86,2832.23 3598.43,2831.59L3598.43,2650.51L3516.81,2663.84Z" style="fill:rgb(246,247,252);fill-rule:nonzero;"/>
    </g>
    <g transform="matrix(4.16667,0,0,4.16667,-1337.5,-4736.21)">
        <path d="M3498.39,2824.36C3492.72,2820.24 3482.92,2827.46 3482.92,2827.46C3482.92,2827.46 3476.73,2868.72 3457.13,2866.66C3437.53,2864.6 3443.72,2822.3 3428.76,2822.82C3413.8,2823.33 3405.03,2854.28 3405.03,2867.69C3405.03,2881.1 3404,2909.99 3391.1,2909.99C3378.21,2909.99 3377.18,2898.12 3378.21,2881.62C3379.24,2865.11 3371.5,2839.84 3360.67,2842.42C3349.84,2845 3360.16,2887.29 3340.04,2887.29C3319.92,2887.29 3334.88,2821.79 3316.83,2816.11C3316.72,2816.08 3316.62,2816.05 3316.52,2816.01L3316.52,3046.81L3517.97,3071.27L3517.48,2908.43C3517.31,2908.44 3517.14,2908.44 3516.96,2908.44C3493.23,2908.44 3504.07,2828.49 3498.39,2824.36Z" style="fill:rgb(112,191,222);fill-rule:nonzero;"/>
    </g>
    <g transform="matrix(4.16667,0,0,4.16667,-1337.5,-4736.21)">
        <path d="M3316.52,2661.58L3316.52,2816.01C3316.62,2816.05 3316.72,2816.08 3316.83,2816.11C3334.88,2821.79 3319.92,2887.29 3340.04,2887.29C3360.16,2887.29 3349.84,2845 3360.67,2842.42C3371.5,2839.84 3379.24,2865.11 3378.21,2881.62C3377.18,2898.12 3378.21,2909.99 3391.1,2909.99C3404,2909.99 3405.03,2881.1 3405.03,2867.69C3405.03,2854.28 3413.8,2823.33 3428.76,2822.82C3443.72,2822.3 3437.53,2864.6 3457.13,2866.66C3476.73,2868.72 3482.92,2827.46 3482.92,2827.46C3482.92,2827.46 3492.72,2820.24 3498.39,2824.36C3504.07,2828.49 3493.23,2908.44 3516.96,2908.44C3517.14,2908.44 3517.31,2908.44 3517.48,2908.43L3516.75,2663.84L3316.52,2661.58Z" style="fill:rgb(234,230,229);fill-rule:nonzero;"/>
    </g>
    <g transform="matrix(4.16667,0,0,4.16667,-1337.5,-4736.21)">
        <rect x="3103.84" y="2927.3" width="148.11" height="113.11" style="fill:rgb(248,248,249);fill-rule:nonzero;"/>
    </g>
    <g transform="matrix(4.16667,0,0,4.16667,-1337.5,-4736.21)">
        <path d="M3251.57,2778.38C3251.56,2776.75 3251.55,2775.94 3251.52,2774.31L3103.19,2774.31C3103.16,2775.94 3103.15,2776.75 3103.15,2778.38L3103.84,2778.38L3103.84,2927.3L3251.95,2927.3L3251.95,2778.38L3251.57,2778.38Z" style="fill:rgb(216,31,39);fill-rule:nonzero;"/>
    </g>
    <g transform="matrix(4.16667,0,0,4.16667,-1337.5,-4736.21)">
        <path d="M3212.76,2632.32C3207.42,2624.06 3204.9,2614.82 3203.5,2605.87L3191.75,2605.87C3188.76,2610.75 3183.39,2613.28 3177.26,2613.28C3171.13,2613.28 3165.76,2610.75 3162.78,2605.87L3151.39,2605.87C3149.94,2614.82 3147.29,2624.33 3142.12,2632.32C3129.04,2652.54 3104.29,2694.56 3103.19,2774.31L3251.52,2774.31C3250.42,2694.56 3225.84,2652.54 3212.76,2632.32Z" style="fill:rgb(248,248,249);fill-rule:nonzero;"/>
    </g>
    <g transform="matrix(4.16667,0,0,4.16667,-1337.5,-4736.21)">
        <path d="M3177.26,2613.28C3183.39,2613.28 3188.76,2610.75 3191.75,2605.87L3203.5,2605.87C3203.47,2605.87 3203.12,2605.84 3203.12,2605.68L3203.12,2592.03L3193.06,2592.03C3190.58,2586.33 3184.44,2582.2 3177.26,2582.2C3170.08,2582.2 3163.94,2586.33 3161.46,2592.03L3151.86,2592.03L3151.86,2604.6C3151.86,2605.12 3151.47,2605.87 3151.39,2605.87L3162.78,2605.87C3165.76,2610.75 3171.13,2613.28 3177.26,2613.28Z" style="fill:rgb(216,31,39);fill-rule:nonzero;"/>
    </g>
    <g transform="matrix(4.16667,0,0,4.16667,-1337.5,-4736.21)">
        <path d="M3203.12,2518.79L3204.77,2518.79C3206.59,2518.79 3208.01,2517.71 3208.01,2515.88L3208.01,2515.59C3208.01,2513.77 3206.59,2512.28 3204.77,2512.28L3148.56,2512.28C3146.73,2512.28 3145.35,2513.77 3145.35,2515.59L3145.35,2515.88C3145.35,2517.71 3146.73,2518.79 3148.56,2518.79L3151.86,2518.79L3151.86,2523.68L3203.12,2523.68L3203.12,2518.79Z" style="fill:rgb(216,31,39);fill-rule:nonzero;"/>
    </g>
    <g transform="matrix(4.16667,0,0,4.16667,-1337.5,-4736.21)">
        <path d="M3151.86,2523.68L3151.86,2592.03L3161.46,2592.03C3163.94,2586.33 3170.08,2582.2 3177.26,2582.2C3184.44,2582.2 3190.58,2586.33 3193.06,2592.03L3203.12,2592.03L3203.12,2523.68L3151.86,2523.68Z" style="fill:rgb(248,248,249);fill-rule:nonzero;"/>
    </g>
    <g transform="matrix(4.16667,0,0,4.16667,-1337.5,-4736.21)">
        <path d="M3763.66,2649.9C3762.53,2579.05 3704.26,2567.61 3704.26,2567.61L3704.26,2402.3L3639.79,2402.3L3639.79,2567.61C3639.79,2567.61 3581.53,2579.05 3580.39,2649.9C3580.36,2650.01 3580.29,2650.25 3580.29,2650.25L3580.29,3040.37C3610.38,3052.41 3642.87,3055.66 3672.03,3054.95C3701.19,3055.66 3733.68,3052.41 3763.77,3040.37L3763.77,2650.25C3763.77,2650.25 3763.7,2650.01 3763.66,2649.9Z" style="fill:rgb(17,18,29);fill-rule:nonzero;"/>
    </g>
    <g transform="matrix(4.16667,0,0,4.16667,-1337.5,-4736.21)">
        <rect x="3580.29" y="2714.71" width="183.48" height="105.79" style="fill:white;fill-rule:nonzero;"/>
    </g>
    <g transform="matrix(4.16667,0,0,4.16667,-1337.5,-4736.21)">
        <path d="M3709.27,2397.14L3634.79,2397.14L3634.79,2448.58L3638.52,2448.58L3638.52,2532.89L3705.54,2532.89L3705.54,2448.58L3709.27,2448.58L3709.27,2397.14Z" style="fill:rgb(192,31,71);fill-rule:nonzero;"/>
    </g>
    <g transform="matrix(4.16667,0,0,4.16667,-1337.5,-4736.21)">
        <path d="M3749.97,2780.3C3749.97,2792.39 3740.18,2802.19 3728.09,2802.19L3615.36,2802.19C3603.27,2802.19 3593.47,2792.39 3593.47,2780.3L3593.47,2760.3C3593.47,2748.21 3603.27,2738.41 3615.36,2738.41L3728.09,2738.41C3740.18,2738.41 3749.97,2748.21 3749.97,2760.3L3749.97,2780.3Z" style="fill:rgb(192,31,71);fill-rule:nonzero;"/>
    </g>
    <g transform="matrix(4.16667,0,0,4.16667,-1337.5,-4736.21)">
        <path d="M4517.62,2953.61C4513.59,2946.52 4508.21,2939.59 4501.65,2933.01C4463.68,2894.97 4387.98,2939.8 4358.69,2949.54C4329.39,2959.28 4280.89,2954.14 4280.89,2954.14C4234.9,2953.25 4221.9,2970.1 4222.13,2989.42C4252.98,3018.01 4331.23,3048.21 4517.62,2953.61Z" style="fill:rgb(68,42,55);fill-rule:nonzero;"/>
    </g>
    <g transform="matrix(4.16667,0,0,4.16667,-1337.5,-4736.21)">
        <path d="M4222.13,2989.42C4222.39,3010.23 4237.98,3033.89 4244.28,3041.36C4256.42,3055.75 4376.81,3068.17 4457.85,3044.52C4524.88,3024.96 4536.93,2987.5 4517.62,2953.61C4331.23,3048.21 4252.98,3018.01 4222.13,2989.42Z" style="fill:rgb(51,28,38);fill-rule:nonzero;"/>
    </g>
    <g transform="matrix(4.16667,0,0,4.16667,-1337.5,-4736.21)">
        <path d="M4210.96,2976.8C4192.35,2983.2 4186,2971.23 4181.1,2976.24C4175.94,2981.51 4179.1,2981.65 4193.25,2990.64C4207.39,2999.63 4206.69,3007.42 4215.27,3031.17C4223.85,3054.92 4258.64,3049.61 4258.64,3049.61C4250.72,3045.26 4244.65,3023.86 4244.65,3023.86C4267.11,3031.17 4287.43,3005.49 4293.64,2996.63C4244.16,3009.99 4220.37,2989.33 4210.96,2976.8Z" style="fill:rgb(123,132,90);fill-rule:nonzero;"/>
    </g>
    <g transform="matrix(4.16667,0,0,4.16667,-1337.5,-4736.21)">
        <path d="M4270.57,2957.89C4286.21,2960.51 4288.73,2949.26 4288.73,2949.26C4278.2,2953.74 4251.71,2945.9 4233.86,2949.42C4216.01,2952.95 4214.11,2975.6 4214.11,2975.6C4213.02,2976.06 4211.97,2976.45 4210.96,2976.8C4220.37,2989.33 4244.16,3009.99 4293.64,2996.63C4294.9,2994.83 4295.59,2993.71 4295.59,2993.71C4258.34,2997.89 4240.27,2973.74 4240.27,2973.74C4240.27,2973.74 4254.94,2955.26 4270.57,2957.89Z" style="fill:rgb(150,154,111);fill-rule:nonzero;"/>
    </g>
    <g transform="matrix(4.16667,0,0,4.16667,-1337.5,-4736.21)">
        <path d="M4337.95,2968.22C4337.95,2968.22 4394.58,2962.16 4445.43,2936.39C4496.28,2910.61 4475.63,2953.33 4432.38,2966.95C4389.13,2980.56 4291.37,2983.65 4337.95,2968.22Z" style="fill:rgb(87,58,74);fill-rule:nonzero;"/>
    </g>
    <g transform="matrix(4.16667,0,0,4.16667,-1337.5,-4736.21)">
        <rect x="1389" y="2455" width="68" height="272" style="fill:rgb(217,217,217);fill-rule:nonzero;"/>
    </g>
    <g transform="matrix(4.16667,0,0,4.16667,-1337.5,-4736.21)">
        <path d="M1596,2474.8C1596,2490.93 1582.93,2504 1566.8,2504L1279.2,2504C1263.07,2504 1250,2490.93 1250,2474.8L1250,2388.2C1250,2372.07 1263.07,2359 1279.2,2359L1566.8,2359C1582.93,2359 1596,2372.07 1596,2388.2L1596,2474.8Z" style="fill:rgb(238,235,243);fill-rule:nonzero;"/>
    </g>
    <g transform="matrix(4.16667,0,0,4.16667,-1337.5,-4736.21)">
        <path d="M1575,2460.27C1575,2473.93 1563.93,2485 1550.27,2485L1296.73,2485C1283.07,2485 1272,2473.93 1272,2460.27L1272,2400.73C1272,2387.07 1283.07,2376 1296.73,2376L1550.27,2376C1563.93,2376 1575,2387.07 1575,2400.73L1575,2460.27Z" style="fill:rgb(30,115,162);fill-rule:nonzero;"/>
    </g>
    <g transform="matrix(4.16667,0,0,4.16667,-1337.5,-4736.21)">
        <path d="M837,2709.5C837,2715.85 831.851,2721 825.5,2721C819.149,2721 814,2715.85 814,2709.5L814,2493.5C814,2487.15 819.149,2482 825.5,2482C831.851,2482 837,2487.15 837,2493.5L837,2709.5Z" style="fill:rgb(217,217,217);fill-rule:nonzero;"/>
    </g>
    <g transform="matrix(4.16667,0,0,4.16667,-1337.5,-4736.21)">
        <rect x="789" y="2622" width="108" height="85" style="fill:rgb(217,217,217);fill-rule:nonzero;"/>
    </g>
    <g transform="matrix(4.16667,0,0,4.16667,-1337.5,-4736.21)">
        <rect x="738" y="2920" width="981" height="173" style="fill:rgb(238,235,243);fill-rule:nonzero;"/>
    </g>
    <g transform="matrix(4.16667,0,0,4.16667,-1337.5,-4736.21)">
        <path d="M1592.56,2735.66L1228.16,2735.8L863.765,2735.63L737.567,2920L1718.76,2920L1592.56,2735.66Z" style="fill:rgb(217,217,217);fill-rule:nonzero;"/>
    </g>
    <g transform="matrix(4.16667,0,0,4.16667,-1337.5,-4736.21)">
        <rect x="864" y="2594" width="728" height="142" style="fill:rgb(238,235,243);fill-rule:nonzero;"/>
    </g>
    <g transform="matrix(4.16667,0,0,4.16667,-1337.5,-4736.21)">
        <rect x="904" y="2615" width="643" height="101" style="fill:rgb(30,115,162);fill-rule:nonzero;"/>
    </g>
    <g transform="matrix(4.16667,0,0,4.16667,-1337.5,-4736.21)">
        <path d="M1309.09,2455.48L1309.09,2446.97L1316.87,2439.93C1330.01,2428.18 1336.4,2421.42 1336.59,2414.38C1336.59,2409.48 1333.62,2405.59 1326.68,2405.59C1321.5,2405.59 1316.96,2408.18 1313.81,2410.59L1309.83,2400.5C1314.37,2397.07 1321.41,2394.3 1329.55,2394.3C1343.16,2394.3 1350.66,2402.26 1350.66,2413.18C1350.66,2423.27 1343.34,2431.32 1334.64,2439.1L1329.09,2443.73L1329.09,2443.91L1351.77,2443.91L1351.77,2455.48L1309.09,2455.48Z" style="fill:rgb(238,235,243);fill-rule:nonzero;"/>
    </g>
    <g transform="matrix(4.16667,0,0,4.16667,-1337.5,-4736.21)">
        <path d="M1400.64,2406.89L1377.31,2406.89L1376.02,2416.14C1377.31,2415.96 1378.43,2415.96 1379.91,2415.96C1385.65,2415.96 1391.48,2417.25 1395.73,2420.31C1400.27,2423.36 1403.05,2428.36 1403.05,2435.4C1403.05,2446.6 1393.42,2456.5 1377.22,2456.5C1369.91,2456.5 1363.8,2454.83 1360.47,2453.07L1362.97,2442.52C1365.65,2443.82 1371.11,2445.48 1376.57,2445.48C1382.41,2445.48 1388.61,2442.71 1388.61,2436.32C1388.61,2430.12 1383.7,2426.32 1371.67,2426.32C1368.34,2426.32 1366.02,2426.51 1363.52,2426.88L1367.5,2395.32L1400.64,2395.32L1400.64,2406.89Z" style="fill:rgb(238,235,243);fill-rule:nonzero;"/>
    </g>
    <g transform="matrix(4.16667,0,0,4.16667,-1337.5,-4736.21)">
        <path d="M1412.58,2447.98C1412.58,2442.99 1416.01,2439.38 1420.91,2439.38C1425.82,2439.38 1429.15,2442.89 1429.15,2447.98C1429.15,2452.89 1425.82,2456.5 1420.82,2456.5C1416.01,2456.5 1412.58,2452.89 1412.58,2447.98Z" style="fill:rgb(238,235,243);fill-rule:nonzero;"/>
    </g>
    <g transform="matrix(4.16667,0,0,4.16667,-1337.5,-4736.21)">
        <path d="M1438.41,2441.69C1440.91,2442.99 1446.65,2445.39 1452.38,2445.39C1459.7,2445.39 1463.4,2441.88 1463.4,2437.34C1463.4,2431.42 1457.48,2428.73 1451.27,2428.73L1445.54,2428.73L1445.54,2418.64L1451,2418.64C1455.72,2418.55 1461.73,2416.79 1461.73,2411.7C1461.73,2408.09 1458.77,2405.41 1452.85,2405.41C1447.94,2405.41 1442.76,2407.53 1440.26,2409.01L1437.39,2398.83C1441,2396.52 1448.22,2394.3 1456,2394.3C1468.86,2394.3 1475.99,2401.05 1475.99,2409.29C1475.99,2415.68 1472.38,2420.68 1464.97,2423.27L1464.97,2423.45C1472.19,2424.75 1478.02,2430.21 1478.02,2438.08C1478.02,2448.72 1468.68,2456.5 1453.4,2456.5C1445.63,2456.5 1439.06,2454.46 1435.54,2452.24L1438.41,2441.69Z" style="fill:rgb(238,235,243);fill-rule:nonzero;"/>
    </g>
    <g transform="matrix(4.16667,0,0,4.16667,-1337.5,-4736.21)">
        <path d="M1500.52,2425.49C1500.43,2439.28 1503.76,2445.86 1509.22,2445.86C1514.68,2445.86 1517.64,2439.01 1517.64,2425.31C1517.64,2411.98 1514.77,2404.94 1509.13,2404.94C1503.94,2404.94 1500.43,2411.51 1500.52,2425.49ZM1531.71,2425.12C1531.71,2443.73 1524.22,2456.5 1508.85,2456.5C1493.3,2456.5 1486.45,2442.52 1486.36,2425.49C1486.36,2408.09 1493.76,2394.3 1509.31,2394.3C1525.42,2394.3 1531.71,2408.64 1531.71,2425.12Z" style="fill:rgb(238,235,243);fill-rule:nonzero;"/>
    </g>
    <g transform="matrix(4.16667,0,0,4.16667,-1337.5,-4736.21)">
        <rect x="906" y="2752" width="132" height="32" style="fill:rgb(241,95,97);fill-rule:nonzero;"/>
    </g>
    <g transform="matrix(4.16667,0,0,4.16667,-1337.5,-4736.21)">
        <rect x="873" y="2810" width="132" height="31" style="fill:rgb(241,95,97);fill-rule:nonzero;"/>
    </g>
    <g transform="matrix(4.16667,0,0,4.16667,-1337.5,-4736.21)">
        <rect x="830" y="2873" width="132" height="31" style="fill:rgb(241,95,97);fill-rule:nonzero;"/>
    </g>
    <g transform="matrix(4.16667,0,0,4.16667,-1337.5,-4736.21)">
        <rect x="1410" y="2752" width="132" height="32" style="fill:rgb(241,95,97);fill-rule:nonzero;"/>
    </g>
    <g transform="matrix(4.16667,0,0,4.16667,-1337.5,-4736.21)">
        <rect x="1444" y="2810" width="132" height="31" style="fill:rgb(241,95,97);fill-rule:nonzero;"/>
    </g>
    <g transform="matrix(4.16667,0,0,4.16667,-1337.5,-4736.21)">
        <rect x="1487" y="2873" width="132" height="31" style="fill:rgb(241,95,97);fill-rule:nonzero;"/>
    </g>
    <g transform="matrix(4.16667,0,0,4.16667,-1337.5,-4736.21)">
        <path d="M1111,2772.81C1111,2779.54 1105.54,2785 1098.81,2785L1079.19,2785C1072.46,2785 1067,2779.54 1067,2772.81L1067,2772.19C1067,2765.46 1072.46,2760 1079.19,2760L1098.81,2760C1105.54,2760 1111,2765.46 1111,2772.19L1111,2772.81Z" style="fill:rgb(241,95,97);fill-rule:nonzero;"/>
    </g>
    <g transform="matrix(4.16667,0,0,4.16667,-1337.5,-4736.21)">
        <path d="M1197,2772.81C1197,2779.54 1191.54,2785 1184.81,2785L1165.19,2785C1158.46,2785 1153,2779.54 1153,2772.81L1153,2772.19C1153,2765.46 1158.46,2760 1165.19,2760L1184.81,2760C1191.54,2760 1197,2765.46 1197,2772.19L1197,2772.81Z" style="fill:rgb(241,95,97);fill-rule:nonzero;"/>
    </g>
    <g transform="matrix(4.16667,0,0,4.16667,-1337.5,-4736.21)">
        <path d="M1283,2772.81C1283,2779.54 1277.54,2785 1270.81,2785L1251.19,2785C1244.46,2785 1239,2779.54 1239,2772.81L1239,2772.19C1239,2765.46 1244.46,2760 1251.19,2760L1270.81,2760C1277.54,2760 1283,2765.46 1283,2772.19L1283,2772.81Z" style="fill:rgb(241,95,97);fill-rule:nonzero;"/>
    </g>
    <g transform="matrix(4.16667,0,0,4.16667,-1337.5,-4736.21)">
        <path d="M1369,2772.81C1369,2779.54 1363.54,2785 1356.81,2785L1337.19,2785C1330.46,2785 1325,2779.54 1325,2772.81L1325,2772.19C1325,2765.46 1330.46,2760 1337.19,2760L1356.81,2760C1363.54,2760 1369,2765.46 1369,2772.19L1369,2772.81Z" style="fill:rgb(241,95,97);fill-rule:nonzero;"/>
    </g>
    <g transform="matrix(4.16667,0,0,4.16667,-1337.5,-4736.21)">
        <path d="M1113,2830.81C1113,2837.54 1107.54,2843 1100.81,2843L1081.19,2843C1074.46,2843 1069,2837.54 1069,2830.81L1069,2830.19C1069,2823.46 1074.46,2818 1081.19,2818L1100.81,2818C1107.54,2818 1113,2823.46 1113,2830.19L1113,2830.81Z" style="fill:rgb(241,95,97);fill-rule:nonzero;"/>
    </g>
    <g transform="matrix(4.16667,0,0,4.16667,-1337.5,-4736.21)">
        <path d="M1199,2830.81C1199,2837.54 1193.54,2843 1186.81,2843L1167.19,2843C1160.46,2843 1155,2837.54 1155,2830.81L1155,2830.19C1155,2823.46 1160.46,2818 1167.19,2818L1186.81,2818C1193.54,2818 1199,2823.46 1199,2830.19L1199,2830.81Z" style="fill:rgb(241,95,97);fill-rule:nonzero;"/>
    </g>
    <g transform="matrix(4.16667,0,0,4.16667,-1337.5,-4736.21)">
        <path d="M1285,2830.81C1285,2837.54 1279.54,2843 1272.81,2843L1253.19,2843C1246.46,2843 1241,2837.54 1241,2830.81L1241,2830.19C1241,2823.46 1246.46,2818 1253.19,2818L1272.81,2818C1279.54,2818 1285,2823.46 1285,2830.19L1285,2830.81Z" style="fill:rgb(241,95,97);fill-rule:nonzero;"/>
    </g>
    <g transform="matrix(4.16667,0,0,4.16667,-1337.5,-4736.21)">
        <path d="M1371,2830.81C1371,2837.54 1365.54,2843 1358.81,2843L1339.19,2843C1332.46,2843 1327,2837.54 1327,2830.81L1327,2830.19C1327,2823.46 1332.46,2818 1339.19,2818L1358.81,2818C1365.54,2818 1371,2823.46 1371,2830.19L1371,2830.81Z" style="fill:rgb(241,95,97);fill-rule:nonzero;"/>
    </g>
    <g transform="matrix(4.16667,0,0,4.16667,-1337.5,-4736.21)">
        <path d="M1115,2890.81C1115,2897.54 1109.54,2903 1102.81,2903L1083.19,2903C1076.46,2903 1071,2897.54 1071,2890.81L1071,2890.19C1071,2883.46 1076.46,2878 1083.19,2878L1102.81,2878C1109.54,2878 1115,2883.46 1115,2890.19L1115,2890.81Z" style="fill:rgb(241,95,97);fill-rule:nonzero;"/>
    </g>
    <g transform="matrix(4.16667,0,0,4.16667,-1337.5,-4736.21)">
        <path d="M1202,2890.81C1202,2897.54 1196.54,2903 1189.81,2903L1170.19,2903C1163.46,2903 1158,2897.54 1158,2890.81L1158,2890.19C1158,2883.46 1163.46,2878 1170.19,2878L1189.81,2878C1196.54,2878 1202,2883.46 1202,2890.19L1202,2890.81Z" style="fill:rgb(241,95,97);fill-rule:nonzero;"/>
    </g>
    <g transform="matrix(4.16667,0,0,4.16667,-1337.5,-4736.21)">
        <path d="M1287,2890.81C1287,2897.54 1281.54,2903 1274.81,2903L1255.19,2903C1248.46,2903 1243,2897.54 1243,2890.81L1243,2890.19C1243,2883.46 1248.46,2878 1255.19,2878L1274.81,2878C1281.54,2878 1287,2883.46 1287,2890.19L1287,2890.81Z" style="fill:rgb(241,95,97);fill-rule:nonzero;"/>
    </g>
    <g transform="matrix(4.16667,0,0,4.16667,-1337.5,-4736.21)">
        <path d="M1373,2890.81C1373,2897.54 1367.54,2903 1360.81,2903L1341.19,2903C1334.46,2903 1329,2897.54 1329,2890.81L1329,2890.19C1329,2883.46 1334.46,2878 1341.19,2878L1360.81,2878C1367.54,2878 1373,2883.46 1373,2890.19L1373,2890.81Z" style="fill:rgb(241,95,97);fill-rule:nonzero;"/>
    </g>
    <g transform="matrix(4.16667,0,0,4.16667,-1337.5,-4736.21)">
        <path d="M1284.59,3006.5C1284.59,3020.63 1273.13,3032 1259,3032L1197.86,3032C1183.73,3032 1172.27,3020.63 1172.27,3006.5C1172.27,2992.37 1183.73,2981 1197.86,2981L1259,2981C1273.13,2981 1284.59,2992.37 1284.59,3006.5Z" style="fill:rgb(217,217,217);fill-rule:nonzero;"/>
    </g>
</svg>
