<?xml version="1.0" encoding="UTF-8" standalone="no"?>
<!DOCTYPE svg PUBLIC "-//W3C//DTD SVG 1.1//EN" "http://www.w3.org/Graphics/SVG/1.1/DTD/svg11.dtd">
<svg width="100%" height="100%" viewBox="0 0 2224 737" version="1.1" xmlns="http://www.w3.org/2000/svg" xmlns:xlink="http://www.w3.org/1999/xlink" xml:space="preserve" xmlns:serif="http://www.serif.com/" style="fill-rule:evenodd;clip-rule:evenodd;stroke-linejoin:round;stroke-miterlimit:2;">
    <g transform="matrix(4.16667,0,0,4.16667,-100.664,-86.2504)">
        <g transform="matrix(65.5733,0,0,65.5733,161.983,125.454)">
            <path d="M0.074,-0L0.074,-0.719L0.293,-0.719L0.436,-0.172L0.577,-0.719L0.797,-0.719L0.797,-0L0.658,-0L0.658,-0.58L0.512,-0L0.361,-0L0.213,-0.58L0.213,-0L0.074,-0Z" style="fill:rgb(45,53,138);fill-rule:nonzero;"/>
        </g>
        <g transform="matrix(65.5733,0,0,65.5733,218.509,125.454)">
            <path d="M0.366,-0.066C0.348,-0.038 0.325,-0.017 0.296,-0.003C0.267,0.012 0.233,0.019 0.195,0.019C0.143,0.019 0.104,0.004 0.076,-0.025C0.048,-0.054 0.034,-0.096 0.034,-0.15C0.034,-0.2 0.048,-0.238 0.076,-0.265C0.104,-0.291 0.15,-0.309 0.214,-0.319C0.229,-0.321 0.248,-0.324 0.271,-0.327C0.332,-0.334 0.362,-0.352 0.362,-0.379C0.362,-0.4 0.355,-0.416 0.342,-0.425C0.328,-0.434 0.306,-0.439 0.275,-0.439C0.246,-0.439 0.224,-0.433 0.209,-0.422C0.194,-0.41 0.186,-0.394 0.186,-0.373L0.186,-0.365L0.053,-0.365L0.053,-0.375C0.053,-0.429 0.072,-0.472 0.111,-0.503C0.149,-0.534 0.202,-0.55 0.27,-0.55C0.344,-0.55 0.401,-0.537 0.441,-0.511C0.48,-0.486 0.5,-0.448 0.5,-0.4L0.5,-0.098C0.5,-0.076 0.502,-0.059 0.507,-0.049C0.511,-0.038 0.519,-0.029 0.53,-0.024L0.53,-0L0.382,-0C0.377,-0.009 0.373,-0.019 0.371,-0.03C0.368,-0.041 0.367,-0.053 0.366,-0.066ZM0.364,-0.261C0.341,-0.25 0.314,-0.242 0.284,-0.235C0.254,-0.229 0.238,-0.225 0.237,-0.225C0.212,-0.218 0.195,-0.209 0.185,-0.198C0.175,-0.188 0.17,-0.173 0.17,-0.154C0.17,-0.134 0.176,-0.119 0.189,-0.107C0.202,-0.096 0.219,-0.09 0.24,-0.09C0.279,-0.09 0.309,-0.101 0.331,-0.122C0.353,-0.144 0.364,-0.174 0.364,-0.211L0.364,-0.261Z" style="fill:rgb(45,53,138);fill-rule:nonzero;"/>
        </g>
        <g transform="matrix(65.5733,0,0,65.5733,254.704,125.454)">
            <path d="M0.298,0.004C0.285,0.004 0.269,0.005 0.251,0.006C0.233,0.006 0.222,0.007 0.217,0.007C0.162,0.007 0.125,-0.003 0.105,-0.024C0.085,-0.044 0.075,-0.084 0.075,-0.144L0.075,-0.431L0.005,-0.431L0.005,-0.531L0.075,-0.531L0.075,-0.676L0.216,-0.676L0.216,-0.531L0.298,-0.531L0.298,-0.431L0.216,-0.431L0.216,-0.137C0.216,-0.123 0.219,-0.114 0.225,-0.11C0.231,-0.105 0.244,-0.103 0.263,-0.103L0.298,-0.103L0.298,0.004Z" style="fill:rgb(45,53,138);fill-rule:nonzero;"/>
        </g>
        <g transform="matrix(65.5733,0,0,65.5733,274.889,125.454)">
            <path d="M0.7,-0.247C0.695,-0.165 0.663,-0.1 0.606,-0.052C0.548,-0.004 0.473,0.02 0.381,0.02C0.274,0.02 0.192,-0.013 0.133,-0.08C0.073,-0.146 0.044,-0.239 0.044,-0.359C0.044,-0.481 0.074,-0.575 0.134,-0.64C0.194,-0.705 0.281,-0.738 0.394,-0.738C0.486,-0.738 0.558,-0.715 0.612,-0.671C0.665,-0.626 0.694,-0.563 0.699,-0.481L0.553,-0.481C0.547,-0.522 0.53,-0.553 0.503,-0.574C0.476,-0.595 0.44,-0.606 0.394,-0.606C0.329,-0.606 0.279,-0.585 0.246,-0.543C0.212,-0.501 0.195,-0.44 0.195,-0.359C0.195,-0.281 0.212,-0.22 0.245,-0.178C0.279,-0.135 0.327,-0.114 0.389,-0.114C0.434,-0.114 0.471,-0.125 0.5,-0.148C0.528,-0.171 0.547,-0.204 0.555,-0.247L0.7,-0.247Z" style="fill:rgb(217,68,152);fill-rule:nonzero;"/>
        </g>
        <g transform="matrix(65.5733,0,0,65.5733,323.027,125.454)">
            <path d="M0.074,-0L0.074,-0.719L0.223,-0.719L0.223,-0.451L0.52,-0.451L0.52,-0.719L0.669,-0.719L0.669,-0L0.52,-0L0.52,-0.319L0.223,-0.319L0.223,-0L0.074,-0Z" style="fill:rgb(217,68,152);fill-rule:nonzero;"/>
        </g>
        <g transform="matrix(65.5733,0,0,65.5733,371.1,125.454)">
            <path d="M0.074,-0L0.074,-0.719L0.229,-0.719L0.521,-0.225L0.521,-0.719L0.667,-0.719L0.667,-0L0.514,-0L0.22,-0.494L0.22,-0L0.074,-0Z" style="fill:rgb(45,53,138);fill-rule:nonzero;"/>
        </g>
        <g transform="matrix(65.5733,0,0,65.5733,419.045,125.454)">
            <path d="M0.389,-0.161L0.531,-0.161C0.516,-0.105 0.488,-0.061 0.444,-0.03C0.401,0.002 0.348,0.018 0.285,0.018C0.208,0.018 0.147,-0.008 0.103,-0.059C0.058,-0.111 0.035,-0.181 0.035,-0.269C0.035,-0.356 0.057,-0.424 0.102,-0.475C0.146,-0.525 0.206,-0.55 0.283,-0.55C0.365,-0.55 0.427,-0.525 0.472,-0.476C0.516,-0.427 0.538,-0.356 0.538,-0.265C0.538,-0.255 0.538,-0.247 0.538,-0.242C0.538,-0.237 0.537,-0.233 0.537,-0.228L0.182,-0.228C0.184,-0.186 0.194,-0.155 0.213,-0.134C0.231,-0.113 0.257,-0.102 0.292,-0.102C0.316,-0.102 0.336,-0.107 0.352,-0.116C0.368,-0.126 0.38,-0.141 0.389,-0.161ZM0.182,-0.321L0.391,-0.321C0.39,-0.357 0.38,-0.384 0.363,-0.403C0.345,-0.422 0.319,-0.431 0.286,-0.431C0.255,-0.431 0.231,-0.422 0.213,-0.403C0.195,-0.384 0.185,-0.357 0.182,-0.321Z" style="fill:rgb(45,53,138);fill-rule:nonzero;"/>
        </g>
        <g transform="matrix(65.5733,0,0,65.5733,455.752,125.454)">
            <path d="M0.298,0.004C0.285,0.004 0.269,0.005 0.251,0.006C0.233,0.006 0.222,0.007 0.217,0.007C0.162,0.007 0.125,-0.003 0.105,-0.024C0.085,-0.044 0.075,-0.084 0.075,-0.144L0.075,-0.431L0.005,-0.431L0.005,-0.531L0.075,-0.531L0.075,-0.676L0.216,-0.676L0.216,-0.531L0.298,-0.531L0.298,-0.431L0.216,-0.431L0.216,-0.137C0.216,-0.123 0.219,-0.114 0.225,-0.11C0.231,-0.105 0.244,-0.103 0.263,-0.103L0.298,-0.103L0.298,0.004Z" style="fill:rgb(45,53,138);fill-rule:nonzero;"/>
        </g>
        <g transform="matrix(25,0,0,25,164.395,159.354)">
            <path d="M0.167,-0.613L0.167,-0L0.077,-0L0.077,-0.719L0.217,-0.719L0.395,-0.169C0.4,-0.153 0.404,-0.141 0.406,-0.133C0.409,-0.124 0.411,-0.116 0.412,-0.11C0.415,-0.122 0.417,-0.133 0.42,-0.142C0.423,-0.152 0.425,-0.16 0.428,-0.169L0.613,-0.719L0.753,-0.719L0.753,-0L0.658,-0L0.658,-0.613C0.656,-0.602 0.653,-0.592 0.65,-0.581C0.647,-0.571 0.644,-0.56 0.641,-0.55L0.456,-0L0.364,-0L0.183,-0.55C0.18,-0.559 0.177,-0.569 0.174,-0.579C0.172,-0.59 0.169,-0.601 0.167,-0.613Z" style="fill:rgb(45,53,138);fill-rule:nonzero;"/>
        </g>
        <g transform="matrix(25,0,0,25,185.273,159.354)">
            <path d="M0.39,-0.07C0.363,-0.041 0.334,-0.02 0.303,-0.005C0.272,0.009 0.24,0.016 0.205,0.016C0.152,0.016 0.11,0.002 0.08,-0.026C0.05,-0.053 0.035,-0.092 0.035,-0.141C0.035,-0.189 0.05,-0.226 0.079,-0.253C0.109,-0.28 0.154,-0.297 0.214,-0.305C0.229,-0.307 0.25,-0.309 0.276,-0.312C0.32,-0.317 0.348,-0.321 0.358,-0.325C0.368,-0.329 0.375,-0.334 0.378,-0.341C0.381,-0.347 0.383,-0.361 0.383,-0.382C0.383,-0.409 0.373,-0.429 0.354,-0.442C0.334,-0.455 0.305,-0.462 0.265,-0.462C0.224,-0.462 0.194,-0.454 0.173,-0.438C0.152,-0.421 0.142,-0.397 0.142,-0.365L0.059,-0.365L0.059,-0.369C0.059,-0.422 0.078,-0.464 0.115,-0.494C0.152,-0.525 0.203,-0.54 0.268,-0.54C0.338,-0.54 0.39,-0.527 0.423,-0.501C0.456,-0.475 0.472,-0.434 0.472,-0.378L0.472,-0.116C0.472,-0.094 0.475,-0.079 0.479,-0.073C0.484,-0.066 0.493,-0.063 0.506,-0.063C0.508,-0.063 0.512,-0.063 0.515,-0.064C0.519,-0.064 0.524,-0.065 0.529,-0.066L0.529,0.002C0.518,0.005 0.509,0.007 0.501,0.008C0.493,0.009 0.485,0.01 0.478,0.01C0.449,0.01 0.427,0.003 0.412,-0.009C0.397,-0.022 0.39,-0.041 0.39,-0.067L0.39,-0.07ZM0.382,-0.266C0.358,-0.253 0.318,-0.243 0.261,-0.236C0.241,-0.234 0.226,-0.232 0.216,-0.23C0.184,-0.225 0.161,-0.215 0.147,-0.202C0.133,-0.188 0.126,-0.168 0.126,-0.142C0.126,-0.116 0.134,-0.096 0.15,-0.082C0.167,-0.068 0.19,-0.061 0.22,-0.061C0.267,-0.061 0.306,-0.073 0.336,-0.097C0.367,-0.12 0.382,-0.151 0.382,-0.188L0.382,-0.266Z" style="fill:rgb(45,53,138);fill-rule:nonzero;"/>
        </g>
        <g transform="matrix(25,0,0,25,198.973,159.354)">
            <path d="M0.17,-0.132C0.17,-0.108 0.173,-0.093 0.18,-0.085C0.187,-0.077 0.199,-0.073 0.217,-0.073C0.222,-0.073 0.228,-0.073 0.236,-0.074C0.243,-0.074 0.252,-0.075 0.264,-0.076L0.264,-0.001C0.25,0.002 0.236,0.004 0.225,0.005C0.213,0.006 0.203,0.007 0.194,0.007C0.153,0.007 0.124,-0.001 0.107,-0.017C0.09,-0.033 0.082,-0.061 0.082,-0.102L0.082,-0.453L0.004,-0.453L0.004,-0.523L0.082,-0.523L0.082,-0.669L0.17,-0.669L0.17,-0.523L0.264,-0.523L0.264,-0.453L0.17,-0.453L0.17,-0.132Z" style="fill:rgb(45,53,138);fill-rule:nonzero;"/>
        </g>
        <g transform="matrix(25,0,0,25,206.117,159.354)">
            <path d="M0.134,-0.309L0.421,-0.309C0.421,-0.358 0.408,-0.396 0.384,-0.422C0.359,-0.449 0.325,-0.462 0.28,-0.462C0.236,-0.462 0.202,-0.449 0.177,-0.423C0.153,-0.397 0.138,-0.359 0.134,-0.309ZM0.419,-0.169L0.506,-0.169C0.496,-0.111 0.471,-0.066 0.431,-0.033C0.39,0 0.339,0.017 0.277,0.017C0.204,0.017 0.147,-0.007 0.105,-0.056C0.063,-0.105 0.042,-0.172 0.042,-0.256C0.042,-0.345 0.063,-0.415 0.104,-0.465C0.146,-0.515 0.204,-0.54 0.277,-0.54C0.352,-0.54 0.41,-0.517 0.451,-0.471C0.493,-0.424 0.513,-0.359 0.513,-0.275C0.513,-0.264 0.513,-0.256 0.513,-0.251C0.513,-0.246 0.512,-0.241 0.512,-0.236L0.134,-0.236C0.135,-0.181 0.149,-0.138 0.175,-0.108C0.202,-0.078 0.238,-0.063 0.285,-0.063C0.321,-0.063 0.351,-0.072 0.374,-0.091C0.397,-0.109 0.412,-0.135 0.419,-0.169Z" style="fill:rgb(45,53,138);fill-rule:nonzero;"/>
        </g>
        <g transform="matrix(25,0,0,25,219.914,159.354)">
            <path d="M0.067,-0L0.067,-0.523L0.152,-0.523L0.152,-0.429C0.166,-0.464 0.185,-0.491 0.209,-0.508C0.233,-0.525 0.262,-0.534 0.297,-0.534C0.303,-0.534 0.308,-0.534 0.311,-0.534C0.314,-0.534 0.317,-0.533 0.32,-0.533L0.32,-0.44C0.318,-0.44 0.315,-0.441 0.312,-0.441C0.309,-0.441 0.305,-0.441 0.299,-0.441C0.252,-0.441 0.216,-0.428 0.192,-0.403C0.167,-0.377 0.155,-0.34 0.155,-0.291L0.155,-0L0.067,-0Z" style="fill:rgb(45,53,138);fill-rule:nonzero;"/>
        </g>
        <g transform="matrix(25,0,0,25,228.341,159.354)">
            <path d="M0.415,-0L0.415,-0.322C0.415,-0.373 0.407,-0.409 0.391,-0.428C0.376,-0.448 0.348,-0.458 0.31,-0.458C0.261,-0.458 0.223,-0.444 0.196,-0.416C0.168,-0.388 0.155,-0.349 0.155,-0.298L0.155,-0L0.067,-0L0.067,-0.523L0.151,-0.523L0.151,-0.447C0.171,-0.477 0.195,-0.5 0.223,-0.514C0.25,-0.529 0.282,-0.536 0.319,-0.536C0.358,-0.536 0.391,-0.53 0.418,-0.518C0.445,-0.506 0.466,-0.489 0.481,-0.465C0.489,-0.452 0.495,-0.437 0.499,-0.42C0.502,-0.403 0.504,-0.376 0.504,-0.339L0.504,-0L0.415,-0Z" style="fill:rgb(45,53,138);fill-rule:nonzero;"/>
        </g>
        <g transform="matrix(25,0,0,25,242.687,159.354)">
            <path d="M0.39,-0.07C0.363,-0.041 0.334,-0.02 0.303,-0.005C0.272,0.009 0.24,0.016 0.205,0.016C0.152,0.016 0.11,0.002 0.08,-0.026C0.05,-0.053 0.035,-0.092 0.035,-0.141C0.035,-0.189 0.05,-0.226 0.079,-0.253C0.109,-0.28 0.154,-0.297 0.214,-0.305C0.229,-0.307 0.25,-0.309 0.276,-0.312C0.32,-0.317 0.348,-0.321 0.358,-0.325C0.368,-0.329 0.375,-0.334 0.378,-0.341C0.381,-0.347 0.383,-0.361 0.383,-0.382C0.383,-0.409 0.373,-0.429 0.354,-0.442C0.334,-0.455 0.305,-0.462 0.265,-0.462C0.224,-0.462 0.194,-0.454 0.173,-0.438C0.152,-0.421 0.142,-0.397 0.142,-0.365L0.059,-0.365L0.059,-0.369C0.059,-0.422 0.078,-0.464 0.115,-0.494C0.152,-0.525 0.203,-0.54 0.268,-0.54C0.338,-0.54 0.39,-0.527 0.423,-0.501C0.456,-0.475 0.472,-0.434 0.472,-0.378L0.472,-0.116C0.472,-0.094 0.475,-0.079 0.479,-0.073C0.484,-0.066 0.493,-0.063 0.506,-0.063C0.508,-0.063 0.512,-0.063 0.515,-0.064C0.519,-0.064 0.524,-0.065 0.529,-0.066L0.529,0.002C0.518,0.005 0.509,0.007 0.501,0.008C0.493,0.009 0.485,0.01 0.478,0.01C0.449,0.01 0.427,0.003 0.412,-0.009C0.397,-0.022 0.39,-0.041 0.39,-0.067L0.39,-0.07ZM0.382,-0.266C0.358,-0.253 0.318,-0.243 0.261,-0.236C0.241,-0.234 0.226,-0.232 0.216,-0.23C0.184,-0.225 0.161,-0.215 0.147,-0.202C0.133,-0.188 0.126,-0.168 0.126,-0.142C0.126,-0.116 0.134,-0.096 0.15,-0.082C0.167,-0.068 0.19,-0.061 0.22,-0.061C0.267,-0.061 0.306,-0.073 0.336,-0.097C0.367,-0.12 0.382,-0.151 0.382,-0.188L0.382,-0.266Z" style="fill:rgb(45,53,138);fill-rule:nonzero;"/>
        </g>
        <g transform="matrix(25,0,0,25,256.387,159.354)">
            <rect x="0.068" y="-0.719" width="0.089" height="0.719" style="fill:rgb(45,53,138);fill-rule:nonzero;"/>
        </g>
        <g transform="matrix(25,0,0,25,269.266,159.354)">
            <path d="M0.39,-0.07C0.363,-0.041 0.334,-0.02 0.303,-0.005C0.272,0.009 0.24,0.016 0.205,0.016C0.152,0.016 0.11,0.002 0.08,-0.026C0.05,-0.053 0.035,-0.092 0.035,-0.141C0.035,-0.189 0.05,-0.226 0.079,-0.253C0.109,-0.28 0.154,-0.297 0.214,-0.305C0.229,-0.307 0.25,-0.309 0.276,-0.312C0.32,-0.317 0.348,-0.321 0.358,-0.325C0.368,-0.329 0.375,-0.334 0.378,-0.341C0.381,-0.347 0.383,-0.361 0.383,-0.382C0.383,-0.409 0.373,-0.429 0.354,-0.442C0.334,-0.455 0.305,-0.462 0.265,-0.462C0.224,-0.462 0.194,-0.454 0.173,-0.438C0.152,-0.421 0.142,-0.397 0.142,-0.365L0.059,-0.365L0.059,-0.369C0.059,-0.422 0.078,-0.464 0.115,-0.494C0.152,-0.525 0.203,-0.54 0.268,-0.54C0.338,-0.54 0.39,-0.527 0.423,-0.501C0.456,-0.475 0.472,-0.434 0.472,-0.378L0.472,-0.116C0.472,-0.094 0.475,-0.079 0.479,-0.073C0.484,-0.066 0.493,-0.063 0.506,-0.063C0.508,-0.063 0.512,-0.063 0.515,-0.064C0.519,-0.064 0.524,-0.065 0.529,-0.066L0.529,0.002C0.518,0.005 0.509,0.007 0.501,0.008C0.493,0.009 0.485,0.01 0.478,0.01C0.449,0.01 0.427,0.003 0.412,-0.009C0.397,-0.022 0.39,-0.041 0.39,-0.067L0.39,-0.07ZM0.382,-0.266C0.358,-0.253 0.318,-0.243 0.261,-0.236C0.241,-0.234 0.226,-0.232 0.216,-0.23C0.184,-0.225 0.161,-0.215 0.147,-0.202C0.133,-0.188 0.126,-0.168 0.126,-0.142C0.126,-0.116 0.134,-0.096 0.15,-0.082C0.167,-0.068 0.19,-0.061 0.22,-0.061C0.267,-0.061 0.306,-0.073 0.336,-0.097C0.367,-0.12 0.382,-0.151 0.382,-0.188L0.382,-0.266Z" style="fill:rgb(45,53,138);fill-rule:nonzero;"/>
        </g>
        <g transform="matrix(25,0,0,25,282.966,159.354)">
            <path d="M0.415,-0L0.415,-0.322C0.415,-0.373 0.407,-0.409 0.391,-0.428C0.376,-0.448 0.348,-0.458 0.31,-0.458C0.261,-0.458 0.223,-0.444 0.196,-0.416C0.168,-0.388 0.155,-0.349 0.155,-0.298L0.155,-0L0.067,-0L0.067,-0.523L0.151,-0.523L0.151,-0.447C0.171,-0.477 0.195,-0.5 0.223,-0.514C0.25,-0.529 0.282,-0.536 0.319,-0.536C0.358,-0.536 0.391,-0.53 0.418,-0.518C0.445,-0.506 0.466,-0.489 0.481,-0.465C0.489,-0.452 0.495,-0.437 0.499,-0.42C0.502,-0.403 0.504,-0.376 0.504,-0.339L0.504,-0L0.415,-0Z" style="fill:rgb(45,53,138);fill-rule:nonzero;"/>
        </g>
        <g transform="matrix(25,0,0,25,297.313,159.354)">
            <path d="M0.442,-0.265C0.442,-0.33 0.429,-0.379 0.403,-0.412C0.376,-0.444 0.338,-0.461 0.286,-0.461C0.237,-0.461 0.198,-0.443 0.171,-0.407C0.144,-0.371 0.131,-0.32 0.131,-0.254C0.131,-0.194 0.145,-0.147 0.173,-0.113C0.2,-0.079 0.239,-0.062 0.287,-0.062C0.336,-0.062 0.374,-0.08 0.401,-0.115C0.428,-0.15 0.442,-0.2 0.442,-0.265ZM0.524,-0.719L0.524,-0L0.439,-0L0.439,-0.066C0.417,-0.039 0.391,-0.018 0.363,-0.004C0.334,0.009 0.303,0.016 0.269,0.016C0.199,0.016 0.144,-0.009 0.102,-0.059C0.061,-0.109 0.04,-0.176 0.04,-0.26C0.04,-0.345 0.061,-0.413 0.103,-0.464C0.144,-0.515 0.2,-0.54 0.269,-0.54C0.306,-0.54 0.338,-0.533 0.366,-0.52C0.394,-0.506 0.418,-0.486 0.439,-0.459L0.439,-0.719L0.524,-0.719Z" style="fill:rgb(45,53,138);fill-rule:nonzero;"/>
        </g>
        <g transform="matrix(25,0,0,25,319.396,159.354)">
            <path d="M0.58,-0.267L0.675,-0.267C0.671,-0.18 0.641,-0.11 0.585,-0.058C0.53,-0.006 0.458,0.02 0.37,0.02C0.269,0.02 0.19,-0.014 0.132,-0.083C0.075,-0.153 0.046,-0.248 0.046,-0.37C0.046,-0.483 0.076,-0.572 0.136,-0.638C0.196,-0.705 0.278,-0.738 0.38,-0.738C0.461,-0.738 0.528,-0.717 0.58,-0.675C0.632,-0.633 0.662,-0.576 0.67,-0.503L0.574,-0.503C0.565,-0.55 0.543,-0.587 0.509,-0.613C0.475,-0.638 0.431,-0.651 0.376,-0.651C0.303,-0.651 0.247,-0.625 0.206,-0.574C0.166,-0.523 0.146,-0.451 0.146,-0.358C0.146,-0.27 0.167,-0.2 0.209,-0.146C0.251,-0.093 0.306,-0.067 0.375,-0.067C0.434,-0.067 0.482,-0.085 0.52,-0.122C0.557,-0.158 0.577,-0.207 0.58,-0.267Z" style="fill:rgb(45,53,138);fill-rule:nonzero;"/>
        </g>
        <g transform="matrix(25,0,0,25,337.344,159.354)">
            <path d="M0.415,-0L0.415,-0.322C0.415,-0.374 0.407,-0.409 0.391,-0.429C0.376,-0.448 0.348,-0.458 0.31,-0.458C0.263,-0.458 0.225,-0.445 0.197,-0.418C0.169,-0.391 0.155,-0.355 0.155,-0.309L0.155,-0L0.067,-0L0.067,-0.719L0.155,-0.719L0.155,-0.449C0.171,-0.478 0.193,-0.499 0.221,-0.514C0.249,-0.529 0.281,-0.536 0.319,-0.536C0.358,-0.536 0.391,-0.53 0.418,-0.518C0.445,-0.506 0.466,-0.489 0.481,-0.465C0.489,-0.452 0.495,-0.437 0.499,-0.42C0.502,-0.403 0.504,-0.376 0.504,-0.339L0.504,-0L0.415,-0Z" style="fill:rgb(45,53,138);fill-rule:nonzero;"/>
        </g>
        <g transform="matrix(25,0,0,25,351.691,159.354)">
            <path d="M0.067,-0.619L0.067,-0.719L0.155,-0.719L0.155,-0.619L0.067,-0.619ZM0.067,-0L0.067,-0.523L0.155,-0.523L0.155,-0L0.067,-0Z" style="fill:rgb(45,53,138);fill-rule:nonzero;"/>
        </g>
        <g transform="matrix(25,0,0,25,357.37,159.354)">
            <rect x="0.068" y="-0.719" width="0.089" height="0.719" style="fill:rgb(45,53,138);fill-rule:nonzero;"/>
        </g>
        <g transform="matrix(25,0,0,25,363.148,159.354)">
            <path d="M0.442,-0.265C0.442,-0.33 0.429,-0.379 0.403,-0.412C0.376,-0.444 0.338,-0.461 0.286,-0.461C0.237,-0.461 0.198,-0.443 0.171,-0.407C0.144,-0.371 0.131,-0.32 0.131,-0.254C0.131,-0.194 0.145,-0.147 0.173,-0.113C0.2,-0.079 0.239,-0.062 0.287,-0.062C0.336,-0.062 0.374,-0.08 0.401,-0.115C0.428,-0.15 0.442,-0.2 0.442,-0.265ZM0.524,-0.719L0.524,-0L0.439,-0L0.439,-0.066C0.417,-0.039 0.391,-0.018 0.363,-0.004C0.334,0.009 0.303,0.016 0.269,0.016C0.199,0.016 0.144,-0.009 0.102,-0.059C0.061,-0.109 0.04,-0.176 0.04,-0.26C0.04,-0.345 0.061,-0.413 0.103,-0.464C0.144,-0.515 0.2,-0.54 0.269,-0.54C0.306,-0.54 0.338,-0.533 0.366,-0.52C0.394,-0.506 0.418,-0.486 0.439,-0.459L0.439,-0.719L0.524,-0.719Z" style="fill:rgb(45,53,138);fill-rule:nonzero;"/>
        </g>
        <g transform="matrix(25,0,0,25,385.231,159.354)">
            <path d="M0.077,-0L0.077,-0.719L0.175,-0.719L0.175,-0.424L0.548,-0.424L0.548,-0.719L0.646,-0.719L0.646,-0L0.548,-0L0.548,-0.337L0.175,-0.337L0.175,-0L0.077,-0Z" style="fill:rgb(45,53,138);fill-rule:nonzero;"/>
        </g>
        <g transform="matrix(25,0,0,25,403.435,159.354)">
            <path d="M0.134,-0.309L0.421,-0.309C0.421,-0.358 0.408,-0.396 0.384,-0.422C0.359,-0.449 0.325,-0.462 0.28,-0.462C0.236,-0.462 0.202,-0.449 0.177,-0.423C0.153,-0.397 0.138,-0.359 0.134,-0.309ZM0.419,-0.169L0.506,-0.169C0.496,-0.111 0.471,-0.066 0.431,-0.033C0.39,0 0.339,0.017 0.277,0.017C0.204,0.017 0.147,-0.007 0.105,-0.056C0.063,-0.105 0.042,-0.172 0.042,-0.256C0.042,-0.345 0.063,-0.415 0.104,-0.465C0.146,-0.515 0.204,-0.54 0.277,-0.54C0.352,-0.54 0.41,-0.517 0.451,-0.471C0.493,-0.424 0.513,-0.359 0.513,-0.275C0.513,-0.264 0.513,-0.256 0.513,-0.251C0.513,-0.246 0.512,-0.241 0.512,-0.236L0.134,-0.236C0.135,-0.181 0.149,-0.138 0.175,-0.108C0.202,-0.078 0.238,-0.063 0.285,-0.063C0.321,-0.063 0.351,-0.072 0.374,-0.091C0.397,-0.109 0.412,-0.135 0.419,-0.169Z" style="fill:rgb(45,53,138);fill-rule:nonzero;"/>
        </g>
        <g transform="matrix(25,0,0,25,417.233,159.354)">
            <path d="M0.39,-0.07C0.363,-0.041 0.334,-0.02 0.303,-0.005C0.272,0.009 0.24,0.016 0.205,0.016C0.152,0.016 0.11,0.002 0.08,-0.026C0.05,-0.053 0.035,-0.092 0.035,-0.141C0.035,-0.189 0.05,-0.226 0.079,-0.253C0.109,-0.28 0.154,-0.297 0.214,-0.305C0.229,-0.307 0.25,-0.309 0.276,-0.312C0.32,-0.317 0.348,-0.321 0.358,-0.325C0.368,-0.329 0.375,-0.334 0.378,-0.341C0.381,-0.347 0.383,-0.361 0.383,-0.382C0.383,-0.409 0.373,-0.429 0.354,-0.442C0.334,-0.455 0.305,-0.462 0.265,-0.462C0.224,-0.462 0.194,-0.454 0.173,-0.438C0.152,-0.421 0.142,-0.397 0.142,-0.365L0.059,-0.365L0.059,-0.369C0.059,-0.422 0.078,-0.464 0.115,-0.494C0.152,-0.525 0.203,-0.54 0.268,-0.54C0.338,-0.54 0.39,-0.527 0.423,-0.501C0.456,-0.475 0.472,-0.434 0.472,-0.378L0.472,-0.116C0.472,-0.094 0.475,-0.079 0.479,-0.073C0.484,-0.066 0.493,-0.063 0.506,-0.063C0.508,-0.063 0.512,-0.063 0.515,-0.064C0.519,-0.064 0.524,-0.065 0.529,-0.066L0.529,0.002C0.518,0.005 0.509,0.007 0.501,0.008C0.493,0.009 0.485,0.01 0.478,0.01C0.449,0.01 0.427,0.003 0.412,-0.009C0.397,-0.022 0.39,-0.041 0.39,-0.067L0.39,-0.07ZM0.382,-0.266C0.358,-0.253 0.318,-0.243 0.261,-0.236C0.241,-0.234 0.226,-0.232 0.216,-0.23C0.184,-0.225 0.161,-0.215 0.147,-0.202C0.133,-0.188 0.126,-0.168 0.126,-0.142C0.126,-0.116 0.134,-0.096 0.15,-0.082C0.167,-0.068 0.19,-0.061 0.22,-0.061C0.267,-0.061 0.306,-0.073 0.336,-0.097C0.367,-0.12 0.382,-0.151 0.382,-0.188L0.382,-0.266Z" style="fill:rgb(45,53,138);fill-rule:nonzero;"/>
        </g>
        <g transform="matrix(25,0,0,25,430.932,159.354)">
            <rect x="0.068" y="-0.719" width="0.089" height="0.719" style="fill:rgb(45,53,138);fill-rule:nonzero;"/>
        </g>
        <g transform="matrix(25,0,0,25,436.71,159.354)">
            <path d="M0.17,-0.132C0.17,-0.108 0.173,-0.093 0.18,-0.085C0.187,-0.077 0.199,-0.073 0.217,-0.073C0.222,-0.073 0.228,-0.073 0.236,-0.074C0.243,-0.074 0.252,-0.075 0.264,-0.076L0.264,-0.001C0.25,0.002 0.236,0.004 0.225,0.005C0.213,0.006 0.203,0.007 0.194,0.007C0.153,0.007 0.124,-0.001 0.107,-0.017C0.09,-0.033 0.082,-0.061 0.082,-0.102L0.082,-0.453L0.004,-0.453L0.004,-0.523L0.082,-0.523L0.082,-0.669L0.17,-0.669L0.17,-0.523L0.264,-0.523L0.264,-0.453L0.17,-0.453L0.17,-0.132Z" style="fill:rgb(45,53,138);fill-rule:nonzero;"/>
        </g>
        <g transform="matrix(25,0,0,25,443.854,159.354)">
            <path d="M0.415,-0L0.415,-0.322C0.415,-0.374 0.407,-0.409 0.391,-0.429C0.376,-0.448 0.348,-0.458 0.31,-0.458C0.263,-0.458 0.225,-0.445 0.197,-0.418C0.169,-0.391 0.155,-0.355 0.155,-0.309L0.155,-0L0.067,-0L0.067,-0.719L0.155,-0.719L0.155,-0.449C0.171,-0.478 0.193,-0.499 0.221,-0.514C0.249,-0.529 0.281,-0.536 0.319,-0.536C0.358,-0.536 0.391,-0.53 0.418,-0.518C0.445,-0.506 0.466,-0.489 0.481,-0.465C0.489,-0.452 0.495,-0.437 0.499,-0.42C0.502,-0.403 0.504,-0.376 0.504,-0.339L0.504,-0L0.415,-0Z" style="fill:rgb(45,53,138);fill-rule:nonzero;"/>
        </g>
        <g transform="matrix(25,0,0,25,464.796,159.354)">
            <path d="M0.076,-0L0.076,-0.719L0.183,-0.719L0.519,-0.197C0.527,-0.185 0.533,-0.175 0.539,-0.165C0.544,-0.154 0.549,-0.145 0.552,-0.136L0.552,-0.719L0.645,-0.719L0.645,-0L0.539,-0L0.196,-0.53C0.191,-0.538 0.186,-0.546 0.181,-0.555C0.177,-0.564 0.173,-0.573 0.169,-0.583L0.169,-0L0.076,-0Z" style="fill:rgb(45,53,138);fill-rule:nonzero;"/>
        </g>
        <g transform="matrix(25,0,0,25,482.951,159.354)">
            <path d="M0.134,-0.309L0.421,-0.309C0.421,-0.358 0.408,-0.396 0.384,-0.422C0.359,-0.449 0.325,-0.462 0.28,-0.462C0.236,-0.462 0.202,-0.449 0.177,-0.423C0.153,-0.397 0.138,-0.359 0.134,-0.309ZM0.419,-0.169L0.506,-0.169C0.496,-0.111 0.471,-0.066 0.431,-0.033C0.39,0 0.339,0.017 0.277,0.017C0.204,0.017 0.147,-0.007 0.105,-0.056C0.063,-0.105 0.042,-0.172 0.042,-0.256C0.042,-0.345 0.063,-0.415 0.104,-0.465C0.146,-0.515 0.204,-0.54 0.277,-0.54C0.352,-0.54 0.41,-0.517 0.451,-0.471C0.493,-0.424 0.513,-0.359 0.513,-0.275C0.513,-0.264 0.513,-0.256 0.513,-0.251C0.513,-0.246 0.512,-0.241 0.512,-0.236L0.134,-0.236C0.135,-0.181 0.149,-0.138 0.175,-0.108C0.202,-0.078 0.238,-0.063 0.285,-0.063C0.321,-0.063 0.351,-0.072 0.374,-0.091C0.397,-0.109 0.412,-0.135 0.419,-0.169Z" style="fill:rgb(45,53,138);fill-rule:nonzero;"/>
        </g>
        <g transform="matrix(25,0,0,25,496.748,159.354)">
            <path d="M0.17,-0.132C0.17,-0.108 0.173,-0.093 0.18,-0.085C0.187,-0.077 0.199,-0.073 0.217,-0.073C0.222,-0.073 0.228,-0.073 0.236,-0.074C0.243,-0.074 0.252,-0.075 0.264,-0.076L0.264,-0.001C0.25,0.002 0.236,0.004 0.225,0.005C0.213,0.006 0.203,0.007 0.194,0.007C0.153,0.007 0.124,-0.001 0.107,-0.017C0.09,-0.033 0.082,-0.061 0.082,-0.102L0.082,-0.453L0.004,-0.453L0.004,-0.523L0.082,-0.523L0.082,-0.669L0.17,-0.669L0.17,-0.523L0.264,-0.523L0.264,-0.453L0.17,-0.453L0.17,-0.132Z" style="fill:rgb(45,53,138);fill-rule:nonzero;"/>
        </g>
        <g transform="matrix(25,0,0,25,503.893,159.354)">
            <path d="M0.163,-0L0.007,-0.523L0.098,-0.523L0.209,-0.123L0.312,-0.523L0.414,-0.523L0.516,-0.123L0.631,-0.523L0.721,-0.523L0.562,-0L0.473,-0L0.363,-0.403L0.252,-0L0.163,-0Z" style="fill:rgb(45,53,138);fill-rule:nonzero;"/>
        </g>
        <g transform="matrix(25,0,0,25,522.219,159.354)">
            <path d="M0.13,-0.262C0.13,-0.197 0.144,-0.148 0.172,-0.114C0.199,-0.079 0.239,-0.062 0.291,-0.062C0.342,-0.062 0.382,-0.079 0.409,-0.114C0.437,-0.148 0.45,-0.197 0.45,-0.262C0.45,-0.327 0.437,-0.376 0.409,-0.41C0.382,-0.445 0.342,-0.462 0.291,-0.462C0.239,-0.462 0.199,-0.445 0.171,-0.411C0.144,-0.376 0.13,-0.327 0.13,-0.262ZM0.04,-0.262C0.04,-0.35 0.062,-0.418 0.106,-0.467C0.149,-0.516 0.211,-0.54 0.29,-0.54C0.369,-0.54 0.431,-0.516 0.475,-0.467C0.519,-0.418 0.541,-0.35 0.541,-0.262C0.541,-0.174 0.519,-0.106 0.475,-0.057C0.432,-0.008 0.37,0.016 0.291,0.016C0.212,0.016 0.15,-0.008 0.106,-0.057C0.062,-0.106 0.04,-0.174 0.04,-0.262Z" style="fill:rgb(45,53,138);fill-rule:nonzero;"/>
        </g>
        <g transform="matrix(25,0,0,25,536.871,159.354)">
            <path d="M0.067,-0L0.067,-0.523L0.152,-0.523L0.152,-0.429C0.166,-0.464 0.185,-0.491 0.209,-0.508C0.233,-0.525 0.262,-0.534 0.297,-0.534C0.303,-0.534 0.308,-0.534 0.311,-0.534C0.314,-0.534 0.317,-0.533 0.32,-0.533L0.32,-0.44C0.318,-0.44 0.315,-0.441 0.312,-0.441C0.309,-0.441 0.305,-0.441 0.299,-0.441C0.252,-0.441 0.216,-0.428 0.192,-0.403C0.167,-0.377 0.155,-0.34 0.155,-0.291L0.155,-0L0.067,-0Z" style="fill:rgb(45,53,138);fill-rule:nonzero;"/>
        </g>
        <g transform="matrix(25,0,0,25,545.297,159.354)">
            <path d="M0.067,-0L0.067,-0.719L0.155,-0.719L0.155,-0.288L0.391,-0.523L0.502,-0.523L0.306,-0.332L0.499,-0L0.4,-0L0.247,-0.271L0.155,-0.182L0.155,-0L0.067,-0Z" style="fill:rgb(45,53,138);fill-rule:nonzero;"/>
        </g>
    </g>
    <g transform="matrix(4.16667,0,0,4.16667,481.595,289.263)">
        <path d="M0,38.284C-0.979,34.117 -2.36,30.039 -4.133,26.148C-8.26,17.095 -14.504,9.043 -22.724,3.173C-32.667,-3.926 -42.78,-15.005 -37.602,-28.14C-34.734,-35.41 -34.545,-43.893 -36.601,-51.208C-39.108,-60.138 -46.072,-69.423 -56.202,-69.423C-67.77,-69.423 -77.147,-56.819 -77.147,-41.269C-77.147,-33.015 -74.385,-24.081 -68.269,-18.269C-66.418,-16.509 -62.839,-14.497 -62.599,-11.7C-62.327,-8.538 -65.058,-7.709 -67.559,-6.995C-69.99,-6.3 -99.315,1.977 -111.137,30.564C-115.333,40.714 -116.869,54.437 -114.395,65.208C-113.03,71.145 -110.626,77.08 -106.389,79.777C-98.744,84.643 -91.186,76.734 -86.849,70.643C-79.894,60.877 -76.412,48.67 -64.909,43.09C-57.524,39.507 -50.161,40.21 -42.359,41.895C-39.803,42.448 -34.297,43.654 -33.459,40.078C-32.646,36.597 -36.254,33.309 -39.427,31.405C-44.27,28.499 -49.97,27.393 -55.584,27.482C-68.959,27.695 -81.529,33.188 -90.58,42.938C-91.485,43.914 -94.208,46.29 -95.609,45.305C-96.821,44.452 -96.625,42.235 -96.362,41.017C-92.978,25.31 -77.032,14.947 -61.791,13.406C-44.221,11.629 -27.026,18.213 -18.642,34.421C-9.227,52.618 -15.12,76.857 -31.509,88.951C-40.655,95.701 -51.27,97.93 -62.165,100.261C-64.067,100.667 -66.577,100.714 -67.735,102.669C-69.047,104.886 -67.329,106.339 -65.186,106.72C-59.606,107.707 -53.612,107.499 -48.022,106.753C-36.46,105.208 -25.239,100.553 -16.219,93.116C-10.347,88.277 -5.374,82.148 -2.391,75.136C2.506,63.627 2.831,50.338 0,38.284" style="fill:rgb(45,53,138);fill-rule:nonzero;"/>
    </g>
</svg>
