<?xml version="1.0" standalone="no"?>
<!DOCTYPE svg PUBLIC "-//W3C//DTD SVG 20010904//EN"
 "http://www.w3.org/TR/2001/REC-SVG-20010904/DTD/svg10.dtd">
<svg version="1.0" xmlns="http://www.w3.org/2000/svg"
 width="190.921626pt" height="251.725093pt" viewBox="0 0 190.921626 251.725093"
 preserveAspectRatio="xMidYMid meet">
<metadata>
Created by Potrace Professional 1.1m
</metadata>
<g transform="translate(-105.500000,331.585991) rotate(-360.00) scale(0.095238,-0.095238)"
fill="#000000" stroke="none">
<path d="M1986 3475 c-250 -25 -508 -184 -647 -398 -60 -92 -175 -324 -206
-415 -22 -66 -25 -92 -25 -242 0 -147 3 -178 24 -246 113 -358 392 -590 763
-635 29 -4 147 -2 263 4 226 10 296 24 434 86 74 33 180 101 180 116 0 5 5 9
12 9 25 0 209 208 209 236 0 4 8 20 19 35 11 15 21 31 21 36 1 4 8 21 17 38
43 84 62 192 62 353 1 175 -18 266 -80 388 -18 35 -37 74 -44 87 -6 13 -15 23
-19 23 -5 0 -13 13 -19 27 -6 17 -15 24 -22 20 -8 -5 -9 -3 -4 5 7 12 -2 23
-172 203 -93 98 -189 163 -308 211 -144 58 -287 77 -458 59z m318 -73 c80 -20
210 -72 202 -81 -3 -2 -44 6 -92 19 -153 39 -386 23 -532 -38 -21 -9 -74 -25
-119 -37 -97 -25 -195 -67 -269 -118 -31 -21 -55 -34 -55 -29 0 12 101 105
162 149 93 67 221 123 332 145 91 17 284 13 371 -10z m74 -98 c41 -8 84 -19
97 -26 13 -7 27 -12 31 -11 12 4 137 -61 193 -100 25 -18 51 -31 57 -29 6 2 8
0 4 -4 -4 -4 11 -31 33 -60 54 -71 99 -166 132 -278 39 -128 41 -314 7 -442
-24 -87 -88 -225 -128 -275 -19 -24 -19 -20 5 56 57 181 69 335 36 466 -86
336 -366 610 -687 671 -126 23 -136 28 -74 36 89 11 217 10 294 -4z m-338 -71
c35 -1 30 -4 -27 -11 -208 -27 -398 -159 -496 -347 -22 -42 -52 -92 -66 -111
-15 -19 -42 -74 -61 -121 -27 -66 -35 -79 -35 -55 0 76 91 300 149 367 10 11
29 35 41 53 13 17 47 53 77 79 30 26 52 52 49 57 -2 5 0 6 6 3 6 -4 19 2 30
12 38 34 124 68 193 75 38 4 75 6 83 4 7 -2 33 -5 57 -5z m139 -62 c75 -11
165 -41 217 -71 44 -26 36 -35 -15 -17 -25 9 -87 19 -139 22 -82 5 -109 2
-200 -23 -57 -16 -148 -39 -200 -53 -52 -13 -121 -37 -152 -54 -82 -43 -83
-43 -31 12 114 118 235 172 436 193 6 1 43 -4 84 -9z m-631 -100 c-69 -73
-156 -200 -151 -221 1 -4 -4 -10 -10 -14 -6 -4 -13 -16 -14 -28 -2 -11 -9 -30
-15 -41 -7 -12 -22 -63 -34 -114 -26 -111 -29 -252 -6 -359 20 -96 19 -113 -6
-67 -45 86 -67 206 -67 356 1 126 4 152 30 230 28 84 34 93 120 179 75 74 217
177 229 165 2 -2 -33 -41 -76 -86z m887 -45 c124 -52 152 -77 200 -174 77
-157 92 -315 44 -468 -19 -60 -93 -196 -102 -187 -1 1 4 29 13 61 35 131 15
315 -49 441 -86 169 -233 282 -441 336 -73 19 -27 29 126 26 121 -2 137 -4
209 -35z m-304 -51 c152 -42 298 -162 366 -300 50 -103 72 -231 57 -335 -13
-89 -52 -194 -91 -245 -31 -41 -126 -91 -218 -116 -200 -52 -482 31 -563 167
-56 94 -79 177 -81 304 -2 96 2 125 21 180 49 133 119 236 218 316 67 55 162
65 291 29z m-349 -29 c-10 -7 -18 -18 -18 -23 -1 -5 -15 -21 -33 -35 -49 -41
-126 -166 -140 -229 -10 -46 -15 -68 -27 -118 -13 -53 -9 -121 16 -252 7 -35
6 -36 -9 -16 -48 58 -86 231 -77 346 9 119 39 184 110 239 67 52 156 103 181
103 13 -1 12 -3 -3 -15z m1245 -205 c48 -144 61 -309 35 -442 -44 -234 -177
-438 -358 -556 -35 -23 -69 -46 -76 -52 -8 -7 -13 -9 -13 -5 0 4 -6 2 -14 -4
-24 -20 -183 -73 -240 -80 l-56 -7 61 32 c101 52 196 125 367 284 110 102 195
240 247 404 24 75 27 102 27 247 1 149 -4 191 -32 271 -6 16 -5 16 10 2 9 -9
28 -51 42 -94z m-233 -243 c31 -288 -83 -492 -342 -608 -53 -24 -194 -58 -194
-47 0 2 22 16 49 32 44 26 142 113 269 240 63 63 118 155 150 251 25 72 30
104 30 198 0 105 1 110 14 74 7 -22 18 -84 24 -140z m-1577 -170 c25 -90 76
-201 128 -277 53 -77 179 -205 196 -198 8 3 11 1 8 -5 -6 -9 26 -44 90 -100
40 -34 175 -120 190 -121 20 0 69 -30 51 -31 -41 0 -196 45 -255 75 -296 148
-469 425 -470 751 0 53 6 122 13 153 l13 55 6 -110 c4 -61 17 -147 30 -192z
m254 45 c30 -89 56 -140 105 -204 44 -58 187 -191 201 -187 4 1 7 -3 5 -10 -3
-14 61 -61 142 -103 33 -18 61 -34 61 -37 0 -9 -105 6 -168 23 -174 48 -322
186 -386 361 -25 68 -29 94 -29 194 0 71 6 135 15 168 l16 52 8 -94 c4 -52 18
-125 30 -163z m65 -408 c61 -62 161 -125 249 -155 63 -22 216 -26 416 -12 127
8 187 22 276 63 77 36 115 60 173 113 l41 37 -24 -45 c-55 -100 -170 -176
-341 -225 -111 -31 -330 -34 -438 -5 -160 42 -340 151 -399 241 -44 67 -62
111 -29 71 12 -15 46 -52 76 -83z m422 -38 c81 -20 215 -20 289 -1 31 9 58 14
60 12 7 -6 -89 -56 -143 -74 -35 -12 -65 -15 -92 -10 -42 8 -192 72 -192 83 0
8 7 7 78 -10z m-57 -253 c78 -22 310 -21 392 1 34 9 64 14 66 12 8 -8 -155
-67 -217 -80 -43 -8 -72 -8 -116 1 -31 6 -67 12 -80 13 -12 1 -21 4 -18 8 2 4
-20 16 -49 26 -29 11 -59 26 -66 35 -10 12 -9 14 9 7 11 -4 47 -15 79 -23z"/>
<path d="M1360 1184 c-34 -48 -15 -101 62 -176 78 -76 60 -135 -37 -119 -41 6
-43 5 -39 -19 3 -23 9 -25 68 -28 59 -3 66 -1 86 25 15 19 23 43 23 75 0 42
-5 51 -63 108 -83 81 -83 110 -1 110 44 0 58 30 19 41 -53 14 -101 7 -118 -17z"/>
<path d="M1614 1194 c-29 -22 -39 -67 -39 -171 0 -156 22 -189 122 -181 33 3
41 8 44 27 3 21 -1 24 -42 24 -26 0 -52 5 -59 12 -13 13 -18 202 -6 233 4 12
20 17 52 17 39 0 47 3 47 20 0 31 -85 45 -119 19z"/>
<path d="M1834 1196 c-33 -19 -49 -76 -49 -172 0 -90 18 -158 45 -176 25 -15
98 -9 116 11 18 20 39 107 39 166 0 58 -23 142 -44 163 -22 22 -76 26 -107 8z
m63 -39 c22 -14 35 -65 34 -137 -1 -85 -9 -117 -34 -132 -15 -9 -23 -7 -39 14
-17 20 -20 41 -20 121 0 70 4 102 16 119 17 25 24 28 43 15z"/>
<path d="M2027 1181 c0 -21 5 -26 26 -26 l26 0 0 -158 c0 -158 0 -158 24 -155
23 3 23 7 26 158 l3 155 26 0 c21 0 26 5 26 26 0 26 -2 27 -79 27 -77 0 -78
-1 -78 -27z"/>
<path d="M2237 1024 c0 -176 0 -184 20 -184 18 0 21 9 24 81 l3 82 51 6 c64 7
80 27 80 101 0 79 -21 98 -110 98 l-68 0 0 -184z m105 131 c15 -8 21 -22 21
-52 0 -43 -12 -53 -59 -53 -23 0 -25 4 -25 51 0 66 15 79 63 54z"/>
<path d="M2478 1024 l0 -184 79 0 c72 0 79 2 79 21 0 18 -7 21 -53 21 l-52 0
0 62 0 63 44 3 c37 3 45 7 48 27 3 21 -1 24 -45 24 l-47 0 0 46 0 47 49 3 c42
3 50 7 50 24 0 19 -8 22 -76 24 l-76 3 0 -184z"/>
<path d="M2685 1201 c-4 -4 -7 -87 -7 -185 l0 -177 23 3 c23 3 24 9 30 119 3
63 6 109 7 101 2 -8 17 -62 34 -118 30 -95 35 -104 58 -104 l26 0 -2 181 c-3
173 -4 181 -24 181 -20 0 -21 -8 -24 -115 l-4 -116 -35 110 c-37 113 -58 144
-82 120z"/>
</g>
</svg>
