<?xml version="1.0" encoding="UTF-8" standalone="no"?>
<!DOCTYPE svg PUBLIC "-//W3C//DTD SVG 1.1//EN" "http://www.w3.org/Graphics/SVG/1.1/DTD/svg11.dtd">
<svg width="100%" height="100%" viewBox="0 0 295 473" version="1.1" xmlns="http://www.w3.org/2000/svg" xmlns:xlink="http://www.w3.org/1999/xlink" xml:space="preserve" xmlns:serif="http://www.serif.com/" style="fill-rule:evenodd;clip-rule:evenodd;stroke-linejoin:round;stroke-miterlimit:2;">
    <g transform="matrix(1.12994,0,0,1.12994,-694.758,-111.782)">
        <g transform="matrix(1.09478,0.0195484,-0.0195484,1.09478,-208.149,-11.4635)">
            <g transform="matrix(4.16667,0,0,4.16667,-235.999,-668.435)">
                <path d="M243.117,272.548C239.694,271.26 238.038,267.376 239.478,264.015L253.303,230.352L261.48,232.598L251.481,268.532C250.347,272.009 246.54,273.836 243.117,272.548Z" style="fill-rule:nonzero;"/>
            </g>
            <g transform="matrix(4.16667,0,0,4.16667,-235.999,-668.435)">
                <path d="M289.471,217.15C288.692,219.218 287.656,221.116 286.413,222.816C283.928,226.222 280.615,228.85 276.876,230.519C271.347,232.99 264.879,233.366 258.764,231.063C255.925,229.995 253.41,228.444 251.279,226.535C246.813,222.549 244.02,217.005 243.436,211.091C243.085,207.563 243.521,203.9 244.854,200.357C247.798,192.531 254.42,187.16 262.017,185.475C264.263,184.978 266.595,184.801 268.939,184.976C270.968,185.129 273.009,185.548 275.015,186.247C275.195,186.311 275.377,186.378 275.559,186.445C276.689,186.87 277.769,187.374 278.79,187.942C288.932,193.593 293.683,205.96 289.471,217.15Z" style="fill:white;fill-rule:nonzero;"/>
            </g>
            <g transform="matrix(4.16667,0,0,4.16667,-235.999,-668.435)">
                <path d="M289.471,217.15C288.692,219.218 287.656,221.116 286.413,222.816C283.928,226.222 280.615,228.85 276.876,230.519C271.347,232.99 264.879,233.366 258.764,231.063C255.925,229.995 253.41,228.444 251.279,226.535C246.813,222.549 244.02,217.005 243.436,211.091C243.085,207.563 243.521,203.9 244.854,200.357C247.798,192.531 254.42,187.16 262.017,185.475C264.263,184.978 266.595,184.801 268.938,184.976C270.968,185.129 273.009,185.548 275.015,186.247C275.195,186.311 275.377,186.378 275.559,186.445C276.689,186.87 277.769,187.373 278.79,187.942C288.932,193.593 293.683,205.96 289.471,217.15ZM276.982,182.664C262.573,177.241 246.496,184.524 241.072,198.933C235.648,213.342 242.933,229.419 257.342,234.843C271.75,240.267 287.827,232.983 293.251,218.574C298.675,204.166 291.391,188.088 276.982,182.664Z" style="fill-rule:nonzero;"/>
            </g>
        </g>
        <g transform="matrix(1,0,0,1,277.427,90.914)">
            <g transform="matrix(3.91935,0,0,3.91935,-999.724,-93.702)">
                <path d="M377.629,44.135C377.045,44.006 376.45,43.916 375.847,43.866L377.235,37.312C377.326,36.888 377.701,36.599 378.117,36.599C378.178,36.599 378.24,36.605 378.303,36.618C378.789,36.721 379.1,37.199 378.996,37.685L377.629,44.135Z" style="fill:rgb(68,118,128);fill-rule:nonzero;"/>
            </g>
            <g transform="matrix(3.91935,0,0,3.91935,-999.724,-93.702)">
                <path d="M380.817,37.603C381.187,39.105 380.269,40.622 378.768,40.992C377.266,41.361 375.748,40.443 375.379,38.941C375.009,37.439 375.927,35.922 377.429,35.553C378.931,35.183 380.448,36.101 380.817,37.603Z" style="fill:rgb(98,196,168);fill-rule:nonzero;"/>
            </g>
            <g transform="matrix(3.91935,0,0,3.91935,-999.724,-93.702)">
                <path d="M382.572,77.714C382.222,77.714 381.889,77.508 381.743,77.165L378.838,70.32C379.418,70.136 379.978,69.917 380.515,69.664L383.401,76.462C383.594,76.919 383.381,77.448 382.923,77.642L382.785,77.688C382.714,77.705 382.643,77.714 382.572,77.714Z" style="fill:rgb(68,118,128);fill-rule:nonzero;"/>
            </g>
            <g transform="matrix(3.91935,0,0,3.91935,-999.724,-93.702)">
                <path d="M380.44,78.185C379.348,77.229 379.238,75.57 380.193,74.478C381.149,73.388 382.809,73.278 383.9,74.233C384.991,75.189 385.101,76.849 384.146,77.94C383.19,79.031 381.53,79.141 380.44,78.185Z" style="fill:rgb(98,196,168);fill-rule:nonzero;"/>
            </g>
            <g transform="matrix(3.91935,0,0,3.91935,-999.724,-93.702)">
                <path d="M386.572,50.77C386.277,50.242 385.949,49.737 385.591,49.259L391.313,45.199C391.472,45.087 391.653,45.033 391.834,45.033C392.115,45.033 392.393,45.165 392.568,45.412C392.855,45.818 392.76,46.379 392.355,46.667L386.572,50.77Z" style="fill:rgb(68,118,128);fill-rule:nonzero;"/>
            </g>
            <g transform="matrix(3.91935,0,0,3.91935,-999.724,-93.702)">
                <path d="M394.114,48.205C393.226,49.818 391.198,50.405 389.585,49.517C387.972,48.628 387.385,46.6 388.273,44.987C389.162,43.374 391.19,42.787 392.803,43.675C394.416,44.564 395.003,46.592 394.114,48.205Z" style="fill:rgb(98,196,168);fill-rule:nonzero;"/>
            </g>
            <g transform="matrix(3.91935,0,0,3.91935,-999.724,-93.702)">
                <path d="M361.118,73.667C360.931,73.667 360.743,73.609 360.581,73.489C360.182,73.192 360.1,72.628 360.397,72.229L364.667,66.498C365.075,66.948 365.511,67.368 365.973,67.757L361.84,73.305C361.71,73.479 361.529,73.593 361.334,73.641C361.263,73.658 361.191,73.667 361.118,73.667Z" style="fill:rgb(68,118,128);fill-rule:nonzero;"/>
            </g>
            <g transform="matrix(3.91935,0,0,3.91935,-999.724,-93.702)">
                <path d="M358.248,71.309C358.597,69.5 360.345,68.317 362.153,68.665C363.962,69.013 365.146,70.761 364.797,72.57C364.449,74.378 362.701,75.562 360.893,75.214C359.084,74.866 357.9,73.117 358.248,71.309Z" style="fill:rgb(98,196,168);fill-rule:nonzero;"/>
            </g>
            <g transform="matrix(3.91935,0,0,3.91935,-999.724,-93.702)">
                <path d="M362.511,51.487L358.029,48.355C357.622,48.071 357.522,47.509 357.808,47.102C357.982,46.852 358.262,46.718 358.546,46.718C358.724,46.718 358.904,46.77 359.061,46.88L363.404,49.915C363.072,50.419 362.773,50.944 362.511,51.487Z" style="fill:rgb(68,118,128);fill-rule:nonzero;"/>
            </g>
            <g transform="matrix(3.91935,0,0,3.91935,-999.724,-93.702)">
                <path d="M359.238,46.145C360.157,46.293 360.782,47.159 360.634,48.078C360.486,48.997 359.62,49.622 358.701,49.474C357.782,49.326 357.157,48.46 357.306,47.541C357.454,46.622 358.319,45.997 359.238,46.145Z" style="fill:rgb(98,196,168);fill-rule:nonzero;"/>
            </g>
            <g transform="matrix(3.91935,0,0,3.91935,-999.724,-93.702)">
                <path d="M393.905,58.626L388.243,58.609C388.296,58.015 388.31,57.414 388.284,56.809L393.911,56.827C394.408,56.828 394.81,57.232 394.809,57.729C394.807,58.151 394.516,58.504 394.124,58.6L393.905,58.626Z" style="fill:rgb(68,118,128);fill-rule:nonzero;"/>
            </g>
            <g transform="matrix(3.91935,0,0,3.91935,-999.724,-93.702)">
                <path d="M394.179,59.331C393.34,59.733 392.332,59.379 391.93,58.54C391.527,57.7 391.882,56.693 392.722,56.29C393.562,55.888 394.568,56.243 394.971,57.082C395.373,57.922 395.019,58.929 394.179,59.331Z" style="fill:rgb(98,196,168);fill-rule:nonzero;"/>
            </g>
            <g transform="matrix(3.91935,0,0,3.91935,-999.724,-93.702)">
                <path d="M387.9,54.149C389.691,61.425 385.244,68.775 377.968,70.565C370.693,72.355 363.343,67.908 361.553,60.632C359.762,53.356 364.209,46.007 371.484,44.217C378.761,42.426 386.11,46.873 387.9,54.149Z" style="fill:rgb(98,196,168);fill-rule:nonzero;"/>
            </g>
            <g transform="matrix(3.91935,0,0,3.91935,-999.724,-93.702)">
                <path d="M364.815,57.682C363.867,57.682 363.009,57.051 362.776,56.104C362.502,54.988 363.2,53.856 364.337,53.576C363.717,53.729 363.335,54.347 363.485,54.955C363.612,55.472 364.08,55.817 364.598,55.817C364.691,55.817 364.785,55.805 364.88,55.782C365.5,55.63 365.881,55.012 365.731,54.403C365.604,53.886 365.136,53.542 364.618,53.542C364.529,53.542 364.437,53.552 364.346,53.574C364.516,53.533 364.686,53.513 364.853,53.513C365.802,53.513 366.659,54.145 366.892,55.091C367.167,56.208 366.468,57.34 365.332,57.619C365.159,57.662 364.986,57.682 364.815,57.682Z" style="fill:rgb(63,152,140);fill-rule:nonzero;"/>
            </g>
            <g transform="matrix(3.91935,0,0,3.91935,-999.724,-93.702)">
                <path d="M364.337,53.576C364.34,53.575 364.343,53.575 364.346,53.574C364.343,53.575 364.34,53.575 364.337,53.576Z" style="fill:rgb(63,152,140);fill-rule:nonzero;"/>
            </g>
            <g transform="matrix(3.91935,0,0,3.91935,-999.724,-93.702)">
                <path d="M364.598,55.817C364.08,55.817 363.612,55.472 363.485,54.955C363.335,54.347 363.717,53.729 364.337,53.576C364.34,53.575 364.343,53.575 364.346,53.574C364.437,53.552 364.529,53.542 364.618,53.542C365.136,53.542 365.604,53.886 365.731,54.403C365.881,55.012 365.5,55.63 364.88,55.782C364.785,55.805 364.691,55.817 364.598,55.817Z" style="fill:rgb(54,140,132);fill-rule:nonzero;"/>
            </g>
            <g transform="matrix(3.91935,0,0,3.91935,-999.724,-93.702)">
                <path d="M366.313,52.44C366.103,52.44 365.89,52.384 365.696,52.267C365.132,51.926 364.951,51.191 365.293,50.627C365.518,50.256 365.912,50.051 366.315,50.051C366.526,50.051 366.739,50.107 366.933,50.224C367.497,50.565 367.678,51.299 367.336,51.863C367.111,52.234 366.717,52.44 366.313,52.44Z" style="fill:rgb(63,152,140);fill-rule:nonzero;"/>
            </g>
            <g transform="matrix(3.91935,0,0,3.91935,-999.724,-93.702)">
                <path d="M370.461,59.138C369.218,59.138 368.082,58.272 367.765,56.984C367.393,55.475 368.287,53.958 369.761,53.595C369.977,53.542 370.193,53.517 370.406,53.517C371.649,53.517 372.786,54.382 373.103,55.67C373.474,57.179 372.579,58.697 371.106,59.059C370.89,59.112 370.674,59.138 370.461,59.138Z" style="fill:rgb(63,152,140);fill-rule:nonzero;"/>
            </g>
            <g transform="matrix(3.91935,0,0,3.91935,-999.724,-93.702)">
                <path d="M376.807,53.044C374.984,53.044 373.419,52.07 373.046,50.554C372.588,48.694 374.1,46.723 376.421,46.151C376.851,46.045 377.279,45.995 377.694,45.995C379.513,45.995 381.074,46.966 381.452,48.476C381.249,47.676 380.422,47.163 379.457,47.163C379.237,47.163 379.01,47.189 378.781,47.246C377.548,47.549 376.745,48.596 376.988,49.584C377.186,50.389 378.018,50.907 378.986,50.907C379.206,50.907 379.433,50.88 379.661,50.824C380.89,50.522 381.691,49.481 381.457,48.497C381.906,50.354 380.396,52.318 378.079,52.888C377.649,52.994 377.221,53.044 376.807,53.044Z" style="fill:rgb(63,152,140);fill-rule:nonzero;"/>
            </g>
            <g transform="matrix(3.91935,0,0,3.91935,-999.724,-93.702)">
                <path d="M381.457,48.497C381.456,48.493 381.455,48.489 381.454,48.485C381.455,48.489 381.456,48.493 381.457,48.497ZM381.454,48.485C381.453,48.482 381.452,48.479 381.452,48.476C381.452,48.479 381.453,48.482 381.454,48.485Z" style="fill:rgb(63,152,140);fill-rule:nonzero;"/>
            </g>
            <g transform="matrix(3.91935,0,0,3.91935,-999.724,-93.702)">
                <path d="M378.986,50.907C378.018,50.907 377.186,50.389 376.988,49.584C376.745,48.596 377.548,47.549 378.781,47.246C379.01,47.189 379.237,47.163 379.457,47.163C380.422,47.163 381.249,47.676 381.452,48.476C381.452,48.479 381.453,48.482 381.454,48.485C381.455,48.489 381.456,48.493 381.457,48.497C381.691,49.481 380.89,50.522 379.661,50.824C379.433,50.88 379.206,50.907 378.986,50.907Z" style="fill:rgb(54,140,132);fill-rule:nonzero;"/>
            </g>
            <g transform="matrix(3.91935,0,0,3.91935,-999.724,-93.702)">
                <path d="M366.202,64.603C365.352,64.603 364.606,64.1 364.417,63.333C364.189,62.409 364.857,61.45 365.906,61.191C366.084,61.148 366.262,61.127 366.435,61.127C367.285,61.127 368.032,61.629 368.221,62.397C368.447,63.321 367.78,64.28 366.731,64.538C366.553,64.582 366.375,64.603 366.202,64.603Z" style="fill:rgb(63,152,140);fill-rule:nonzero;"/>
            </g>
            <g transform="matrix(3.91935,0,0,3.91935,-999.724,-93.702)">
                <path d="M383.932,63.16C383.438,63.16 383.011,62.889 382.908,62.47C382.782,61.957 383.187,61.418 383.811,61.264C383.924,61.236 384.036,61.223 384.145,61.223C384.639,61.223 385.066,61.494 385.169,61.913C385.295,62.426 384.892,62.965 384.267,63.119C384.154,63.147 384.041,63.16 383.932,63.16Z" style="fill:rgb(63,152,140);fill-rule:nonzero;"/>
            </g>
            <g transform="matrix(3.91935,0,0,3.91935,-999.724,-93.702)">
                <path d="M371.079,65.618C370.585,65.618 370.158,65.347 370.055,64.928C369.929,64.416 370.332,63.876 370.956,63.722C371.069,63.694 371.182,63.681 371.292,63.681C371.786,63.681 372.212,63.952 372.315,64.371C372.441,64.883 372.037,65.423 371.413,65.577C371.3,65.605 371.188,65.618 371.079,65.618Z" style="fill:rgb(63,152,140);fill-rule:nonzero;"/>
            </g>
        </g>
    </g>
</svg>
