<?xml version="1.0" encoding="UTF-8" standalone="no"?>
<!DOCTYPE svg PUBLIC "-//W3C//DTD SVG 1.1//EN" "http://www.w3.org/Graphics/SVG/1.1/DTD/svg11.dtd">
<svg width="100%" height="100%" viewBox="0 0 856 528" version="1.1" xmlns="http://www.w3.org/2000/svg" xmlns:xlink="http://www.w3.org/1999/xlink" xml:space="preserve" xmlns:serif="http://www.serif.com/" style="fill-rule:evenodd;clip-rule:evenodd;stroke-linejoin:round;stroke-miterlimit:2;">
    <g transform="matrix(1,0,0,1,95.496,12.979)">
        <rect x="0.002" y="0" width="749.998" height="499.999" style="fill:rgb(255,249,237);"/>
    </g>
    <g transform="matrix(1,0,0,1,775.832,307.048)">
        <path d="M0,-212.167L-7.225,-216.744L-7.832,-268L-45.166,-264.499L-43.861,-216.085L-50.666,-212.167L-50.666,-142.167L-87.332,-136.167L-86,50.5L6,55.833L0,-212.167Z" style="fill:rgb(215,228,237);fill-rule:nonzero;"/>
    </g>
    <g transform="matrix(-1,0,0,1,1521.84,-69.216)">
        <rect x="665.838" y="146.43" width="94.666" height="289.334" style="fill:rgb(189,204,212);"/>
    </g>
    <g transform="matrix(-1,0,0,1,1480,-279.384)">
        <rect x="684.67" y="383.633" width="15.168" height="25.096" style="fill:rgb(157,176,186);"/>
    </g>
    <g transform="matrix(-1,0,0,1,1532.67,-279.384)">
        <rect x="711.004" y="383.633" width="15.168" height="25.096" style="fill:rgb(157,176,186);"/>
    </g>
    <g transform="matrix(-1,0,0,1,1585.34,-279.384)">
        <rect x="737.338" y="383.633" width="15.168" height="25.096" style="fill:rgb(157,176,186);"/>
    </g>
    <g transform="matrix(-1,0,0,1,1480,-187.384)">
        <rect x="684.67" y="337.633" width="15.168" height="25.096" style="fill:rgb(157,176,186);"/>
    </g>
    <g transform="matrix(-1,0,0,1,1532.67,-187.384)">
        <rect x="711.004" y="337.633" width="15.168" height="25.096" style="fill:rgb(157,176,186);"/>
    </g>
    <g transform="matrix(-1,0,0,1,1585.34,-187.384)">
        <rect x="737.338" y="337.633" width="15.168" height="25.096" style="fill:rgb(157,176,186);"/>
    </g>
    <g transform="matrix(-1,0,0,1,1480,-95.384)">
        <rect x="684.67" y="291.633" width="15.168" height="25.096" style="fill:rgb(157,176,186);"/>
    </g>
    <g transform="matrix(-1,0,0,1,1532.67,-95.384)">
        <rect x="711.004" y="291.633" width="15.168" height="25.096" style="fill:rgb(157,176,186);"/>
    </g>
    <g transform="matrix(-1,0,0,1,1585.34,-95.384)">
        <rect x="737.338" y="291.633" width="15.168" height="25.096" style="fill:rgb(157,176,186);"/>
    </g>
    <g transform="matrix(-1,0,0,1,1528.5,-429.216)">
        <rect x="681.838" y="430.43" width="69.332" height="81.334" style="fill:rgb(189,204,212);"/>
    </g>
    <g transform="matrix(-1,0,0,1,1505.34,-404.718)">
        <rect x="697.336" y="446.3" width="15.168" height="25.096" style="fill:rgb(157,176,186);"/>
    </g>
    <g transform="matrix(-1,0,0,1,1558,-404.718)">
        <rect x="723.67" y="446.3" width="15.168" height="25.096" style="fill:rgb(157,176,186);"/>
    </g>
    <g transform="matrix(-1,0,0,1,1505.34,-487.882)">
        <rect x="697.336" y="487.882" width="15.168" height="25.096" style="fill:rgb(157,176,186);"/>
    </g>
    <g transform="matrix(-1,0,0,1,1558,-487.882)">
        <rect x="723.67" y="487.882" width="15.168" height="25.096" style="fill:rgb(157,176,186);"/>
    </g>
    <g transform="matrix(1,0,0,1,660,370.048)">
        <path d="M0,-269L48,-269L59,0L1,-0.5L0,-269Z" style="fill:rgb(215,228,237);fill-rule:nonzero;"/>
    </g>
    <g transform="matrix(1,0,0,1,80.9994,519.47)">
        <path d="M0,-164.803C92,-164.803 273.646,-167.274 319.823,-167.074C366,-166.875 562,-168.949 604,-167.912C646,-166.875 753,-166.875 771,-166.875C770,-124.379 766,-2.073 766,1.037C766,4.146 10,0.001 10,0.001L0,-164.803Z" style="fill:rgb(254,230,185);fill-rule:nonzero;"/>
    </g>
    <g transform="matrix(1,0,0,1,311.166,85.8823)">
        <path d="M0,-65.667C0.015,-54.664 0.507,-43.672 0.899,-32.678C1.287,-21.784 1.333,-10.9 1.333,0C1.333,0.645 2.333,0.645 2.333,0L2.333,-1C2.333,-1.645 1.333,-1.645 1.333,-1L1.333,0C1.333,0.645 2.333,0.645 2.333,0C2.333,-10.9 2.28,-21.784 1.899,-32.678C1.514,-43.672 1.015,-54.664 1,-65.667C0.999,-66.312 -0.001,-66.312 0,-65.667" style="fill:rgb(31,14,3);fill-rule:nonzero;"/>
    </g>
    <g transform="matrix(-0.999423,0.033956,0.033956,0.999423,300.105,79.5894)">
        <path d="M0.941,-68.682C1.197,-45.783 2.767,-22.919 1.94,-0.009C1.917,0.632 0.917,0.67 0.941,0.025C1.767,-22.885 0.198,-45.75 -0.059,-68.648C-0.066,-69.292 0.934,-69.327 0.941,-68.682" style="fill:rgb(31,14,3);fill-rule:nonzero;"/>
    </g>
    <g transform="matrix(1,0,0,1,305.499,76.306)">
        <path d="M0,-64.327C0.22,-52.689 0.304,-41.049 0.618,-29.413C0.774,-23.604 1.005,-17.797 1.333,-11.994C1.559,-8.016 1.831,-3.964 1.333,0.006C1.253,0.645 2.254,0.637 2.333,0.006C2.803,-3.742 2.647,-7.639 2.383,-11.396C1.985,-17.068 1.812,-22.76 1.645,-28.443C1.293,-40.401 1.226,-52.366 1,-64.327C0.988,-64.971 -0.012,-64.972 0,-64.327" style="fill:rgb(31,14,3);fill-rule:nonzero;"/>
    </g>
    <g transform="matrix(-0.999486,0.0320687,0.0320687,0.999486,296.165,75.5979)">
        <path d="M1,-62.35C1.645,-41.577 1.333,-20.791 1.999,-0.016C2.02,0.629 1.021,0.661 1,0.016C0.333,-20.759 0.646,-41.545 0.001,-62.318C-0.02,-62.963 0.979,-62.995 1,-62.35" style="fill:rgb(31,14,3);fill-rule:nonzero;"/>
    </g>
    <g transform="matrix(1,0,0,1,290.132,62.1729)">
        <path d="M0,3.288C3.766,2.424 7.721,3.022 11.551,2.556C14.743,2.168 18.26,0.674 21.401,1.955C21.998,2.199 22.255,1.231 21.667,0.991C18.884,-0.145 15.688,0.795 12.868,1.332C8.503,2.162 4.048,1.333 -0.266,2.324C-0.894,2.468 -0.627,3.433 0,3.288" style="fill:rgb(31,14,3);fill-rule:nonzero;"/>
    </g>
    <g transform="matrix(1,0,0,1,294.466,46.4769)">
        <path d="M0,3.651C3.832,2.78 7.977,2.829 11.878,2.432C12.966,2.321 19.04,2.303 19.034,0.502C19.032,-0.142 18.032,-0.143 18.034,0.502C18.037,1.377 1.771,2.224 -0.266,2.687C-0.895,2.83 -0.628,3.794 0,3.651" style="fill:rgb(31,14,3);fill-rule:nonzero;"/>
    </g>
    <g transform="matrix(0.156514,0.987676,0.987676,-0.156514,299.583,24.9799)">
        <path d="M7.748,-7.421C7.669,-1.919 10.843,4.056 8.68,9.426C8.44,10.023 7.507,9.663 7.748,9.063C9.834,3.884 6.678,-2.182 6.754,-7.533C6.764,-8.177 7.757,-8.061 7.748,-7.421" style="fill:rgb(31,14,3);fill-rule:nonzero;"/>
    </g>
    <g transform="matrix(0.0738533,0.997269,0.997269,-0.0738533,301.353,9.90205)">
        <path d="M8.983,-8.374C9.112,-2.371 9.537,3.616 9.98,9.602C10.028,10.245 9.031,10.319 8.983,9.675C8.54,3.69 8.114,-2.297 7.986,-8.3C7.972,-8.943 8.969,-9.02 8.983,-8.374" style="fill:rgb(31,14,3);fill-rule:nonzero;"/>
    </g>
    <g transform="matrix(1,0,0,1,245.184,78.1658)">
        <path d="M0,-66.387C1.03,-61.111 -0.248,-55.541 0.184,-50.178C0.637,-44.545 0.982,-38.982 0.982,-33.329L0.982,-15.811C0.982,-13.089 0.921,-10.361 1.06,-7.642C1.191,-5.064 1.384,-2.502 0.667,0.013C0.489,0.635 1.454,0.898 1.63,0.279C2.896,-4.158 1.982,-9.274 1.982,-13.834L1.982,-32.364C1.982,-38.34 1.681,-44.222 1.184,-50.178C0.727,-55.646 2.016,-61.266 0.964,-66.653C0.84,-67.285 -0.123,-67.017 0,-66.387" style="fill:rgb(31,14,3);fill-rule:nonzero;"/>
    </g>
    <g transform="matrix(1,0,0,1,254.833,78.961)">
        <path d="M0,-63.315C-0.335,-58.265 -0.124,-53.22 0.107,-48.17C0.357,-42.701 0.247,-37.271 0.287,-31.803C0.327,-26.345 0.926,-20.903 1.207,-15.457C1.472,-10.31 1.333,-5.134 1.333,0.018C1.333,0.623 2.112,0.644 2.315,0.151C2.528,-0.365 2.647,-0.769 2.667,-1.315C2.689,-1.96 1.689,-1.958 1.667,-1.315C1.667,-0.887 1.562,-0.487 1.352,-0.115C1.679,-0.07 2.006,-0.026 2.333,0.018C2.333,-4.817 2.426,-9.663 2.25,-14.495C2.051,-19.95 1.46,-25.383 1.305,-30.841C1.149,-36.3 1.393,-41.746 1.151,-47.211C0.913,-52.581 0.643,-57.944 1,-63.315C1.043,-63.959 0.042,-63.955 0,-63.315" style="fill:rgb(31,14,3);fill-rule:nonzero;"/>
    </g>
    <g transform="matrix(1,0,0,1,258.517,76.1812)">
        <path d="M0,-59.668C-0.923,-55.018 0.125,-50.301 0.584,-45.656C1.122,-40.224 1.243,-34.819 1.366,-29.369C1.496,-23.613 1.932,-17.867 2.226,-12.119C2.424,-8.237 0.986,-3.584 2.717,0.05C2.995,0.632 3.856,0.124 3.581,-0.455C2.654,-2.398 2.945,-4.717 3.105,-6.794C3.269,-8.917 3.286,-10.949 3.177,-13.077C2.899,-18.508 2.519,-23.932 2.366,-29.369C2.221,-34.559 2.115,-39.693 1.649,-44.869C1.218,-49.653 0.015,-54.617 0.964,-59.402C1.089,-60.032 0.125,-60.3 0,-59.668" style="fill:rgb(31,14,3);fill-rule:nonzero;"/>
    </g>
    <g transform="matrix(1,0,0,1,241.499,75.646)">
        <path d="M0,-57.667C0.025,-47.874 0.386,-38.031 0.727,-28.245C0.891,-23.527 1.42,-18.839 1.359,-14.113C1.298,-9.4 0.668,-4.731 0.667,0L1.667,0L1.667,-0.667C1.667,-1.312 0.667,-1.312 0.667,-0.667L0.667,0C0.667,0.645 1.667,0.645 1.667,0C1.668,-4.425 2.104,-8.751 2.329,-13.158C2.587,-18.185 1.953,-23.228 1.727,-28.245C1.286,-38.013 1.025,-47.887 1,-57.667C0.999,-58.312 -0.001,-58.312 0,-57.667" style="fill:rgb(31,14,3);fill-rule:nonzero;"/>
    </g>
    <g transform="matrix(0.0687862,0.997631,0.997631,-0.0687862,250.003,51.5477)">
        <path d="M9.666,-9.023C10.096,-2.591 10.237,3.855 10.664,10.287C10.708,10.931 9.71,10.999 9.666,10.356C9.239,3.924 9.098,-2.522 8.669,-8.954C8.625,-9.598 9.623,-9.666 9.666,-9.023" style="fill:rgb(31,14,3);fill-rule:nonzero;"/>
    </g>
    <g transform="matrix(0.129073,0.991635,0.991635,-0.129073,249.727,37.3144)">
        <path d="M9.873,-8.069C9.913,-5.865 12.508,11.455 9.733,11.26C9.09,11.214 9.232,10.225 9.873,10.269C10.296,10.299 8.914,-6.139 8.881,-7.94C8.87,-8.577 9.86,-8.714 9.873,-8.069" style="fill:rgb(31,14,3);fill-rule:nonzero;"/>
    </g>
    <g transform="matrix(0.119022,0.992892,0.992892,-0.119022,248.904,22.7604)">
        <path d="M8.243,-7.137C7.577,-1.612 8.871,3.896 9.236,9.397C9.278,10.037 8.286,10.159 8.243,9.516C7.872,3.921 6.576,-1.666 7.254,-7.286C7.33,-7.926 8.32,-7.777 8.243,-7.137" style="fill:rgb(31,14,3);fill-rule:nonzero;"/>
    </g>
    <g transform="matrix(1,0,0,1,113.833,54.979)">
        <path d="M0,-45C0.021,-29.993 0.979,-15.007 1,0C1.001,0.645 2,0.645 2,0L2,-0.667C2,-1.312 1,-1.312 1,-0.667L1,0L2,0C1.979,-15.007 1.021,-29.993 1,-45C0.999,-45.645 -0.001,-45.645 0,-45" style="fill:rgb(31,14,3);fill-rule:nonzero;"/>
    </g>
    <g transform="matrix(1,0,0,1,122.833,55.404)">
        <path d="M0,-42.758C0.007,-35.502 0.167,-28.248 0.167,-20.992C0.167,-17.528 0.111,-14.064 -0.008,-10.602C-0.073,-8.738 -0.174,-6.876 -0.292,-5.015C-0.351,-4.094 -0.426,-3.174 -0.5,-2.253C-0.503,-2.221 -0.203,0.645 -0.018,-0.625C0.074,-1.256 -0.89,-1.527 -0.982,-0.891C-1.007,-0.71 -1.035,-0.529 -1.065,-0.349C-1.093,-0.183 -1.082,0.019 -0.937,0.137C-0.909,0.159 -0.881,0.182 -0.854,0.205C-0.626,0.389 -0.374,0.393 -0.146,0.205C0.614,-0.425 0.415,-1.29 0.5,-2.253C0.661,-4.099 0.771,-5.949 0.87,-7.8C1.069,-11.56 1.133,-15.328 1.16,-19.093C1.216,-26.982 1.008,-34.87 1,-42.758C1,-43.403 0,-43.403 0,-42.758" style="fill:rgb(31,14,3);fill-rule:nonzero;"/>
    </g>
    <g transform="matrix(1,0,0,1,108.851,55.0462)">
        <path d="M0,-45.533C-1.666,-38.475 0.423,-31.347 1.148,-24.309C1.55,-20.402 1.349,-16.401 1.437,-12.476C1.531,-8.324 1.648,-4.172 1.648,-0.018C1.648,0.627 2.648,0.627 2.648,-0.018L2.648,-0.734C2.648,-1.379 1.648,-1.379 1.648,-0.734L1.648,-0.018C1.648,0.627 2.648,0.627 2.648,-0.018C2.648,-7.551 2.581,-15.146 2.271,-22.672C1.959,-30.239 -0.824,-37.691 0.964,-45.267C1.112,-45.894 0.148,-46.16 0,-45.533" style="fill:rgb(31,14,3);fill-rule:nonzero;"/>
    </g>
    <g transform="matrix(1,0,0,1,126.851,53.5288)">
        <path d="M0,-40.084C1.909,-33.283 1.13,-26.03 0.729,-19.079C0.361,-12.716 -0.06,-6.325 -1,-0.016C-1.094,0.615 -0.131,0.886 -0.036,0.25C0.917,-6.146 1.376,-12.626 1.729,-19.079C2.115,-26.134 2.902,-33.446 0.964,-40.35C0.79,-40.97 -0.175,-40.706 0,-40.084" style="fill:rgb(31,14,3);fill-rule:nonzero;"/>
    </g>
    <g transform="matrix(0.0468243,0.998903,0.998903,-0.0468243,117.475,14.815)">
        <path d="M10.526,-10.313C10.873,-3.209 11.501,3.881 11.525,10.997C11.527,11.64 10.528,11.689 10.526,11.044C10.502,3.928 9.874,-3.162 9.527,-10.266C9.496,-10.91 10.494,-10.957 10.526,-10.313" style="fill:rgb(31,14,3);fill-rule:nonzero;"/>
    </g>
    <g transform="matrix(0.143971,0.989582,0.989582,-0.143971,115.579,28.8409)">
        <path d="M8.921,-7.813C8.377,-1.735 9.051,4.418 9.911,10.436C10.003,11.074 9.013,11.218 8.921,10.58C8.049,4.474 7.377,-1.771 7.929,-7.937C7.986,-8.579 8.978,-8.455 8.921,-7.813" style="fill:rgb(31,14,3);fill-rule:nonzero;"/>
    </g>
    <g transform="matrix(0.0737324,0.997278,0.997278,-0.0737324,116.563,37.8024)">
        <path d="M7.686,-8.954C8.848,-3.458 10.781,2.949 8.585,8.412C8.344,9.01 7.447,8.568 7.686,7.972C9.754,2.83 7.835,-3.455 6.744,-8.618C6.613,-9.241 7.553,-9.583 7.686,-8.954" style="fill:rgb(31,14,3);fill-rule:nonzero;"/>
    </g>
    <g transform="matrix(-1,0,0,1,412.504,-42.352)">
        <rect x="145.504" y="118.332" width="26" height="318.666" style="fill:rgb(189,204,212);"/>
    </g>
    <g transform="matrix(-1,0,0,1,266.002,20.312)">
        <rect x="-28.497" y="138.833" width="227.5" height="215" style="fill:rgb(157,176,186);"/>
    </g>
    <g transform="matrix(-1,0,0,1,510.504,-41.712)">
        <rect x="194.504" y="117.692" width="26" height="319.306" style="fill:rgb(189,204,212);"/>
    </g>
    <g transform="matrix(-1,0,0,1,143.836,-67.019)">
        <rect x="11.17" y="118.332" width="26" height="343.333" style="fill:rgb(189,204,212);"/>
    </g>
    <g transform="matrix(-0.778148,0,0,1,227.689,-207.02)">
        <rect x="-95.496" y="346.999" width="301.999" height="26" style="fill:rgb(189,204,212);"/>
    </g>
    <g transform="matrix(-0.778148,0,0,1,227.689,22.314)">
        <rect x="-95.496" y="232.332" width="301.999" height="26" style="fill:rgb(189,204,212);"/>
    </g>
    <g transform="matrix(-0.778148,0,0,1,227.689,251.648)">
        <rect x="-95.496" y="117.665" width="301.999" height="26" style="fill:rgb(189,204,212);"/>
    </g>
    <g transform="matrix(-1,0,0,1,259.002,-91.188)">
        <rect x="68.003" y="279.333" width="27.5" height="45.5" style="fill:rgb(255,249,237);"/>
    </g>
    <g transform="matrix(-1,0,0,1,398.002,-91.188)">
        <rect x="137.503" y="279.333" width="27.5" height="45.5" style="fill:rgb(255,249,237);"/>
    </g>
    <g transform="matrix(-1,0,0,1,259.002,142.812)">
        <rect x="68.003" y="162.333" width="27.5" height="45.5" style="fill:rgb(255,249,237);"/>
    </g>
    <g transform="matrix(-1,0,0,1,398.002,142.812)">
        <rect x="137.503" y="162.333" width="27.5" height="45.5" style="fill:rgb(255,249,237);"/>
    </g>
    <g transform="matrix(1,0,0,1,204.708,124.312)">
        <path d="M0,-0.333L0,-16.333L-59.125,-16.333L-59.125,-0.333L-72.042,-0.333L-72.042,16L16.917,16L16.917,-0.333L0,-0.333Z" style="fill:rgb(157,176,186);fill-rule:nonzero;"/>
    </g>
    <g transform="matrix(1,0,0,1,145.49,123.185)">
        <path d="M0,1.341C4.359,0.798 8.753,1.618 13.13,1.507C17.724,1.391 22.271,1.015 26.876,1.064C36.374,1.165 45.864,0.723 55.356,0.914C56.001,0.927 56,-0.073 55.356,-0.086C45.862,-0.277 36.375,0.194 26.876,0.064C22.271,0.001 17.725,0.317 13.13,0.507C8.746,0.688 4.371,-0.204 0,0.341C-0.631,0.42 -0.639,1.421 0,1.341" style="fill:rgb(31,14,3);fill-rule:nonzero;"/>
    </g>
    <g transform="matrix(-0.996978,0.0776886,0.0776886,0.996978,176.039,123.176)">
        <path d="M0.376,-12.848C0.854,-8.595 1.052,-4.319 1.373,-0.053C1.422,0.59 0.425,0.667 0.376,0.024C0.055,-4.242 -0.143,-8.517 -0.621,-12.77C-0.693,-13.411 0.304,-13.487 0.376,-12.848" style="fill:rgb(31,14,3);fill-rule:nonzero;"/>
    </g>
    <g transform="matrix(-0.998012,0.0630287,0.0630287,0.998012,158.54,139.519)">
        <path d="M0.458,-14.534C0.769,-9.704 1.146,-4.879 1.457,-0.049C1.497,0.595 0.499,0.658 0.458,0.014C0.148,-4.816 -0.229,-9.641 -0.54,-14.471C-0.58,-15.115 0.418,-15.178 0.458,-14.534" style="fill:rgb(31,14,3);fill-rule:nonzero;"/>
    </g>
    <g transform="matrix(1,0,0,1,191.166,140.237)">
        <path d="M0,-16.995C-0.256,-15.047 0.28,-12.954 0.32,-10.982C0.352,-9.447 0.331,-7.912 0.307,-6.378C0.279,-4.657 -0.378,-1.532 0.402,0.059C0.686,0.638 1.548,0.131 1.265,-0.446C1.016,-0.954 1.26,-2.268 1.262,-2.832C1.268,-4.164 1.292,-5.496 1.313,-6.828C1.335,-8.213 1.335,-9.597 1.32,-10.982C1.3,-12.902 0.753,-15.112 1,-16.995C1.083,-17.633 0.083,-17.625 0,-16.995" style="fill:rgb(31,14,3);fill-rule:nonzero;"/>
    </g>
    <g transform="matrix(1,0,0,1,100.249,166.675)">
        <path d="M0,-0.03C8.393,-0.007 16.774,0.468 25.168,0.47C33.865,0.473 42.562,0.539 51.25,0.97C51.895,1.002 51.892,0.002 51.25,-0.03C42.885,-0.445 34.512,-0.519 26.138,-0.529C17.42,-0.539 8.716,-1.006 0,-1.03C-0.645,-1.032 -0.645,-0.032 0,-0.03" style="fill:rgb(31,14,3);fill-rule:nonzero;"/>
    </g>
    <g transform="matrix(0.0185153,0.999829,0.999829,-0.0185153,290.517,152.919)">
        <path d="M13.483,-13.269C13.649,-4.268 13.834,4.734 14.482,13.717C14.529,14.361 13.528,14.375 13.483,13.735C12.834,4.753 12.649,-4.25 12.483,-13.251C12.471,-13.896 13.471,-13.914 13.483,-13.269" style="fill:rgb(31,14,3);fill-rule:nonzero;"/>
    </g>
    <g transform="matrix(1,0,0,1,100.382,279.487)">
        <path d="M0,1.89C3.706,0.814 7.721,1.408 11.525,1.408L17.709,1.408C19.86,1.408 21.833,0.91 23.984,1.39C24.612,1.53 24.879,0.566 24.25,0.425C22.578,0.052 20.943,0.087 19.248,0.321C16.745,0.664 14.049,0.408 11.525,0.408C7.621,0.408 3.541,-0.18 -0.266,0.925C-0.884,1.105 -0.621,2.07 0,1.89" style="fill:rgb(31,14,3);fill-rule:nonzero;"/>
    </g>
    <g transform="matrix(1,0,0,1,277.382,253.804)">
        <path d="M0,1.573C2.494,0.937 5.024,1.592 7.555,1.591C10.076,1.589 12.57,1.411 15.085,1.297C20.177,1.065 25.269,0.854 30.367,0.841C31.012,0.84 31.012,-0.16 30.367,-0.159C24.946,-0.145 19.532,0.094 14.117,0.341C11.611,0.455 9.129,0.59 6.617,0.591C4.257,0.593 2.073,0.012 -0.266,0.609C-0.89,0.768 -0.625,1.733 0,1.573" style="fill:rgb(31,14,3);fill-rule:nonzero;"/>
    </g>
    <g transform="matrix(1,0,0,1,131.767,252.912)">
        <path d="M0,-46.15C-0.773,-42.786 -0.018,-39.141 -0.018,-35.709C-0.018,-31.715 -0.054,-27.72 0.034,-23.728C0.21,-15.798 -0.266,-7.94 -0.268,-0.017C-0.268,0.628 0.732,0.628 0.732,-0.017C0.734,-7.623 1.266,-15.168 1.059,-22.78C0.958,-26.469 0.982,-30.158 0.982,-33.848C0.982,-35.716 1.012,-37.587 0.951,-39.455C0.878,-41.68 0.453,-43.659 0.964,-45.884C1.108,-46.512 0.144,-46.778 0,-46.15" style="fill:rgb(31,14,3);fill-rule:nonzero;"/>
    </g>
    <g transform="matrix(1,0,0,1,197.671,397.109)">
        <path d="M0,-7.595C-8.132,-18.654 -13.677,-36.166 -26.984,-38.931C-38.813,-41.696 -52.859,-37.547 -65.058,-37.087C-78.734,-36.626 -95.452,-17.35 -103.584,-4.447C-113.564,10.761 -123.079,24.277 -124.166,27.303C-125.251,30.328 -110.154,29.732 -107.567,29.732C-101.652,29.732 -95.738,29.272 -89.824,29.272C-79.104,29.272 -67.28,29.03 -56.56,30.875C-37.708,34.101 -20.7,32.037 -1.849,30.192C4.436,29.272 10.35,28.81 16.264,28.351C20.331,27.89 25.505,27.89 28.832,26.047C19.592,14.525 8.871,4.848 0,-7.595" style="fill:rgb(255,188,69);fill-rule:nonzero;"/>
    </g>
    <g transform="matrix(1,0,0,1,277.873,420.345)">
        <path d="M0,18.663C-5.954,8.555 -17.26,-0.295 -27.164,-6.808C-35.989,-12.137 -45.314,-14.841 -55.913,-14.583C-79.015,-13.774 -95.909,-0.197 -115.681,10.22C-121.481,12.973 -126.904,15.743 -132.363,19.268C-135.092,21.029 -140.12,23.441 -141.033,26.801C-143.238,33.504 -130.34,32.596 -126.927,32.378C-124.646,32.105 -122.364,31.836 -120.083,31.564C-120.083,31.564 -72.135,33.055 -45.172,30.537C-34.143,29.162 -23.202,29.676 -12.226,29.434C-4.663,29.41 5.217,28.361 0,18.663" style="fill:rgb(255,206,120);fill-rule:nonzero;"/>
    </g>
    <g transform="matrix(1,0,0,1,385.163,344.549)">
        <path d="M0,174.762C-1,159.762 0.17,81.666 -0.164,52.666C-0.497,23.666 -0.831,-2.333 1.503,-2C3.836,-1.667 39.836,-1.666 54.503,-1C69.169,-0.334 102.835,-2.001 105.169,1.666C107.503,5.333 111.837,84 113.503,95.333C115.169,106.666 117.001,172.429 116.667,173.429C116.333,174.429 68.56,176.111 68.333,174.096C65.333,147.429 53.836,66.666 53.836,66.666C53.836,66.666 52.333,160.429 52,175.762C45.333,177.095 0,174.762 0,174.762" style="fill:rgb(120,133,62);fill-rule:nonzero;"/>
    </g>
    <g transform="matrix(0.273173,0.961965,0.961965,-0.273173,439.118,391.321)">
        <path d="M8.733,-6.623C8.179,-0.529 9.978,5.451 9.734,11.544C9.708,12.186 8.708,12.199 8.733,11.552C8.979,5.458 7.179,-0.522 7.732,-6.616C7.791,-7.251 8.791,-7.266 8.733,-6.623" style="fill:rgb(31,14,3);fill-rule:nonzero;"/>
    </g>
    <g transform="matrix(-0.994112,-0.108358,-0.108358,0.994112,439.535,411.244)">
        <path d="M-0.467,-11.698C0.423,-7.821 0.89,-3.861 0.527,0.112C0.468,0.754 -0.526,0.645 -0.467,0.004C-0.112,-3.886 -0.584,-7.747 -1.454,-11.538C-1.599,-12.169 -0.611,-12.323 -0.467,-11.698" style="fill:rgb(31,14,3);fill-rule:nonzero;"/>
    </g>
    <g transform="matrix(1,0,0,1,427.999,363.798)">
        <path d="M0,-188.75C-10.5,-187.75 -17.917,-183.666 -19.667,-178.916C-21.417,-174.166 -45.25,-19.75 -45.25,-19.75C-45.25,-19.75 -44.75,-4 -43.25,-2.5C-41.75,-1 -11.5,3.25 17.5,3C46.5,2.75 62.5,-1.5 63.25,-4.75C64,-8 67.25,-119.5 67.5,-125.25C67.75,-131 53,-171 49,-173.75C45,-176.5 23.5,-192 0,-188.75" style="fill:rgb(255,176,38);fill-rule:nonzero;"/>
    </g>
    <g transform="matrix(1,0,0,1,416.333,361.548)">
        <path d="M0,-184.333C0.333,-176.333 9.166,-156.416 15.167,-133.75C21.167,-111.084 21.667,-100.334 20.667,-76.667C19.667,-53 18.333,-23.667 17.667,-14.667C17,-5.667 4.667,0 -7.583,-2.75C-19.833,-5.5 -30.083,-15 -30.083,-15C-30.083,-15 -30.332,-125.301 -31.083,-134C-32.833,-154.25 -37.333,-166.5 -40.333,-168.75C-26.583,-177 -14.917,-181.916 0,-184.333" style="fill:rgb(213,232,130);fill-rule:nonzero;"/>
    </g>
    <g transform="matrix(1,0,0,1,454.666,346.216)">
        <path d="M0,-146.668C-5.667,-133.668 -16.334,-106.335 -17.667,-75.668C-19,-45.001 -21,-5.335 -20.667,0.665C-20.333,6.665 -15,15 -1,14.666C13,14.332 30.001,5.666 33.667,-0.001C37.333,-5.668 32,-90.001 33.333,-97.001C34.667,-104.001 44,-147.001 44,-148.001C41,-152.668 19.333,-161.668 12.333,-161.668C5.333,-161.668 0,-146.668 0,-146.668" style="fill:rgb(213,232,130);fill-rule:nonzero;"/>
    </g>
    <g transform="matrix(1,0,0,1,401.684,383.762)">
        <path d="M0,-18.68C-1.298,-14.595 -1.854,-10.353 -4.799,-7.032C-5.723,-5.99 -10.019,-0.654 -11.599,-1.645C-12.147,-1.989 -12.648,-1.123 -12.104,-0.782C-9.881,0.612 -6.189,-4.063 -4.981,-5.348C-1.393,-9.168 -0.581,-13.554 0.964,-18.414C1.16,-19.031 0.194,-19.292 0,-18.68" style="fill:rgb(31,14,3);fill-rule:nonzero;"/>
    </g>
    <g transform="matrix(1,0,0,1,404.351,387.21)">
        <path d="M0,-19.961C-0.454,-17.576 -0.641,-15.44 -1.801,-13.242C-3.059,-10.858 -4.854,-8.766 -6.66,-6.785C-8.418,-4.857 -10.286,-2.879 -12.769,-1.928C-13.691,-1.574 -14.888,-1.292 -15.45,-0.413C-15.798,0.132 -14.933,0.633 -14.586,0.091C-13.938,-0.922 -11.5,-1.315 -10.409,-1.992C-8.238,-3.34 -6.533,-5.442 -4.832,-7.308C-3.339,-8.943 -2.045,-10.828 -0.937,-12.737C0.342,-14.943 0.498,-17.245 0.964,-19.695C1.084,-20.325 0.12,-20.594 0,-19.961" style="fill:rgb(31,14,3);fill-rule:nonzero;"/>
    </g>
    <g transform="matrix(1,0,0,1,433.184,387.139)">
        <path d="M0,-19.39C-0.908,-15.505 -0.032,-11.524 -0.279,-7.584C-0.384,-5.909 -0.506,-4.234 -0.61,-2.558C-0.654,-1.856 -0.953,-0.638 -0.667,0.043C-0.42,0.628 0.547,0.371 0.297,-0.223C0.062,-0.785 0.354,-1.968 0.39,-2.558C0.48,-4.082 0.591,-5.607 0.691,-7.13C0.955,-11.115 0.05,-15.21 0.964,-19.124C1.111,-19.751 0.146,-20.018 0,-19.39" style="fill:rgb(31,14,3);fill-rule:nonzero;"/>
    </g>
    <g transform="matrix(1,0,0,1,433.591,384.158)">
        <path d="M0,4.082C1.918,3.404 3.88,2.816 5.822,2.205C6.63,1.95 8.497,1.686 8.965,0.852C9.282,0.289 8.417,-0.215 8.102,0.348C7.846,0.803 5.528,1.249 4.875,1.455C3.161,1.997 1.429,2.52 -0.266,3.117C-0.87,3.331 -0.609,4.297 0,4.082" style="fill:rgb(31,14,3);fill-rule:nonzero;"/>
    </g>
    <g transform="matrix(1,0,0,1,442.499,384.716)">
        <path d="M0,-17.167C-0.133,-14.372 -0.163,-11.577 -0.167,-8.779C-0.17,-5.839 -0.606,-2.937 -0.667,-0.001C-0.68,0.645 0.32,0.643 0.333,-0.001C0.387,-2.62 0.783,-5.214 0.833,-7.834C0.894,-10.947 0.852,-14.055 1,-17.167C1.031,-17.812 0.031,-17.809 0,-17.167" style="fill:rgb(31,14,3);fill-rule:nonzero;"/>
    </g>
    <g transform="matrix(1,0,0,1,471,391.043)">
        <path d="M0,-24.494C0.177,-20.869 1.82,-17.256 3.067,-13.885C4,-11.363 5.14,-9.021 6.854,-6.946C9.434,-3.822 14.349,0.645 18.748,-1.217C19.341,-1.467 18.83,-2.328 18.244,-2.08C14.196,-0.368 9.496,-5.309 7.211,-8.076C5.557,-10.079 4.615,-12.572 3.725,-14.98C2.611,-17.99 1.158,-21.262 1,-24.494C0.969,-25.136 -0.032,-25.139 0,-24.494" style="fill:rgb(31,14,3);fill-rule:nonzero;"/>
    </g>
    <g transform="matrix(1,0,0,1,474.349,386.149)">
        <path d="M0,-19.967C0.334,-17.617 1.393,-15.492 2.292,-13.32C3.132,-11.291 3.925,-9.26 4.987,-7.333C6.893,-3.88 10.866,-0.984 14.395,0.636C14.976,0.902 15.484,0.041 14.898,-0.228C11.398,-1.834 7.863,-4.535 5.851,-7.838C4.62,-9.859 3.848,-12.155 2.947,-14.332C2.144,-16.274 1.263,-18.136 0.965,-20.233C0.874,-20.869 -0.089,-20.597 0,-19.967" style="fill:rgb(31,14,3);fill-rule:nonzero;"/>
    </g>
    <g transform="matrix(-0.12287,0.992423,0.992423,0.12287,450.322,236.225)">
        <path d="M47.795,-60.576C49.745,-54.624 39.371,18.32 33.734,42.142C40.889,44.035 47.795,45.227 47.795,45.227C55.666,22.353 66.208,-49.228 60.114,-62.409C54.201,-63.478 47.795,-60.576 47.795,-60.576" style="fill:rgb(247,147,30);fill-rule:nonzero;"/>
    </g>
    <g transform="matrix(-0.130705,0.991421,0.991421,0.130705,450.122,275.864)">
        <path d="M47.282,-60.124C49.341,-52.792 42.755,22.661 35.384,42.871C43.403,43.256 47.282,44.44 47.282,44.44C54.679,26.586 63.759,-44.84 60.919,-58.999C55.032,-62.801 47.282,-60.124 47.282,-60.124" style="fill:rgb(247,147,30);fill-rule:nonzero;"/>
    </g>
    <g transform="matrix(-0.0388631,0.999245,0.999245,0.0388631,400.931,174.909)">
        <path d="M23.23,-21.131C25.979,-19.784 29.898,-18.359 34.907,-17.048C26.327,-4.352 23.11,12.368 23.23,22.457C17.617,20.295 12.682,18.398 8.694,17.124C10.514,8.994 17.723,-11.639 23.23,-21.131" style="fill:rgb(218,203,200);fill-rule:nonzero;"/>
    </g>
    <g transform="matrix(1,0,0,1,413.333,328.981)">
        <path d="M0,-100.766C-5.333,-121.1 -8.333,-131.433 -8.333,-131.433L-18.333,-128.433C-16.333,-117.766 -10.667,-95.433 -9,-77.433C-7.333,-59.433 -4.333,-17.434 -5,-1.1C-5.582,13.168 -7.436,25.906 -7.896,28.902C-6.812,29.255 -5.707,29.565 -4.583,29.817C-1.502,30.508 1.584,30.667 4.489,30.375C6.665,18.111 6.651,1.257 6,-26.1C5.333,-54.1 5.333,-80.432 0,-100.766" style="fill:rgb(218,203,200);fill-rule:nonzero;"/>
    </g>
    <g transform="matrix(1,0,0,1,495.666,198.277)">
        <path d="M0,7.938C0,7.938 -21.139,-6.692 -36.113,-8.333C-39.114,-4.033 -41,1.271 -41,1.271C-41.036,1.353 -41.074,1.443 -41.11,1.527C-31.375,4.345 -11.139,10.777 -5,16.271C0,12.271 0,7.938 0,7.938" style="fill:rgb(218,203,200);fill-rule:nonzero;"/>
    </g>
    <g transform="matrix(1,0,0,1,452.666,292.248)">
        <path d="M0,-21.366C-1.562,0.187 -4.002,56.279 -2.932,68.462C-1.698,68.593 -0.404,68.667 1,68.634C4.384,68.553 7.943,67.983 11.447,67.088C9.832,50.957 11.801,3.693 15,-26.701C18.333,-58.367 27.667,-87.367 27.667,-87.367L15,-90.033C13,-82.033 1.667,-44.365 0,-21.366" style="fill:rgb(218,203,200);fill-rule:nonzero;"/>
    </g>
    <g transform="matrix(1,0,0,1,424.499,155.798)">
        <path d="M0,-3.5C-4.25,-6 -8.75,-0.75 -8.25,6.25C-7.75,13.25 -3.875,18.5 0.625,15.75C-3.375,31 2.563,43.707 12.75,47.625C20.875,50.75 34.75,52.5 44.75,34.75C54.75,17 59.75,4 59.75,4C59.75,4 22.5,-56 0,-3.5" style="fill:rgb(201,116,64);fill-rule:nonzero;"/>
    </g>
    <g transform="matrix(-0.97926,0.202606,0.202606,0.97926,433.076,169.663)">
        <path d="M3.695,-12.753C4.619,-10.136 6.278,-3.969 6.062,-3.159C5.847,-2.349 4.978,-0.382 3.695,-1.648C2.411,-2.914 -1.43,-9.14 -1.43,-9.14L3.695,-12.753Z" style="fill:rgb(31,14,3);fill-rule:nonzero;"/>
    </g>
    <g transform="matrix(1,0,0,1,411.833,140.714)">
        <path d="M0,-2.333C-0.333,-4.667 5.333,-5.666 8.5,-6.166C11.167,-16.5 20.667,-32.333 36.333,-36.333C52,-40.333 67.001,-35.333 75.333,-20.666C83.667,-5.999 81.501,6.999 79.833,10.333C82.333,10.834 81.999,12.168 81.667,12.501C81.333,12.834 79.167,19.001 79.833,18.834C80.501,18.667 82.833,20.001 83.667,20.834C84.501,21.667 85.333,30.668 62.999,34.334C40.667,38 14,22.667 4,8.167C0.5,3.667 0,-2.333 0,-2.333" style="fill:rgb(255,188,69);fill-rule:nonzero;"/>
    </g>
    <g transform="matrix(1,0,0,1,466.314,178.896)">
        <path d="M0,1.686C-0.324,0.809 0.175,0.272 1.032,0.104C1.466,0.019 2.647,0.264 2.108,0.954C1.83,1.31 1.125,1.75 0.651,1.67C0.392,1.625 0.176,1.475 0.23,1.199C0.327,0.703 0.922,0.02 1.445,-0.043C1.927,-0.102 1.637,1.176 1.302,1.422C0.936,1.69 0.098,1.764 -0.211,1.361C-0.505,0.978 0.897,0.014 1.174,0.265C1.334,0.412 0.988,0.812 0.887,0.881C0.731,0.988 0.468,1.024 0.285,0.994C0.622,1.05 0.312,1.348 0.477,1.164C0.563,1.066 0.677,1.026 0.799,0.994C0.905,0.966 1.015,1.035 1.1,1.083C1.04,0.855 0.98,0.627 0.92,0.399C0.644,0.897 0.246,1.034 -0.281,1.17L0.352,1.652C0.373,1.445 0.521,1.249 0.617,1.071C0.924,0.504 0.06,-0.001 -0.247,0.566C-0.446,0.935 -0.605,1.231 -0.648,1.652C-0.682,1.984 -0.304,2.208 -0.015,2.134C0.762,1.934 1.382,1.628 1.784,0.904C1.916,0.667 1.844,0.358 1.604,0.22C0.846,-0.217 -0.549,0.117 -0.578,1.172C-0.609,2.291 0.994,2.089 1.575,1.611C2.168,1.123 2.464,0.089 1.828,-0.49C1.044,-1.204 -0.248,-0.358 -0.824,0.238C-1.347,0.779 -1.424,1.568 -0.869,2.11C-0.35,2.618 0.478,2.709 1.156,2.566C1.995,2.39 2.552,1.663 2.658,0.84C2.76,0.059 2.549,-0.919 1.634,-1.036C0.466,-1.186 -0.641,0.171 -0.776,1.211C-0.858,1.842 -0.373,2.366 0.182,2.567C1.072,2.89 2.081,2.359 2.726,1.757C3.245,1.273 3.355,0.446 2.982,-0.157C2.629,-0.727 1.905,-0.916 1.277,-0.915C-0.283,-0.913 -1.54,0.393 -0.964,1.952C-0.743,2.551 0.224,2.292 0,1.686" style="fill:rgb(31,14,3);fill-rule:nonzero;"/>
    </g>
    <g transform="matrix(1,0,0,1,457.499,189.061)">
        <path d="M0,-12.346C0.017,-9.819 0.149,-7.306 0.395,-4.791C0.534,-3.375 1.245,-1.717 -0.95,-1.097C-2.036,-0.791 -3.201,-0.805 -4.3,-0.495C-4.919,-0.32 -4.656,0.645 -4.034,0.469C-2.25,-0.034 1.198,0.329 1.631,-2.113C1.827,-3.219 1.41,-4.638 1.303,-5.735C1.087,-7.932 1.015,-10.14 1,-12.346C0.996,-12.991 -0.004,-12.991 0,-12.346" style="fill:rgb(31,14,3);fill-rule:nonzero;"/>
    </g>
    <g transform="matrix(-0.532251,0.846586,0.846586,0.532251,454.047,190.608)">
        <path d="M4.142,-9.431C6.484,-6.326 8.574,-1.442 4.817,1.596C4.318,1.999 3.64,1.265 4.142,0.858C7.424,-1.796 5.427,-6.074 3.404,-8.756C3.02,-9.266 3.753,-9.947 4.142,-9.431" style="fill:rgb(31,14,3);fill-rule:nonzero;"/>
    </g>
    <g transform="matrix(1,0,0,1,418.972,158.626)">
        <path d="M0,-20.633C0.928,-19.893 1.607,-18.941 2.411,-18.072C3.133,-17.291 4.082,-16.808 4.75,-15.954C5.032,-15.594 5.604,-15.91 5.604,-16.308C5.605,-17.865 5.619,-19.421 5.665,-20.977C5.73,-23.147 7.16,-21.681 8.124,-20.868C8.74,-20.348 9.365,-19.922 10.065,-19.519C11.961,-18.428 11.894,-15.976 11.819,-14.11C11.751,-12.42 11.542,-10.186 12.813,-8.82C14.87,-6.611 16.955,-4.324 19.166,-2.266C19.353,-2.091 19.691,-2.053 19.873,-2.266C21.607,-4.304 20.978,-6.999 21.639,-9.417C21.434,-9.3 21.229,-9.184 21.024,-9.068C22.546,-8.628 23.776,-7.761 25.164,-7.04C26.367,-6.415 27.75,-6.789 27.439,-4.5C27.133,-2.243 26.554,0.081 26.554,2.367C26.554,3.012 27.554,3.012 27.554,2.367L27.554,2.059C27.554,1.414 26.554,1.414 26.554,2.059L26.554,2.367C26.554,3.012 27.554,3.012 27.554,2.367C27.554,0.792 27.885,-0.886 28.118,-2.441C28.27,-3.451 29.027,-5.543 28.266,-6.529C27.797,-7.137 27.32,-7.347 26.58,-7.577C24.701,-8.161 23.194,-9.483 21.29,-10.032C21.028,-10.108 20.746,-9.943 20.675,-9.683C20.398,-8.671 20.333,-7.651 20.26,-6.607C20.203,-5.798 20.093,-5.01 19.892,-4.225C19.458,-2.533 17.913,-4.925 17.49,-5.383C16.339,-6.628 15.218,-7.882 13.975,-9.038C12.392,-10.512 12.769,-12.845 12.846,-14.782C12.935,-17.011 12.422,-19.024 10.57,-20.383C9.115,-21.449 7.106,-23.645 5.127,-23.324C4.902,-23.287 4.772,-23.047 4.76,-22.842C4.632,-20.665 4.606,-18.488 4.604,-16.308C4.889,-16.425 5.173,-16.544 5.458,-16.661C4.791,-17.513 3.935,-18.081 3.118,-18.779C2.219,-19.548 1.643,-20.594 0.707,-21.34C0.208,-21.738 -0.504,-21.035 0,-20.633" style="fill:rgb(31,14,3);fill-rule:nonzero;"/>
    </g>
    <g transform="matrix(1,0,0,1,454.146,163.193)">
        <path d="M0,-59.958C4.347,-56.069 6.972,-51.88 7.986,-46.076C8.972,-40.426 8.903,-34.53 8.406,-28.839C7.558,-19.137 5.02,-8.056 -0.578,0.103C-0.944,0.636 -0.077,1.136 0.285,0.608C6.205,-8.02 8.591,-19.521 9.485,-29.752C9.994,-35.563 9.794,-41.508 8.791,-47.257C7.816,-52.837 4.846,-56.962 0.707,-60.665C0.228,-61.094 -0.481,-60.389 0,-59.958" style="fill:rgb(31,14,3);fill-rule:nonzero;"/>
    </g>
    <g transform="matrix(1,0,0,1,477.851,166.425)">
        <path d="M0,-58.077C1.162,-53.121 3.149,-48.564 3.618,-43.441C4.059,-38.62 3.656,-33.577 3.103,-28.781C2.512,-23.661 1.16,-18.64 -0.308,-13.713C-1.636,-9.254 -2.601,-4.082 -5.117,-0.129C-5.423,0.35 -4.718,0.894 -4.332,0.477C-4.065,0.189 -3.971,0.053 -3.754,-0.291C-3.409,-0.839 -4.274,-1.34 -4.617,-0.796C-4.758,-0.608 -4.898,-0.419 -5.039,-0.23C-4.777,-0.028 -4.516,0.173 -4.254,0.376C-1.812,-3.461 -0.934,-8.268 0.391,-12.57C1.93,-17.57 3.305,-22.673 3.983,-27.869C4.653,-32.99 4.97,-38.284 4.618,-43.441C4.262,-48.648 2.142,-53.323 0.965,-58.343C0.817,-58.971 -0.146,-58.704 0,-58.077" style="fill:rgb(31,14,3);fill-rule:nonzero;"/>
    </g>
    <g transform="matrix(0.987902,0.155079,0.155079,-0.987902,483.856,164.086)">
        <path d="M0.839,-0.061C2.643,3.131 1.992,7.282 1.827,10.785C1.798,11.428 0.81,11.266 0.839,10.63C0.989,7.449 1.673,3.433 0.031,0.528C-0.284,-0.027 0.522,-0.622 0.839,-0.061" style="fill:rgb(31,14,3);fill-rule:nonzero;"/>
    </g>
    <g transform="matrix(1,0,0,1,486.918,157.379)">
        <path d="M0,-3.066C1.498,-3.792 3.038,-4.423 4.489,-5.244C4.99,-5.528 6.059,-5.061 5.939,-4.328C5.821,-3.604 5.468,-2.903 5.15,-2.25C4.844,-1.62 4.729,-0.812 4.514,-0.143C4.304,0.51 4.075,2.001 3.563,2.483C3.092,2.925 3.801,3.631 4.27,3.19C4.96,2.54 5.196,0.979 5.478,0.123C5.936,-1.267 6.533,-2.651 6.903,-4.062C7.328,-5.677 6.167,-5.818 5,-6.429C4.489,-6.697 3.848,-6.03 3.452,-5.807C2.185,-5.089 0.805,-4.564 -0.504,-3.929C-1.084,-3.648 -0.577,-2.786 0,-3.066" style="fill:rgb(31,14,3);fill-rule:nonzero;"/>
    </g>
    <g transform="matrix(1,0,0,1,445.148,172.784)">
        <path d="M0,3.298C-0.333,2.244 0.542,0.826 1.685,0.764C2.641,0.712 3.051,1.532 2.692,2.346C2.384,3.045 1.279,3.789 0.553,3.213C-0.331,2.512 1.141,1.546 1.688,1.327C2.966,0.816 2.248,2.416 1.654,2.772C1.452,2.892 1.243,2.88 1.027,2.811C0.552,2.661 0.6,2.252 0.804,1.891C0.91,1.705 1.083,1.573 1.263,1.466C1.359,1.41 1.89,1.368 1.873,1.457C1.788,1.887 1.071,2.24 0.685,2.264L1.185,2.764C1.2,2.461 1.329,2.194 1.628,2.088C1.952,1.973 1.43,2.35 1.537,1.705C1.516,1.831 1.065,2.245 0.95,2.011C0.665,1.433 -0.198,1.94 0.086,2.516C0.825,4.014 3.196,2.31 2.358,1.321C2.03,0.934 1.464,1.065 1.068,1.245C0.481,1.513 0.215,2.161 0.185,2.764C0.172,3.024 0.422,3.28 0.685,3.264C1.674,3.202 3.101,2.308 2.836,1.153C2.711,0.608 2.035,0.422 1.561,0.391C0.963,0.351 0.346,0.794 0.024,1.264C-0.669,2.277 -0.332,3.43 0.853,3.805C1.677,4.065 2.437,3.555 2.914,2.928C3.334,2.376 3.581,1.496 3.268,0.841C2.874,0.018 1.869,0.155 1.178,0.463C0.091,0.948 -0.879,1.843 -0.625,3.134C-0.383,4.358 1.148,4.581 2.119,4.192C3.716,3.552 4.587,1.138 2.923,0.066C0.833,-1.283 -1.606,1.532 -0.964,3.564C-0.771,4.176 0.195,3.915 0,3.298" style="fill:rgb(31,14,3);fill-rule:nonzero;"/>
    </g>
    <g transform="matrix(1,0,0,1,445.479,168.683)">
        <path d="M0,-7.114C3.874,-2.489 11.097,-1.409 16.637,-0.028C20.187,0.858 23.712,0.92 27.346,1.068C30.612,1.202 33.554,0.137 36.653,-0.778C37.271,-0.96 37.008,-1.925 36.388,-1.741C33.711,-0.952 30.976,0.166 28.146,0.115C24.355,0.048 20.606,-0.132 16.903,-0.992C11.57,-2.23 4.387,-3.428 0.707,-7.821C0.292,-8.316 -0.411,-7.605 0,-7.114" style="fill:rgb(31,14,3);fill-rule:nonzero;"/>
    </g>
    <g transform="matrix(1,0,0,1,415.851,163.927)">
        <path d="M0,-25.913C2.523,-19.921 7.931,-15.885 12.348,-11.33C17.158,-6.37 22.238,-2.076 28.682,0.603C29.277,0.851 29.534,-0.117 28.948,-0.361C22.685,-2.965 17.732,-7.226 13.055,-12.038C8.792,-16.423 3.396,-20.405 0.964,-26.179C0.718,-26.764 -0.25,-26.507 0,-25.913" style="fill:rgb(31,14,3);fill-rule:nonzero;"/>
    </g>
    <g transform="matrix(0.670853,0.741591,0.741591,-0.670853,485.017,163.251)">
        <path d="M3.235,-1.487C3.577,1.405 4.016,4.282 4.233,7.186C4.28,7.829 3.282,7.771 3.235,7.136C3.023,4.316 2.589,1.524 2.257,-1.282C2.181,-1.916 3.16,-2.129 3.235,-1.487" style="fill:rgb(31,14,3);fill-rule:nonzero;"/>
    </g>
    <g transform="matrix(1,0,0,1,473.146,148.246)">
        <path d="M0,-40.178C3.689,-35.499 3.859,-27.983 4.483,-22.29C5.312,-14.735 4.696,-6.911 2.371,0.336C2.174,0.951 3.14,1.213 3.336,0.601C5.798,-7.075 6.258,-15.23 5.383,-23.211C4.75,-28.976 4.438,-36.153 0.707,-40.885C0.308,-41.391 -0.395,-40.678 0,-40.178" style="fill:rgb(31,14,3);fill-rule:nonzero;"/>
    </g>
    <g transform="matrix(1,0,0,1,419.767,349.446)">
        <path d="M0,-154.265C2.48,-148.241 5.544,-142.475 7.883,-136.391C10.167,-130.452 11.442,-124.145 12.648,-117.916C13.866,-111.628 15.177,-105.353 16.351,-99.057C17.73,-91.656 17.24,-84.816 16.394,-77.405C15.648,-70.881 15.811,-64.273 15.324,-57.727C14.826,-51.031 14.921,-44.399 15.192,-37.691C15.46,-31.072 15.713,-24.466 15.36,-17.845C15.043,-11.906 15.435,-5.803 13.75,-0.03C13.569,0.59 14.534,0.854 14.714,0.236C16.207,-4.876 16.125,-10.307 16.275,-15.583C16.466,-22.337 16.545,-29.014 16.271,-35.77C15.988,-42.768 15.61,-49.8 16.247,-56.787C16.871,-63.646 16.67,-70.555 17.394,-77.405C18.082,-83.916 18.718,-90.011 17.78,-96.544C16.823,-103.2 15.197,-109.789 13.953,-116.398C12.72,-122.943 11.391,-129.493 9.169,-135.786C6.897,-142.221 3.56,-148.227 0.964,-154.531C0.722,-155.119 -0.246,-154.861 0,-154.265" style="fill:rgb(31,14,3);fill-rule:nonzero;"/>
    </g>
    <g transform="matrix(1,0,0,1,439.988,206.725)">
        <path d="M0,47.296C-0.167,45.278 0.196,43.341 0.514,41.354C0.847,39.277 0.902,37.186 1.287,35.108C2.021,31.146 3.277,27.238 4.257,23.329C5.26,19.331 6.312,15.348 7.563,11.42C8.779,7.599 10.619,4.041 11.837,0.234C12.035,-0.381 11.069,-0.643 10.874,-0.031C9.754,3.464 8.077,6.768 6.895,10.252C5.47,14.453 4.376,18.764 3.292,23.063C2.23,27.28 0.946,31.48 0.154,35.757C-0.227,37.809 -0.26,39.901 -0.59,41.961C-0.876,43.75 -1.15,45.477 -1,47.296C-0.947,47.934 0.053,47.939 0,47.296" style="fill:rgb(31,14,3);fill-rule:nonzero;"/>
    </g>
    <g transform="matrix(1,0,0,1,385.085,198.103)">
        <path d="M0,10.211C4.549,7.335 10.145,6.056 15.216,4.361C20.383,2.635 25.755,1.97 31.047,0.761C31.676,0.618 31.409,-0.346 30.781,-0.203C25.169,1.079 19.542,1.863 14.062,3.694C9.175,5.327 3.888,6.571 -0.505,9.348C-1.048,9.691 -0.547,10.557 0,10.211" style="fill:rgb(31,14,3);fill-rule:nonzero;"/>
    </g>
    <g transform="matrix(0.359342,0.933206,0.933206,-0.359342,384.515,182.349)">
        <path d="M12.11,-8.338C10.781,0.256 12.789,9.129 13.105,17.761C13.129,18.402 12.134,18.505 12.11,17.86C11.791,9.129 9.776,0.2 11.123,-8.499C11.222,-9.136 12.209,-8.977 12.11,-8.338" style="fill:rgb(31,14,3);fill-rule:nonzero;"/>
    </g>
    <g transform="matrix(1,0,0,1,463.666,212.536)">
        <path d="M0,-9.487C4.264,-8.985 8.488,-6.752 12.535,-5.339C16.996,-3.781 21.234,-1.395 25.416,0.778C25.987,1.075 26.493,0.212 25.919,-0.086C21.88,-2.185 17.831,-4.257 13.615,-5.983C11.136,-6.998 8.542,-7.673 6.085,-8.753C4.117,-9.618 2.139,-10.235 0,-10.487C-0.64,-10.562 -0.632,-9.561 0,-9.487" style="fill:rgb(31,14,3);fill-rule:nonzero;"/>
    </g>
    <g transform="matrix(1,0,0,1,473.248,204.84)">
        <path d="M0,-10.193C3.36,-8.453 6.726,-6.741 10.068,-4.969C13.469,-3.167 16.988,-1.884 19.898,0.729C20.377,1.159 21.086,0.453 20.605,0.022C18.074,-2.251 15.099,-3.653 12.052,-5.101C8.158,-6.951 4.337,-9.072 0.504,-11.056C-0.067,-11.352 -0.573,-10.489 0,-10.193" style="fill:rgb(31,14,3);fill-rule:nonzero;"/>
    </g>
    <g transform="matrix(1,0,0,1,495.646,250.397)">
        <path d="M0,-53.368C-1.166,-52.426 -1.765,-50.971 -2.506,-49.701C-3.664,-47.72 -4.681,-45.633 -5.693,-43.575C-7.768,-39.36 -9.268,-34.642 -10.775,-30.201C-12.392,-25.441 -13.579,-20.543 -15.016,-15.727C-16.512,-10.714 -16.947,-5.481 -18.463,-0.48C-18.65,0.138 -17.685,0.401 -17.498,-0.215C-16.163,-4.62 -15.795,-9.231 -14.597,-13.67C-13.29,-18.512 -11.868,-23.359 -10.388,-28.152C-9.065,-32.431 -7.402,-36.646 -5.794,-40.827C-4.888,-43.184 -3.656,-45.42 -2.487,-47.655C-1.652,-49.251 -0.715,-51.512 0.707,-52.661C1.209,-53.066 0.497,-53.769 0,-53.368" style="fill:rgb(31,14,3);fill-rule:nonzero;"/>
    </g>
    <g transform="matrix(1,0,0,1,388.914,355.886)">
        <path d="M0,-9.906C6.182,-6.272 12.269,-2.281 19.313,-0.544C26.347,1.19 33.219,-0.663 39.505,-3.906C40.078,-4.202 39.572,-5.064 39,-4.769C32.296,-1.31 25.443,0.124 18.061,-1.904C11.724,-3.644 6.109,-7.475 0.505,-10.769C-0.052,-11.096 -0.555,-10.232 0,-9.906" style="fill:rgb(31,14,3);fill-rule:nonzero;"/>
    </g>
    <g transform="matrix(1,0,0,1,437.813,356.745)">
        <path d="M0,-5.843C4.816,-1.401 10.517,1.399 17.18,0.508C20.546,0.057 23.79,-1.12 27.052,-2.016C30.86,-3.061 34.553,-4.365 38.105,-6.098C38.685,-6.38 38.178,-7.242 37.601,-6.961C31.914,-4.188 25.663,-2.46 19.53,-0.961C12.278,0.812 6.07,-1.604 0.707,-6.55C0.234,-6.987 -0.475,-6.281 0,-5.843" style="fill:rgb(31,14,3);fill-rule:nonzero;"/>
    </g>
    <g transform="matrix(1,0,0,1,380.313,246.987)">
        <path d="M0,-53.752C2.757,-50.393 4.078,-46.15 5.83,-42.229C7.753,-37.92 9.066,-33.42 10.322,-28.881C11.615,-24.205 12.621,-19.446 13.02,-14.606C13.435,-9.567 12.707,-4.46 12.354,0.561C12.308,1.206 13.309,1.201 13.354,0.561C13.709,-4.493 14.296,-9.532 14.02,-14.606C13.752,-19.522 12.562,-24.412 11.286,-29.147C10.037,-33.781 8.625,-38.336 6.693,-42.733C4.927,-46.753 3.526,-51.025 0.707,-54.459C0.297,-54.958 -0.406,-54.246 0,-53.752" style="fill:rgb(31,14,3);fill-rule:nonzero;"/>
    </g>
    <g transform="matrix(-0.965129,0.261773,0.261773,0.965129,672.786,523.325)">
        <path d="M9.366,-72.248C11.386,-62.919 27.952,-3.723 27.952,-3.723L9.366,0.296L-8.79,-66.642L9.366,-72.248Z" style="fill:rgb(64,29,6);fill-rule:nonzero;"/>
    </g>
    <g transform="matrix(-0.966043,0.258382,0.258382,0.966043,700.813,515.622)">
        <path d="M9.366,-73.231C11.388,-63.766 27.969,-3.676 27.969,-3.676L9.366,0.265L-8.807,-67.681L9.366,-73.231Z" style="fill:rgb(64,29,6);fill-rule:nonzero;"/>
    </g>
    <g transform="matrix(-0.970576,0.240793,0.240793,0.970576,338.912,520.162)">
        <path d="M8.566,-72.047C10.424,-62.687 25.663,-3.136 25.663,-3.136L8.566,0.09L-8.134,-67.227L8.566,-72.047Z" style="fill:rgb(64,29,6);fill-rule:nonzero;"/>
    </g>
    <g transform="matrix(-0.971353,0.23764,0.23764,0.971353,367.306,518.953)">
        <path d="M8.566,-73.033C10.425,-63.536 25.676,-3.095 25.676,-3.095L8.566,0.061L-8.148,-68.258L8.566,-73.033Z" style="fill:rgb(64,29,6);fill-rule:nonzero;"/>
    </g>
    <g transform="matrix(1,0,0,1,702.25,438.972)">
        <path d="M0,-24.674C-4.25,-25.424 -24.5,-27.174 -43.5,-25.924C-62.5,-24.674 -355.5,-25.924 -355.5,-25.924C-355.5,-25.924 -369.75,-23.424 -384.75,-19.924C-399.75,-16.424 -415.917,-7.257 -416.083,-1.257C-416.188,2.5 -377.75,-2.674 -377.75,-2.674L-18,-0.924L-4.25,-6.674L0,-24.674Z" style="fill:rgb(219,160,55);fill-rule:nonzero;"/>
    </g>
    <g transform="matrix(1,0,0,1,684.666,451.966)">
        <path d="M0,-16.085C3.5,-18.585 15.584,-37.418 17.584,-37.668C19.584,-37.918 20.334,-36.918 20.584,-27.418C20.834,-17.918 20.834,-5.668 20.584,-2.418C20.334,0.832 19.584,2.332 15.084,9.082C10.584,15.832 1,21.833 0,21.083C-1,20.333 0,-16.085 0,-16.085" style="fill:rgb(219,160,55);fill-rule:nonzero;"/>
    </g>
    <g transform="matrix(1,0,0,1,285.499,467.525)">
        <path d="M0,-27.026C0,-16.308 0.5,-10.251 1,-1.864C1.5,6.524 7.5,4.194 17,4.66C26.5,5.125 363.997,5.715 379.5,6.058C400.667,6.525 401.5,7.921 402,1.864C402.5,-4.194 401,-26.559 401,-30.287C401,-34.014 399.25,-32.151 391.5,-32.151C381.487,-32.151 26,-34.947 11.5,-34.481C0.5,-34.015 0.5,-30.754 0,-27.026" style="fill:rgb(255,188,69);fill-rule:nonzero;"/>
    </g>
    <g transform="matrix(-0.968625,-0.248529,-0.248529,0.968625,663.506,409.777)">
        <path d="M-18.311,-19.646C-23.006,-18.786 -23.17,-14.955 -22.157,-8.846C-21.143,-2.736 -21.092,-1.26 -18.311,-0.03C-15.529,1.2 1.614,3.792 1.614,3.792C1.614,3.792 -5.986,-18.72 -18.311,-19.646" style="fill:rgb(157,176,186);fill-rule:nonzero;"/>
    </g>
    <g transform="matrix(1,0,0,1,681.25,413.025)">
        <path d="M0,-12.352C-0.625,-12.602 -2.75,-13.852 -6,-12.852C-8.305,-11.645 -16.195,-2.155 -18.088,0.145C-14.244,0.353 -5.523,1.5 -1.625,1.398C-2.313,0.619 -4.471,-2.092 -4.375,-4.852C-4.215,-9.5 -3.625,-11.352 0,-12.352" style="fill:rgb(189,204,212);fill-rule:nonzero;"/>
    </g>
    <g transform="matrix(1,0,0,1,317.999,399.214)">
        <path d="M0,18.834C13,15.334 25,10.334 25.5,1.834C26,-6.666 23,-10.166 20,-13.166C17,-16.166 25.5,-13.666 37,-12.166C48.5,-10.666 86,1.334 115,7.334C144,13.334 227,14.334 256.5,7.334C286,0.334 327,-7.998 345.667,-7.332C364.333,-6.666 368.667,-3.666 368.667,-3.666C362.667,-3.666 358.999,1 351.333,10.667C343.667,20.334 332,31.001 327.667,32.334C301.334,35 263.999,31.667 242,31.667C220,31.667 91.5,28.667 69.5,29.334C47.5,30.001 7.667,22.334 0,18.834" style="fill:rgb(189,204,212);fill-rule:nonzero;"/>
    </g>
    <g transform="matrix(1,0,0,1,389.999,403.298)">
        <path d="M0,24.75C-11.25,24.75 -42,21.25 -56.75,13.75C-71.5,6.25 -84.5,-0.75 -87,-1.75C-89.5,-2.75 -93.25,7.75 -85.75,14.5C-78.25,21.25 -62,21.25 -53.75,22.5C-45.5,23.75 -7.5,27.5 0,24.75" style="fill:rgb(157,176,186);fill-rule:nonzero;"/>
    </g>
    <g transform="matrix(1,0,0,1,596.168,429.881)">
        <path d="M0,2.001C6,1.667 37.5,0.167 44.666,-2.833C46.498,0.167 47.998,2.167 50.166,1.334C47.332,4.834 21.834,2.335 0,2.001" style="fill:rgb(157,176,186);fill-rule:nonzero;"/>
    </g>
    <g transform="matrix(1,0,0,1,681.857,405.501)">
        <path d="M0,3.305C0.825,1.201 1.821,-0.841 1.022,-3.09C0.555,-4.407 -1.035,-5.403 -2.396,-4.824C-6.165,-3.223 -5.748,3.061 -4.88,6.335C-3.836,10.277 0.148,10.096 2.518,7.59C6.001,3.904 7.524,-1.382 7.268,-6.328C7.234,-6.969 6.234,-6.972 6.268,-6.328C6.447,-2.87 5.891,0.119 4.211,3.17C3.063,5.255 1.604,8.365 -1.102,8.571C-4.756,8.848 -4.343,2.883 -4.232,0.672C-4.237,0.046 -4.182,-0.576 -4.063,-1.192C-3.803,-2.763 -1.156,-6.243 0.291,-2.167C0.843,-0.615 -0.409,1.624 -0.965,3.039C-1.2,3.64 -0.233,3.899 0,3.305" style="fill:rgb(31,14,3);fill-rule:nonzero;"/>
    </g>
    <g transform="matrix(1,0,0,1,291.306,457.996)">
        <path d="M0,-14.298C6.783,-16.062 13.747,-15.471 20.661,-15.11C27.385,-14.759 34.084,-15.037 40.805,-15.306C47.883,-15.588 54.97,-15.58 61.912,-14C65.167,-13.259 74.529,-10.819 73.486,-6.072C72.532,-1.73 64.243,-2.03 60.998,-2.215C54.481,-2.587 47.884,-2.861 41.355,-2.929C34.521,-3 27.915,-1.726 21.182,-0.746C13.569,0.36 5.922,1.211 -1.754,1.72C-2.395,1.762 -2.398,2.763 -1.754,2.72C6.013,2.205 13.743,1.32 21.448,0.218C25.581,-0.373 29.696,-1.186 33.848,-1.621C37.88,-2.045 41.955,-1.966 46,-1.813C52.374,-1.57 58.861,-0.846 65.238,-1.217C68.658,-1.416 73.684,-2.318 74.555,-6.284C75.34,-9.859 70.262,-12.136 67.747,-13.167C61.558,-15.703 54.856,-16.373 48.221,-16.453C40.552,-16.547 32.893,-15.903 25.22,-15.952C17.873,-15.998 10.583,-17.061 3.256,-16.015C2.066,-15.845 0.896,-15.565 -0.266,-15.263C-0.89,-15.101 -0.625,-14.136 0,-14.298" style="fill:rgb(31,14,3);fill-rule:nonzero;"/>
    </g>
    <g transform="matrix(1,0,0,1,287.166,452.374)">
        <path d="M0,-1.659C6.632,-2.489 13.152,-4.909 19.893,-4.659C23.634,-4.52 27.437,-3.889 31.179,-4.014C32.577,-4.06 33.964,-4.124 35.363,-4.058C36.11,-4.023 36.839,-3.884 37.56,-3.689C39.064,-3.284 38.208,-2.477 37.492,-1.825C33.402,1.904 26.134,0.831 21.093,0.669C14.054,0.443 7.361,3.079 0.333,2.841C-0.312,2.82 -0.31,3.82 0.333,3.841C4.665,3.987 8.796,3.073 13.029,2.29C16.742,1.603 20.314,1.643 24.059,1.775C29.546,1.969 36.231,2.034 39.776,-2.907C39.907,-3.088 39.845,-3.364 39.698,-3.513C38.107,-5.125 35.591,-5.107 33.475,-5.095C29.886,-5.073 26.342,-5.248 22.751,-5.447C19.135,-5.646 15.817,-5.593 12.239,-4.978C8.146,-4.277 4.125,-3.176 0,-2.659C-0.631,-2.58 -0.639,-1.579 0,-1.659" style="fill:rgb(31,14,3);fill-rule:nonzero;"/>
    </g>
    <g transform="matrix(1,0,0,1,289.685,444.486)">
        <path d="M0,24.213C16.078,20.775 32.07,20.014 48.442,21.144C56.467,21.697 64.475,22.453 72.52,22.648C80.065,22.831 87.536,22.213 94.987,21.057C110.151,18.704 124.878,14.158 139.673,10.205C155.113,6.079 170.487,3.28 186.458,2.342C201.622,1.451 216.824,1.609 231.995,0.897C232.636,0.866 232.639,-0.134 231.995,-0.103C215.854,0.654 199.68,0.476 183.551,1.522C168.187,2.519 153.369,5.51 138.517,9.479C123.707,13.436 108.997,17.878 93.818,20.233C77.676,22.736 61.725,20.984 45.547,19.951C30.096,18.964 14.877,20.01 -0.266,23.248C-0.896,23.383 -0.629,24.347 0,24.213" style="fill:rgb(31,14,3);fill-rule:nonzero;"/>
    </g>
    <g transform="matrix(1,0,0,1,427.019,458.824)">
        <path d="M0,7.411C4.83,3.638 10.692,2.111 16.523,0.618C22.648,-0.949 28.788,-2.385 35.022,-3.454C47.741,-5.635 60.929,-6.331 73.819,-6.006C86.407,-5.69 98.956,-3.986 111.132,-0.774C117.314,0.858 123.202,2.992 128.941,5.812C134.595,8.592 140.057,11.742 145.729,14.489C146.306,14.769 146.814,13.907 146.233,13.626C140.562,10.879 135.083,7.762 129.446,4.949C123.642,2.054 117.653,-0.043 111.398,-1.737C98.861,-5.132 85.862,-6.703 72.895,-7.029C59.892,-7.358 46.638,-6.456 33.817,-4.257C27.357,-3.15 21.004,-1.565 14.66,0.063C9.161,1.474 3.824,3.164 -0.707,6.704C-1.215,7.1 -0.502,7.804 0,7.411" style="fill:rgb(31,14,3);fill-rule:nonzero;"/>
    </g>
    <g transform="matrix(1,0,0,1,467.252,464.861)">
        <path d="M0,1.12C10.587,-5.526 23.808,-6.071 35.962,-5.433C42.479,-5.09 48.941,-3.606 54.996,-1.191C61.265,1.309 66.64,5.473 72.828,8.12C73.414,8.371 73.924,7.51 73.332,7.257C67.337,4.691 62.101,0.708 56.076,-1.815C49.667,-4.498 42.885,-5.969 35.962,-6.433C23.73,-7.251 10.122,-6.415 -0.505,0.257C-1.049,0.599 -0.548,1.464 0,1.12" style="fill:rgb(31,14,3);fill-rule:nonzero;"/>
    </g>
    <g transform="matrix(1,0,0,1,679.082,449.254)">
        <path d="M0,0.862C-8.867,5.571 -19.018,5.747 -28.794,4.873C-39.291,3.933 -49.848,2.22 -60.241,0.504C-71.408,-1.342 -82.527,-3.485 -93.782,-4.744C-99.512,-5.385 -105.334,-5.927 -111.096,-5.529C-116.662,-5.144 -122.149,-3.862 -127.549,-2.522C-128.175,-2.367 -127.909,-1.402 -127.283,-1.557C-121.321,-3.036 -115.327,-4.327 -109.176,-4.644C-103.439,-4.939 -97.552,-4.188 -91.861,-3.525C-80.072,-2.151 -68.423,0.218 -56.708,2.085C-46.93,3.641 -37.021,5.201 -27.15,6.013C-17.738,6.789 -7.981,6.232 0.504,1.725C1.074,1.423 0.568,0.559 0,0.862" style="fill:rgb(31,14,3);fill-rule:nonzero;"/>
    </g>
    <g transform="matrix(1,0,0,1,684.201,444.9)">
        <path d="M0,-1.166C-6.695,0.969 -12.902,3.338 -20.031,3.228C-25.028,3.15 -32.295,2.57 -35.104,-2.27C-35.163,-2.042 -35.223,-1.813 -35.283,-1.586C-30.585,-4.661 -24,-3.325 -18.716,-3.159C-12.004,-2.947 -5.259,-4.145 1.465,-4.184C2.109,-4.187 2.109,-5.187 1.465,-5.184C-5.49,-5.144 -12.443,-3.961 -19.39,-4.18C-24.7,-4.348 -31.056,-5.548 -35.787,-2.449C-36.016,-2.3 -36.109,-2.01 -35.967,-1.766C-33.312,2.811 -27.221,3.739 -22.412,4.119C-19.645,4.337 -16.706,4.382 -13.957,3.95C-9.048,3.18 -4.445,1.301 0.266,-0.201C0.878,-0.396 0.616,-1.362 0,-1.166" style="fill:rgb(31,14,3);fill-rule:nonzero;"/>
    </g>
    <g transform="matrix(1,0,0,1,663.431,394.646)">
        <path d="M0,23.155C1.101,20.858 3.291,18.624 4.859,16.61C6.448,14.57 8.204,12.652 9.901,10.702C13.168,6.95 18.885,0.133 24.482,2.668C25.064,2.931 25.573,2.07 24.986,1.804C19.719,-0.582 14.838,4.031 11.396,7.574C9.059,9.977 6.862,12.586 4.734,15.174C2.827,17.493 0.436,19.941 -0.863,22.651C-1.141,23.229 -0.278,23.737 0,23.155" style="fill:rgb(31,14,3);fill-rule:nonzero;"/>
    </g>
    <g transform="matrix(1,0,0,1,683.498,471.897)">
        <path d="M0,-9.28C-4.99,-6.34 -11.111,-6.402 -16.729,-6.395C-23.174,-6.387 -29.618,-6.299 -36.063,-6.292C-50.071,-6.277 -63.718,-5.055 -77.131,-0.831C-77.744,-0.637 -77.482,0.328 -76.865,0.134C-62.543,-4.377 -48.03,-5.305 -33.104,-5.292C-26.901,-5.286 -20.699,-5.347 -14.498,-5.407C-9.406,-5.456 -3.984,-5.771 0.504,-8.417C1.06,-8.744 0.557,-9.608 0,-9.28" style="fill:rgb(31,14,3);fill-rule:nonzero;"/>
    </g>
    <g transform="matrix(1,0,0,1,687.182,416.292)">
        <path d="M0,17.758C2.313,14.569 5.379,12.103 8.172,9.36C11.12,6.463 13.789,3.32 16.922,0.61C17.41,0.187 16.7,-0.517 16.215,-0.097C13.087,2.609 10.368,5.717 7.465,8.653C4.642,11.507 1.511,13.979 -0.863,17.254C-1.242,17.777 -0.375,18.275 0,17.758" style="fill:rgb(31,14,3);fill-rule:nonzero;"/>
    </g>
    <g transform="matrix(1,0,0,1,357.249,423.715)">
        <path d="M0,-171.917C-2,-160.667 -3,-125.917 -0.75,-105.167C1.5,-84.417 11.583,-37.334 11.583,-34.834C11.583,-32.334 10.917,-26 2.583,-17.5C-4.8,-9.968 -12.833,-3.167 -10.583,-2.667C-8.333,-2.167 -6.083,0 -0.25,-1.5C16.726,-5.865 25.5,-18.334 28.75,-16.834C32,-15.334 35.75,-5.5 38.25,-5.834C40.569,-6.144 36.25,-18.167 32.5,-31.167C28.75,-44.167 30.75,-85.417 30.75,-113.417C30.75,-141.417 29.25,-170.167 29.25,-170.167L0,-171.917Z" style="fill:rgb(201,116,64);fill-rule:nonzero;"/>
    </g>
    <g transform="matrix(1,0,0,1,353.752,406.618)">
        <path d="M0,16.195C3.623,14.063 7.624,12.377 10.948,9.776C14.634,6.894 18.146,3.753 21.768,0.784C22.267,0.375 21.555,-0.328 21.061,0.077C17.865,2.697 14.723,5.355 11.562,8.015C7.943,11.061 3.544,12.949 -0.505,15.332C-1.06,15.659 -0.557,16.523 0,16.195" style="fill:rgb(31,14,3);fill-rule:nonzero;"/>
    </g>
    <g transform="matrix(1,0,0,1,350.186,405.821)">
        <path d="M0,16.081C2.921,12.925 6.558,10.601 10.065,8.159C11.964,6.838 13.91,5.554 15.843,4.282C17.69,3.066 19.386,1.599 21.399,0.659C21.983,0.387 21.475,-0.475 20.894,-0.204C16.867,1.675 13.324,4.921 9.561,7.296C5.935,9.584 2.214,12.218 -0.707,15.374C-1.145,15.847 -0.439,16.556 0,16.081" style="fill:rgb(31,14,3);fill-rule:nonzero;"/>
    </g>
    <g transform="matrix(0.682789,0.730616,0.730616,-0.682789,345.89,410.231)">
        <path d="M9.553,-4.187C8.228,4.565 10.686,13.292 10.552,22.025C10.543,22.671 9.543,22.636 9.553,21.991C9.686,13.258 7.228,4.537 8.553,-4.221C8.648,-4.851 9.649,-4.825 9.553,-4.187" style="fill:rgb(31,14,3);fill-rule:nonzero;"/>
    </g>
    <g transform="matrix(-0.92339,-0.383863,-0.383863,0.92339,348.542,261.901)">
        <path d="M1.172,-74.349C5.234,-69.141 17.052,-57.189 6.682,-14.661C6.185,-12.161 3.961,-3.339 1.172,-3.144C-1.616,-2.949 -26.226,-4.968 -35.58,-13.73C-36.532,-25.767 -17.9,-68.199 1.172,-74.349" style="fill:rgb(255,176,38);fill-rule:nonzero;"/>
    </g>
    <g transform="matrix(-0.238348,0.97118,0.97118,0.238348,372.925,242.339)">
        <path d="M15.436,-19.439C16.722,-8.848 18.874,1.749 16.407,12.341C16.261,12.969 15.29,12.73 15.436,12.103C17.881,1.601 15.711,-8.914 14.436,-19.411C14.358,-20.052 15.358,-20.073 15.436,-19.439" style="fill:rgb(31,14,3);fill-rule:nonzero;"/>
    </g>
    <g transform="matrix(1,0,0,1,514.666,422.881)">
        <path d="M0,-176C0,-176 1.668,-159.333 2.668,-134C3.668,-108.667 -5,-48 1.334,-31.333C7.666,-14.666 19,-5.666 19.334,-0.333C19.666,5 5.668,2 -14.332,-14.333C-12.332,3 -15.666,0.334 -18.334,-7C-22,-15.667 -29.666,-60 -29,-90.666C-28.332,-121.332 -32,-151.666 -32.332,-167.333C-31.666,-171.666 -1.666,-181 0,-176" style="fill:rgb(201,116,64);fill-rule:nonzero;"/>
    </g>
    <g transform="matrix(1,0,0,1,508.818,422.989)">
        <path d="M0,-17.439C2.646,-13.757 6.274,-11.046 9.514,-7.928C12.227,-5.316 13.947,-0.957 17.43,0.741C18.007,1.022 18.514,0.16 17.934,-0.123C14.782,-1.659 13.132,-5.607 10.762,-8.093C7.535,-11.478 3.62,-14.109 0.863,-17.943C0.49,-18.461 -0.377,-17.963 0,-17.439" style="fill:rgb(31,14,3);fill-rule:nonzero;"/>
    </g>
    <g transform="matrix(1,0,0,1,513.646,423.265)">
        <path d="M0,-18.113C4.018,-14.872 7.523,-10.904 10.525,-6.715C11.942,-4.736 13.406,-2.712 14.688,-0.646C15.014,-0.121 15.388,0.95 16.104,1.033C16.743,1.108 16.736,0.107 16.104,0.033C16.551,0.085 15.725,-0.87 15.552,-1.151C15.055,-1.957 14.482,-2.7 13.932,-3.468C12.665,-5.236 11.559,-7.113 10.207,-8.82C7.344,-12.439 4.309,-15.914 0.707,-18.82C0.21,-19.221 -0.502,-18.518 0,-18.113" style="fill:rgb(31,14,3);fill-rule:nonzero;"/>
    </g>
    <g transform="matrix(1,0,0,1,516.896,422.898)">
        <path d="M0,-19.496C5.994,-13.458 11.356,-6.847 15.422,0.652C15.71,0.484 15.997,0.316 16.285,0.149C16.034,-0.197 15.953,-0.314 15.605,-0.531C15.058,-0.874 14.556,-0.009 15.102,0.332C15.208,0.44 15.314,0.546 15.422,0.652C15.795,1.165 16.599,0.726 16.285,0.149C12.181,-7.425 6.76,-14.106 0.707,-20.203C0.252,-20.661 -0.455,-19.954 0,-19.496" style="fill:rgb(31,14,3);fill-rule:nonzero;"/>
    </g>
    <g transform="matrix(-0.953115,0.302607,0.302607,0.953115,512.108,267.216)">
        <path d="M-8.068,-69.833C-11.886,-60.927 -16.948,-40.521 -13.912,-24.349C-11.94,-14.834 -10.276,-2.159 -8.068,-1.811C-5.859,-1.463 7.406,-0.166 27.867,-10.072C20.215,-46.288 -5.123,-69.368 -8.068,-69.833" style="fill:rgb(255,176,38);fill-rule:nonzero;"/>
    </g>
    <g transform="matrix(0.14858,0.9889,0.9889,-0.14858,498.156,245.095)">
        <path d="M14.757,-13.078C16.284,-3.055 18.425,7.109 15.686,17.122C15.515,17.743 14.588,17.367 14.757,16.752C17.441,6.941 15.263,-3.115 13.768,-12.929C13.671,-13.567 14.66,-13.715 14.757,-13.078" style="fill:rgb(31,14,3);fill-rule:nonzero;"/>
    </g>
    <g transform="matrix(1,0,0,1,719.637,492.549)">
        <path d="M0,-126.668C-0.313,-116.001 -0.942,-86.001 0.002,-61.001C0.943,-36.001 5.978,16.667 5.978,23C30.514,28.667 100.113,22.249 100.113,22.249C99.484,7.249 90.281,-59.335 92.484,-78.335C94.687,-97.335 103.809,-133.669 93.428,-155.335C87.452,-152.668 62.285,-129.668 0,-126.668" style="fill:rgb(64,29,6);fill-rule:nonzero;"/>
    </g>
    <g transform="matrix(1,0,0,1,727.158,400.572)">
        <path d="M0,-32.774C-1.22,-21.711 0.352,-10.61 0.079,0.476C0.071,0.778 0.409,1.077 0.712,0.958C2.745,0.165 6.06,0.303 7.228,-1.931C8.134,-3.663 7.731,-6.576 7.798,-8.448C7.92,-11.866 8.46,-15.221 8.657,-18.631C8.938,-23.494 8.898,-28.287 10.42,-32.975C10.619,-33.59 9.653,-33.851 9.455,-33.241C7.324,-26.674 7.79,-19.473 7.04,-12.672C6.755,-10.084 6.789,-7.46 6.652,-4.861C6.598,-3.804 6.645,-2.706 5.916,-1.868C4.807,-0.589 1.959,-0.595 0.446,-0.006C0.657,0.155 0.868,0.315 1.079,0.476C1.352,-10.61 -0.22,-21.711 1,-32.774C1.07,-33.415 0.07,-33.408 0,-32.774" style="fill:rgb(31,14,3);fill-rule:nonzero;"/>
    </g>
    <g transform="matrix(1,0,0,1,815.889,414.047)">
        <path d="M0,-64.185C-3.474,-61.445 -6.953,-58.714 -10.548,-56.134C-12.463,-54.758 -14.078,-53.276 -14.99,-51.066C-15.846,-48.992 -15.542,-46.494 -15.438,-44.323C-15.255,-40.55 -15.356,-36.758 -15.37,-32.983C-15.386,-28.849 -15.434,-24.716 -15.531,-20.584C-15.623,-16.725 -16.285,-12.584 -15.833,-8.754C-15.253,-3.841 -10.319,-1.277 -6.216,0.317C-6.014,0.395 -5.751,0.268 -5.651,0.086C-5.482,-0.102 -5.312,-0.29 -5.144,-0.479C-4.646,-0.891 -5.358,-1.594 -5.851,-1.186C-7.097,-0.154 -10.669,-2.901 -11.817,-3.815C-14.505,-5.956 -15.01,-8.799 -14.843,-12.047C-14.468,-19.335 -14.394,-26.637 -14.367,-33.933C-14.354,-37.171 -14.29,-40.418 -14.407,-43.655C-14.488,-45.883 -14.754,-48.129 -14.187,-50.317C-13.379,-53.432 -10.15,-55.169 -7.761,-56.931C-4.89,-59.048 -2.094,-61.269 0.707,-63.478C1.213,-63.877 0.5,-64.58 0,-64.185" style="fill:rgb(31,14,3);fill-rule:nonzero;"/>
    </g>
    <g transform="matrix(1,0,0,1,729.816,519.827)">
        <path d="M0,-111.729C0.818,-111.524 4.961,-110.199 4.975,-109.039C4.991,-107.656 5.167,-106.269 5.325,-104.897C5.742,-101.279 6.325,-97.677 6.922,-94.085C7.49,-90.669 8.147,-87.283 8.832,-83.89C9.992,-78.143 10.562,-72.29 11.358,-66.486C14.416,-44.225 15.684,-21.656 19.537,0.487C19.647,1.122 20.611,0.852 20.502,0.221C18.472,-11.44 17.34,-23.256 16.116,-35.024C14.882,-46.884 13.354,-58.665 11.827,-70.486C10.681,-79.362 8.887,-88.087 7.467,-96.916C6.883,-100.551 6.311,-104.204 6.032,-107.877C5.934,-109.182 6.118,-109.548 5.05,-110.398C3.695,-111.476 1.941,-112.273 0.266,-112.694C-0.36,-112.851 -0.625,-111.886 0,-111.729" style="fill:rgb(31,14,3);fill-rule:nonzero;"/>
    </g>
    <g transform="matrix(1,0,0,1,739.202,452.116)">
        <path d="M0,-27.136C4.745,-23.985 8.003,-19.3 11.146,-14.649C14.635,-9.483 18.429,-4.534 21.842,0.684C22.193,1.222 23.06,0.721 22.705,0.18C19.145,-5.264 15.197,-10.434 11.558,-15.822C8.467,-20.397 5.162,-24.907 0.504,-27.999C-0.034,-28.358 -0.535,-27.49 0,-27.136" style="fill:rgb(31,14,3);fill-rule:nonzero;"/>
    </g>
    <g transform="matrix(-0.857379,0.514686,0.514686,0.857379,761.467,454.466)">
        <path d="M7.307,-26.546C7.136,-17.012 7.783,-7.499 8.306,2.013C8.342,2.657 7.342,2.668 7.307,2.025C6.783,-7.488 6.136,-17.001 6.308,-26.534C6.319,-27.177 7.319,-27.192 7.307,-26.546" style="fill:rgb(31,14,3);fill-rule:nonzero;"/>
    </g>
    <g transform="matrix(1,0,0,1,787.713,513.215)">
        <path d="M0,-152.333C-0.158,-149.379 0.416,-146.501 0.777,-143.583C1.147,-140.595 0.97,-137.509 1.05,-134.501C1.216,-128.194 1.258,-121.906 1.179,-115.598C1.099,-109.121 1.094,-102.645 1.643,-96.186C2.189,-89.743 3.238,-83.323 4.16,-76.926C6.07,-63.664 6.643,-50.491 7.106,-37.118C7.311,-31.224 7.646,-25.393 8.534,-19.559C9.522,-13.068 10.761,-6.595 10.381,0C10.344,0.645 11.344,0.641 11.381,0C11.713,-5.761 10.827,-11.453 9.925,-17.125C8.914,-23.475 8.384,-29.746 8.141,-36.168C7.656,-48.958 7.298,-61.624 5.532,-74.321C4.609,-80.96 3.601,-87.585 2.836,-94.245C2.059,-101.003 2.095,-107.836 2.168,-114.627C2.235,-120.952 2.256,-127.26 2.075,-133.583C1.988,-136.621 2.068,-139.683 1.864,-142.713C1.647,-145.943 0.825,-149.073 1,-152.333C1.034,-152.978 0.034,-152.975 0,-152.333" style="fill:rgb(31,14,3);fill-rule:nonzero;"/>
    </g>
    <g transform="matrix(1,0,0,1,790.561,509.834)">
        <path d="M0,-147.486C0.656,-144.804 0.521,-142.086 0.515,-139.349C0.507,-136.373 0.954,-133.399 1.027,-130.418C1.182,-124.165 1.49,-117.92 1.383,-111.665C1.277,-105.514 1.052,-99.313 2.039,-93.217C3.08,-86.794 3.949,-80.344 4.406,-73.85C5.288,-61.329 4.609,-48.852 6.326,-36.365C7.215,-29.903 7.48,-23.431 8.162,-16.952C8.466,-14.069 8.677,-11.174 8.948,-8.287C9.183,-5.8 10.497,-2.573 9.488,-0.204C9.238,0.382 10.1,0.892 10.352,0.3C11.056,-1.354 10.79,-3.019 10.473,-4.745C9.947,-7.601 9.739,-10.492 9.477,-13.383C8.892,-19.822 8.631,-26.307 7.857,-32.724C7.091,-39.08 6.26,-45.346 5.961,-51.751C5.646,-58.487 5.854,-65.235 5.52,-71.968C5.224,-77.93 4.467,-83.862 3.585,-89.762C2.533,-96.798 2.229,-103.59 2.364,-110.699C2.491,-117.282 2.147,-123.838 2.027,-130.418C1.973,-133.405 1.554,-136.366 1.515,-139.349C1.478,-142.185 1.645,-144.972 0.965,-147.752C0.812,-148.378 -0.153,-148.112 0,-147.486" style="fill:rgb(31,14,3);fill-rule:nonzero;"/>
    </g>
    <g transform="matrix(1,0,0,1,755.33,396.363)">
        <path d="M0,-27.681C1.678,-19.688 4.482,-10.636 10.95,-5.185C15.624,-1.245 25.76,0.896 30.934,-3.049C31.439,-3.435 30.942,-4.304 30.43,-3.912C25.144,0.117 15.2,-2.626 10.686,-6.744C4.962,-11.963 2.502,-20.621 0.965,-27.947C0.832,-28.577 -0.132,-28.31 0,-27.681" style="fill:rgb(31,14,3);fill-rule:nonzero;"/>
    </g>
    <g transform="matrix(1,0,0,1,758.841,392.345)">
        <path d="M0,-24.544C1.532,-21.102 2.985,-17.62 5.028,-14.44C6.964,-11.426 9.67,-9.128 12.369,-6.826C16.387,-3.401 22.584,1.093 27.736,-2.698C28.25,-3.076 27.752,-3.944 27.232,-3.562C21.803,0.433 15.204,-5.609 11.257,-9.12C8.863,-11.248 6.811,-13.401 5.134,-16.156C3.426,-18.962 2.195,-22.056 0.863,-25.048C0.602,-25.637 -0.26,-25.127 0,-24.544" style="fill:rgb(31,14,3);fill-rule:nonzero;"/>
    </g>
    <g transform="matrix(-0.468395,0.883519,0.883519,0.468395,582.998,373.391)">
        <path d="M10.196,-12.136C15.031,-11.648 20.15,-7.425 15.066,2.518C12.586,6.484 8.626,6.837 10.196,3.52C7.039,7.696 5.264,7.13 4.963,4.141C4.661,1.151 3.212,-9.991 10.196,-12.136" style="fill:rgb(201,116,64);fill-rule:nonzero;"/>
    </g>
    <g transform="matrix(1,0,0,1,638,390.548)">
        <path d="M0,-134.667C-4.332,-115.667 -15,-99 -32.666,-68.667C-50.332,-38.334 -66.809,-23.573 -79.25,-13.75C-88.75,-6.25 -94.883,-0.212 -90.875,-0.125C-85.125,0 -77.5,-7 -71.25,-11.75C-65,-16.5 -61.5,-12.5 -65.25,-9.25C-69,-6 -74.75,-2 -72.25,-1.25C-69.75,-0.5 -52.25,-6.75 -48.5,-16C-44.75,-25.25 -26.5,-40.5 -10.25,-53.25C6,-66 28.75,-91.5 33,-119.5C28.75,-126.5 0,-134.667 0,-134.667" style="fill:rgb(201,116,64);fill-rule:nonzero;"/>
    </g>
    <g transform="matrix(-0.888504,-0.458869,-0.458869,0.888504,646.317,263.066)">
        <path d="M10.944,-79.341C18.538,-67.165 23.404,-40.267 16.833,-16.649C13.687,-4.018 10.944,0.569 10.944,0.569C8.249,1.428 -11.875,1.164 -27.275,-6.789C-34.016,-27.153 -15.137,-91.31 10.944,-79.341" style="fill:rgb(255,176,38);fill-rule:nonzero;"/>
    </g>
    <g transform="matrix(1,0,0,1,564.877,376.492)">
        <path d="M0,4.738C2.368,3.033 5.117,0.161 8.19,0.021C9.084,-0.019 10.017,0.505 10.367,1.351C10.929,2.711 8.88,3.76 8.063,4.286C6.68,5.175 5.229,5.942 3.871,6.875C3.343,7.237 3.843,8.104 4.375,7.738C6.434,6.324 13.898,3.434 10.583,-0.082C7.487,-3.366 1.821,2.199 -0.504,3.875C-1.022,4.248 -0.524,5.116 0,4.738" style="fill:rgb(31,14,3);fill-rule:nonzero;"/>
    </g>
    <g transform="matrix(-0.928035,0.372493,0.372493,0.928035,573.146,380.801)">
        <path d="M0.344,-2.843C0.905,-2.06 0.942,-1.122 1.272,-0.244C1.497,0.358 0.57,0.733 0.344,0.128C0.053,-0.643 0.036,-1.555 -0.453,-2.237C-0.828,-2.761 -0.032,-3.367 0.344,-2.843" style="fill:rgb(31,14,3);fill-rule:nonzero;"/>
    </g>
    <g transform="matrix(1,0,0,1,570.877,375.22)">
        <path d="M0,13.51C2.996,11.443 6.822,10.444 10.018,8.64C13.396,6.734 15.619,4.08 17.43,0.705C17.734,0.138 16.871,-0.367 16.566,0.201C14.673,3.73 12.352,6.175 8.852,8.151C5.849,9.845 2.327,10.692 -0.504,12.647C-1.031,13.01 -0.532,13.877 0,13.51" style="fill:rgb(31,14,3);fill-rule:nonzero;"/>
    </g>
    <g transform="matrix(-0.216178,0.976354,0.976354,0.216178,653.188,246.969)">
        <path d="M9.859,-12.094C11.495,-5.424 12.239,1.311 10.835,8.096C10.704,8.728 9.728,8.511 9.859,7.88C11.229,1.256 10.504,-5.277 8.907,-11.789C8.754,-12.413 9.705,-12.721 9.859,-12.094" style="fill:rgb(31,14,3);fill-rule:nonzero;"/>
    </g>
    <g transform="matrix(1,0,0,1,721.332,190.88)">
        <path d="M0,167.002C-8.666,169.335 -26.332,173.001 -38.332,144.001C-45.529,126.61 -61.998,54.669 -53.998,24.335C-45.998,-5.999 -42.332,1.335 -42.332,1.335C-42.332,1.335 -39.332,34.335 -36.998,47.668C-34.666,61.001 -8.334,163.336 0,167.002" style="fill:rgb(120,133,62);fill-rule:nonzero;"/>
    </g>
    <g transform="matrix(1,0,0,1,679,358.715)">
        <path d="M0,-166.917C-13.416,-152.25 -12.666,-85.499 -3,-58.5C6.666,-31.501 19.332,-4.166 23,-1.833C26.666,0.5 34.666,-1.166 41,-4.166C44.332,-3.833 42.332,-0.833 42.332,-0.833C31,5.5 18.332,5.498 14.332,0.166C10.332,-5.166 -8.666,-47.833 -14.334,-74.833C-20,-101.833 -22.25,-138.417 -2.25,-169.417C-3.25,-172.417 0,-166.917 0,-166.917" style="fill:rgb(213,232,130);fill-rule:nonzero;"/>
    </g>
    <g transform="matrix(1,0,0,1,676.666,336.548)">
        <path d="M0,-122.999C-1,-99.832 1.5,-92.499 2.834,-84C6.68,-59.476 20.084,-22 30.084,-6.25C40.084,9.5 35.334,29.25 38.834,31.25C44.738,34.624 68.084,36.25 95.334,28C122.584,19.75 144.834,7.5 143.334,2.25C139.584,-10.75 132.084,-34.75 129.834,-41.25C127.584,-47.75 41,-159.249 27.5,-158.499C14,-157.749 0.5,-145.249 0,-122.999" style="fill:rgb(255,176,38);fill-rule:nonzero;"/>
    </g>
    <g transform="matrix(1,0,0,1,599,160.798)">
        <path d="M0,14C5.75,22.75 14.5,25.5 17.25,32.5C20,39.5 20.828,45.557 23.332,45.75C25.5,45.917 29.832,43.417 32.332,41.25C36.832,43 39.75,52.25 50.75,51.25C61.75,50.25 66.25,38.5 68.5,32C77.666,37.084 88.666,37.084 88.666,37.084C88.666,37.084 113.25,1.75 115.75,1.75C100.25,-2.25 82.5,-2.25 75.75,-5.25C69,-8.25 58,-37.75 38.75,-38C19.5,-38.25 9,-31 1.75,-18C-5.5,-5 -5.75,6.75 0,14" style="fill:rgb(201,116,64);fill-rule:nonzero;"/>
    </g>
    <g transform="matrix(1,0,0,1,694.166,173.548)">
        <path d="M0,-14.999C1.834,-13.999 3.168,-7.832 1,0.001C9.334,-5.666 25.666,-9.665 24.666,-10.999C23.666,-12.333 13.666,-15 0,-14.999" style="fill:rgb(255,176,38);fill-rule:nonzero;"/>
    </g>
    <g transform="matrix(1,0,0,1,674.75,147.521)">
        <path d="M0,8.027C-5.52,5.574 -13.885,-14.59 -27.275,-22C-31.695,-19.671 -39.129,-15.746 -40,-15.223C-41.25,-14.473 -51,4.777 -38.5,14.277C-33.5,18.027 -31.125,24.528 -28.5,28.027C-27,30.027 -22.5,27.027 -23.25,24.027C-24,21.027 -28.75,14.277 -24.75,9.527C-20.75,4.777 -16.75,9.527 -13.75,12.527C-5.307,16.548 2.002,13.292 4.021,9.262C2.438,8.908 1.076,8.506 0,8.027" style="fill:rgb(49,36,28);fill-rule:nonzero;"/>
    </g>
    <g transform="matrix(1,0,0,1,590.5,172.298)">
        <path d="M0,-51.5C-12.5,-38 -15.75,-17.5 -6.25,-5C3.25,7.5 6,9.5 6.75,10.5C7.75,12.75 -4.5,23 1.75,26.75C8,30.5 28.75,12.5 42,-0.75C55.25,-14 77.25,-38.5 75.5,-50.5C75,-52.75 72,-55.583 64.5,-48.083C54.666,-51.083 30.75,-82 0,-51.5" style="fill:rgb(255,188,69);fill-rule:nonzero;"/>
    </g>
    <g transform="matrix(1,0,0,1,625.133,189.051)">
        <path d="M0,1.765C-0.974,1.515 -2.172,1.179 -2.701,0.244C-2.832,0.014 -3.395,-0.937 -2.916,-1.116C-1.906,-1.494 -0.473,-0.365 -0.182,0.537C0.135,1.518 -0.627,1.758 -1.353,1.404C-2.039,1.068 -2.674,0.324 -2.777,-0.452C-2.852,-1 -2.213,-0.816 -1.9,-0.673C-1.074,-0.294 -0.581,0.53 -0.365,1.38C-0.288,1.192 -0.212,1.003 -0.135,0.815C-1.524,1.859 -2.756,-0.289 -2.633,-1.503C-2.755,-1.342 -2.878,-1.182 -3,-1.021C-2.417,-1.104 -1.735,-0.626 -1.286,-0.318C-0.755,0.045 -0.18,0.583 -0.019,1.227C0.011,1.344 -0.077,1.677 -0.219,1.685C-0.447,1.698 -0.734,1.295 -0.858,1.148C-1.218,0.725 -1.604,0.064 -1.633,-0.503C-1.8,-0.337 -1.966,-0.17 -2.133,-0.003C-1.646,0.016 -0.93,0.139 -0.883,0.747C-0.716,0.58 -0.55,0.413 -0.383,0.247C-0.91,0.22 -1.254,-0.054 -1.15,-0.62C-1.312,-0.498 -1.472,-0.376 -1.633,-0.253C-1.243,-0.227 -0.996,0.093 -0.736,0.35C-0.279,0.806 0.429,0.098 -0.029,-0.357C-0.511,-0.836 -0.934,-1.207 -1.633,-1.253C-1.839,-1.267 -2.077,-1.092 -2.115,-0.886C-2.337,0.332 -1.61,1.184 -0.383,1.247C-0.126,1.26 0.138,1.009 0.117,0.747C0.023,-0.461 -1.029,-0.96 -2.133,-1.003C-2.396,-1.013 -2.646,-0.768 -2.633,-0.503C-2.584,0.484 -1.961,1.497 -1.271,2.173C-0.541,2.888 0.535,2.826 0.9,1.779C1.251,0.777 0.42,-0.184 -0.279,-0.794C-1.072,-1.486 -2.177,-2.141 -3.266,-1.985C-3.497,-1.952 -3.612,-1.705 -3.633,-1.503C-3.83,0.449 -1.644,3.191 0.369,1.679C0.555,1.54 0.66,1.351 0.6,1.114C0.298,-0.069 -0.461,-1.17 -1.625,-1.636C-2.427,-1.958 -3.395,-1.87 -3.729,-0.967C-4.404,0.863 -0.867,3.981 0.516,2.043C1.933,0.057 -0.711,-2.043 -2.525,-2.161C-3.378,-2.216 -4.065,-1.678 -4.086,-0.809C-4.119,0.564 -2.944,1.689 -1.803,2.211C-1.31,2.436 -0.789,2.595 -0.266,2.729C0.359,2.89 0.624,1.925 0,1.765" style="fill:rgb(31,14,3);fill-rule:nonzero;"/>
    </g>
    <g transform="matrix(0.904506,0.42646,0.42646,-0.904506,635.613,206.148)">
        <path d="M2.19,-0.495C5.204,1.493 4.59,6.852 3.095,9.585C2.787,10.149 1.88,9.724 2.19,9.159C3.488,6.786 4.172,2 1.538,0.263C1.002,-0.09 1.658,-0.847 2.19,-0.495" style="fill:rgb(31,14,3);fill-rule:nonzero;"/>
    </g>
    <g transform="matrix(1,0,0,1,658.568,172.656)">
        <path d="M0,-14.855C1.689,-12.127 3.285,-9.866 3.182,-6.488C3.081,-3.194 0.837,-0.957 -2.201,-0.089C-2.82,0.087 -2.557,1.052 -1.936,0.874C1.137,-0.002 3.244,-1.939 4,-5.084C4.955,-9.063 2.844,-12.162 0.863,-15.36C0.524,-15.907 -0.341,-15.405 0,-14.855" style="fill:rgb(31,14,3);fill-rule:nonzero;"/>
    </g>
    <g transform="matrix(1,0,0,1,609.348,159.078)">
        <path d="M0,17.639C1.076,15.618 0.303,14.306 -0.923,12.517C-1.818,11.21 -3.226,9.851 -2.447,8.111C-1.956,7.014 -0.658,6.124 0.151,5.229C1.588,3.639 4.162,-0.31 6.631,1.016C8.529,2.035 9.592,4.121 11.686,4.868C12.294,5.086 12.554,4.119 11.951,3.905C9.717,3.106 8.433,-0 6.001,-0.309C3.944,-0.569 2.27,1.421 1.011,2.766C-0.31,4.178 -3.134,6.312 -3.586,8.228C-4.368,11.54 0.847,13.922 -0.863,17.134C-1.166,17.703 -0.303,18.208 0,17.639" style="fill:rgb(31,14,3);fill-rule:nonzero;"/>
    </g>
    <g transform="matrix(1,0,0,1,592.248,189.352)">
        <path d="M0,-11.122C1.894,-9.679 3.722,-7.824 5.046,-5.838C6.761,-3.266 4.601,-1.594 2.898,0.093C2.439,0.547 3.147,1.254 3.605,0.8C4.892,-0.475 7.286,-2.3 6.712,-4.45C5.893,-7.513 2.938,-10.133 0.504,-11.985C-0.009,-12.376 -0.506,-11.507 0,-11.122" style="fill:rgb(31,14,3);fill-rule:nonzero;"/>
    </g>
    <g transform="matrix(1,0,0,1,601.086,123.922)">
        <path d="M0,61.391C5.908,57.274 12.087,54.102 17.368,49.103C22.706,44.051 27.42,38.319 32.263,32.805C34.578,30.167 37.133,27.751 39.368,25.044C41.578,22.367 43.495,19.453 45.521,16.637C49.289,11.398 54.42,6.815 56.396,0.509C56.59,-0.108 55.624,-0.37 55.432,0.244C53.496,6.422 48.393,11.012 44.657,16.132C42.491,19.102 40.46,22.158 38.117,24.996C35.881,27.704 33.288,30.125 30.968,32.766C26.505,37.849 22.111,43.014 17.302,47.775C11.961,53.062 5.58,56.287 -0.504,60.528C-1.029,60.893 -0.53,61.761 0,61.391" style="fill:rgb(31,14,3);fill-rule:nonzero;"/>
    </g>
    <g transform="matrix(1,0,0,1,592.117,121.355)">
        <path d="M0,74.425C3.249,75.741 7.162,71.946 9.68,70.371C14.074,67.622 18.094,64.314 22.239,61.208C26.261,58.196 29.863,54.871 33.579,51.51C35.404,49.861 37.227,48.225 38.897,46.416C40.475,44.708 41.693,42.715 43.174,40.925C45.917,37.609 48.537,34.205 51.267,30.885C54.271,27.231 57.838,24.101 60.778,20.384C63.428,17.034 66.216,13.701 68.63,10.174C70.839,6.946 72.316,3.228 71.365,-0.69C71.213,-1.316 70.248,-1.051 70.4,-0.424C71.492,4.068 69.023,8.036 66.454,11.511C63.914,14.946 61.195,18.421 58.435,21.675C55.75,24.841 52.658,27.625 50.02,30.835C47.468,33.938 45.06,37.139 42.467,40.218C39.88,43.291 37.659,46.438 34.674,49.179C31.291,52.286 28.025,55.46 24.408,58.303C20.59,61.305 16.69,64.269 12.77,67.134C10.931,68.479 8.956,69.638 7.031,70.852C5.145,72.042 2.632,74.419 0.266,73.461C-0.332,73.219 -0.59,74.186 0,74.425" style="fill:rgb(31,14,3);fill-rule:nonzero;"/>
    </g>
    <g transform="matrix(1,0,0,1,583.982,111.397)">
        <path d="M0,46.351C-1.465,40.465 -1.711,34.48 -0.123,28.592C1.506,22.55 5.598,17.596 9.866,13.183C13.736,9.182 18.245,5.828 23.256,3.399C29.807,0.222 36.663,0.026 43.719,1.3C44.349,1.413 44.618,0.45 43.984,0.336C37.191,-0.891 30.772,-0.802 24.317,1.838C18.555,4.195 13.52,8.089 9.159,12.476C4.866,16.795 1.09,21.714 -0.851,27.538C-2.897,33.683 -2.507,40.416 -0.965,46.617C-0.809,47.242 0.155,46.977 0,46.351" style="fill:rgb(31,14,3);fill-rule:nonzero;"/>
    </g>
    <g transform="matrix(1,0,0,1,629.353,135.309)">
        <path d="M0,20.926C0.835,20.173 3.531,18.447 2.51,16.893C1.309,15.066 -0.701,14.061 -0.909,11.581C-1.072,9.629 0.799,8.02 2.04,6.789C4.122,4.726 7.044,-0.431 10.258,2.572C12.18,4.367 14.208,4.132 16.398,2.838C16.953,2.51 16.451,1.646 15.895,1.975C14.638,2.717 13.292,3.345 11.782,2.556C11.072,2.184 10.617,1.393 9.934,0.971C9.07,0.438 8.398,0.327 7.408,0.537C5.102,1.025 3.301,4.05 1.783,5.632C0.064,7.425 -1.732,8.952 -1.909,11.581C-1.983,12.693 -1.296,13.981 -0.64,14.813C0.033,15.664 2.252,17.329 1.019,18.711C0.516,19.275 -0.146,19.714 -0.707,20.219C-1.187,20.652 -0.478,21.357 0,20.926" style="fill:rgb(31,14,3);fill-rule:nonzero;"/>
    </g>
    <g transform="matrix(1,0,0,1,712.666,355.548)">
        <path d="M0,-193.667C-13.666,-194 -29.666,-171.666 -27,-142.333C-24.334,-113 -14.664,-68.666 -2.332,-47.333C10,-26 20,-1.335 27,0.666C34,2.667 52,2.333 74.666,-13C97.334,-28.333 103.668,-31.001 100.334,-48.667C97,-66.333 82,-116 70.666,-136C59.334,-156 35.668,-196.334 0,-193.667" style="fill:rgb(213,232,130);fill-rule:nonzero;"/>
    </g>
    <g transform="matrix(1,0,0,1,770.75,305.835)">
        <path d="M0,-13.287C-18,-6.037 -45.75,-1.787 -60.5,0.713L-58.49,5.775C-56.076,10.09 -53.758,14.482 -51.539,18.746C-46.904,18.112 -33.439,15.962 -18.5,10.713C0,4.213 8.5,0.713 21.5,-6.787C34.203,-14.116 32.35,-13.569 37.855,-17.039C36.572,-21.706 35.098,-26.781 33.486,-32.033C28.42,-29.261 15.625,-19.581 0,-13.287" style="fill:rgb(218,203,200);fill-rule:nonzero;"/>
    </g>
    <g transform="matrix(1,0,0,1,741.334,279.256)">
        <path d="M0,22.126C4.342,22.221 9.008,20.625 13.175,19.532C18.611,18.107 23.921,16.198 29.177,14.222C39.195,10.455 48.705,5.861 58.252,1.058C58.828,0.768 58.322,-0.095 57.748,0.194C48.273,4.962 38.84,9.481 28.91,13.258C24.223,15.04 19.479,16.696 14.659,18.086C12.362,18.748 10.038,19.311 7.701,19.81C5.143,20.356 2.644,21.184 0,21.126C-0.646,21.112 -0.644,22.112 0,22.126" style="fill:rgb(31,14,3);fill-rule:nonzero;"/>
    </g>
    <g transform="matrix(1,0,0,1,783.332,260.843)">
        <path d="M0,-41.295C-0.518,-42.207 -1.061,-43.163 -1.629,-44.154C-4.16,-42.816 -8.701,-40.303 -16.666,-35.628C-31.658,-26.828 -80.742,-16.436 -92.889,-15.043C-91.85,-9.691 -90.68,-4.284 -89.396,1.049C-53.637,2.859 -13.068,-16.022 6.316,-28.129C4.152,-33.223 2.018,-37.734 0,-41.295" style="fill:rgb(218,203,200);fill-rule:nonzero;"/>
    </g>
    <g transform="matrix(-0.825245,0.564775,0.564775,0.825245,725.049,185.052)">
        <path d="M14.193,-27.888C18.958,-26.659 24.059,-24.292 29.046,-20.806C22.501,-17.315 17.341,-9.075 14.193,0.584C7.14,-1.456 -3.081,1.903 -3.081,1.903C-3.28,-1.407 4.1,-18.127 14.193,-27.888" style="fill:rgb(218,203,200);fill-rule:nonzero;"/>
    </g>
    <g transform="matrix(-0.998066,-0.0621627,-0.0621627,0.998066,677.057,323.406)">
        <path d="M-0.25,-16.826C1.896,-16.772 4.724,-16.898 7.315,-17.2C4.958,-11.36 2.364,-5.443 -0.25,0.21C-2.575,0.469 -5.515,0.542 -8.053,-0.183C-5.453,-5.476 -2.805,-11.107 -0.25,-16.826" style="fill:rgb(218,203,200);fill-rule:nonzero;"/>
    </g>
    <g transform="matrix(1,0,0,1,660.768,363.043)">
        <path d="M0,-99.112C1.812,-88.94 4.485,-78.932 7.187,-68.967C10.025,-58.498 12.584,-47.871 16.214,-37.642C19.945,-27.131 24.891,-17.032 31.054,-7.731C33.239,-4.431 36.028,-1.911 39.777,-0.554C43.792,0.9 48.336,0.491 52.482,0.005C53.115,-0.069 53.122,-1.07 52.482,-0.995C48.316,-0.508 44.099,-0.233 40.043,-1.518C34.955,-3.132 32.162,-7.714 29.507,-11.994C23.661,-21.416 19.18,-31.656 15.721,-42.174C12.624,-51.587 10.293,-61.308 7.707,-70.872C5.161,-80.294 2.677,-89.763 0.965,-99.378C0.852,-100.012 -0.112,-99.742 0,-99.112" style="fill:rgb(31,14,3);fill-rule:nonzero;"/>
    </g>
    <g transform="matrix(1,0,0,1,707.332,421.213)">
        <path d="M0,-167.331C-1.332,-142.998 2.336,-127.998 -10.998,-106.665C-24.332,-85.332 -29.666,-60.999 -49.332,-41.332C-68.998,-21.665 -69.664,-17.666 -72.664,-6.999C-73.666,-1.998 -72.666,1.334 -70,-0.999C-67.332,0.335 -65.998,-0.332 -64.666,-1.665C-61.332,-0.332 -55.998,-5.997 -54.666,-9.331C-53.332,-12.665 -48.664,-18.998 -36.664,-26.998C-24.666,-34.998 -7.664,-54.998 3.002,-67.665C13.668,-80.332 30.334,-91.998 38.668,-122.665C47.002,-153.332 47.668,-168.665 47.668,-168.665L0,-167.331Z" style="fill:rgb(201,116,64);fill-rule:nonzero;"/>
    </g>
    <g transform="matrix(1,0,0,1,643.598,399.323)">
        <path d="M0,20.31C1.582,17.225 3.669,14.284 4.885,11.025C6.421,6.906 8.644,3.197 12.32,0.657C12.848,0.293 12.348,-0.574 11.816,-0.207C8.857,1.837 6.773,4.542 5.177,7.744C4.192,9.716 3.487,11.8 2.458,13.756C1.387,15.792 0.187,17.757 -0.863,19.806C-1.157,20.378 -0.294,20.884 0,20.31" style="fill:rgb(31,14,3);fill-rule:nonzero;"/>
    </g>
    <g transform="matrix(1,0,0,1,638.765,398.636)">
        <path d="M0,21.997C2.128,18.722 3.249,14.967 5,11.497C7.127,7.284 9.753,3.754 13.254,0.599C13.734,0.166 13.024,-0.539 12.547,-0.108C9.416,2.714 7.074,5.681 5.017,9.371C2.824,13.302 1.591,17.713 -0.863,21.493C-1.216,22.035 -0.35,22.536 0,21.997" style="fill:rgb(31,14,3);fill-rule:nonzero;"/>
    </g>
    <g transform="matrix(1,0,0,1,645.914,420.834)">
        <path d="M0,-22.384C-2.908,-20.352 -4.876,-17.399 -6.434,-14.259C-8.578,-9.934 -8.755,-4.97 -11.012,-0.704C-11.313,-0.135 -10.45,0.37 -10.148,-0.2C-8.297,-3.698 -7.858,-7.61 -6.598,-11.32C-5.289,-15.171 -2.864,-19.166 0.504,-21.521C1.028,-21.887 0.529,-22.754 0,-22.384" style="fill:rgb(31,14,3);fill-rule:nonzero;"/>
    </g>
    <g transform="matrix(-0.40679,0.913522,0.913522,0.40679,680.964,370.899)">
        <path d="M11.048,-15.84C10.758,-12.32 13.727,-0.964 17.244,4.252C13.317,6.516 11.048,7.513 11.048,7.513C7.836,4.075 4.559,-7.417 4.497,-13.831C6.462,-14.964 11.048,-15.84 11.048,-15.84" style="fill:rgb(31,14,3);fill-rule:nonzero;"/>
    </g>
    <g transform="matrix(0.660186,-0.751102,-0.751102,-0.660186,677.363,375.886)">
        <path d="M-4.85,-2.194C-8.854,-2.195 -12.099,0.696 -12.101,4.264C-12.1,7.828 -8.854,10.721 -4.85,10.719C-0.846,10.721 2.4,7.83 2.4,4.264C2.4,0.697 -0.845,-2.195 -4.85,-2.194" style="fill:rgb(120,133,62);fill-rule:nonzero;"/>
    </g>
    <g transform="matrix(1,0,0,1,670.176,371.798)">
        <path d="M0,9.832C-1.031,9.832 -1.959,9.495 -2.684,8.859C-3.543,8.103 -4.021,6.994 -4.031,5.739C-4.039,4.396 -3.52,3.06 -2.564,1.974C-1.463,0.72 0.043,0 1.568,0C2.598,0 3.525,0.336 4.248,0.972C6.094,2.596 6.043,5.685 4.131,7.858C3.029,9.112 1.523,9.832 0,9.832" style="fill:rgb(255,188,69);fill-rule:nonzero;"/>
    </g>
    <g transform="matrix(1,0,0,1,722.5,256.048)">
        <path d="M0,-72.75C-15,-68.5 -18.5,-51.25 -17.25,-28.5C-16,-5.75 -18.75,2 -17.5,3.5C-12.5,7.25 2,6.75 10.25,5.5C18.5,4.25 29,4 35,0.5C36,-0.5 35.75,-12 36.75,-24.5C37.75,-37 38.25,-80 0,-72.75" style="fill:rgb(255,176,38);fill-rule:nonzero;"/>
    </g>
    <g transform="matrix(1,0,0,1,666.568,199.182)">
        <path d="M0,-20.714C1.706,-18.161 1.44,-14.742 1.432,-11.8C1.419,-7.763 0.335,-3.71 -1.334,-0.053C-1.6,0.529 -0.738,1.038 -0.471,0.452C1.29,-3.406 2.348,-7.552 2.432,-11.8C2.492,-14.883 2.648,-18.547 0.863,-21.219C0.507,-21.752 -0.359,-21.252 0,-20.714" style="fill:rgb(31,14,3);fill-rule:nonzero;"/>
    </g>
    <g transform="matrix(-0.284645,0.958633,0.958633,0.284645,705.574,179.161)">
        <path d="M9.201,-12.647C7.436,-6.275 8.218,0.443 10.172,6.677C10.366,7.294 9.392,7.526 9.201,6.914C7.195,0.516 6.432,-6.396 8.242,-12.931C8.414,-13.554 9.373,-13.269 9.201,-12.647" style="fill:rgb(31,14,3);fill-rule:nonzero;"/>
    </g>
    <g transform="matrix(1,0,0,1,699.832,181.048)">
        <path d="M0,-10C4.426,-9.846 8.697,-7.638 12.751,-6.013C14.938,-5.136 17.012,-4.018 19.113,-2.97C20.952,-2.055 22.831,-1.103 24.146,0.521C24.553,1.022 25.256,0.31 24.854,-0.187C22.26,-3.387 17.515,-4.867 13.92,-6.599C11.832,-7.605 9.566,-8.292 7.417,-9.154C4.975,-10.133 2.648,-10.908 0,-11C-0.646,-11.022 -0.643,-10.022 0,-10" style="fill:rgb(31,14,3);fill-rule:nonzero;"/>
    </g>
    <g transform="matrix(1,0,0,1,707.666,253.666)">
        <path d="M0,2.882C3.367,2.964 6.647,3.771 9.998,4.029C13.116,4.27 16.379,3.65 19.45,3.153C22.872,2.598 26.259,1.821 29.633,1.031C32.796,0.291 36.106,0.309 39.299,-0.303C39.932,-0.424 39.663,-1.388 39.033,-1.267C36.123,-0.709 33.158,-0.566 30.234,-0.099C26.846,0.441 23.508,1.411 20.126,2.026C16.805,2.63 13.382,3.15 9.998,3.029C6.639,2.91 3.372,1.964 0,1.882C-0.646,1.866 -0.644,2.866 0,2.882" style="fill:rgb(31,14,3);fill-rule:nonzero;"/>
    </g>
    <g transform="matrix(1,0,0,1,717.617,341.058)">
        <path d="M0,22.973C3.912,23.751 7.725,24.941 11.723,25.218C16.074,25.52 20.47,25.069 24.78,24.507C32.806,23.46 40.843,21.888 48.737,20.111C64.732,16.512 79.789,9.718 91.986,-1.406C92.464,-1.841 91.755,-2.547 91.279,-2.113C79.411,8.711 64.859,15.284 49.344,18.946C41.814,20.723 34.12,22.154 26.466,23.272C22.187,23.896 17.891,24.341 13.562,24.275C8.979,24.203 4.72,22.895 0.266,22.008C-0.364,21.883 -0.632,22.847 0,22.973" style="fill:rgb(31,14,3);fill-rule:nonzero;"/>
    </g>
    <g transform="matrix(0.531383,0.847132,0.847132,-0.531383,760.863,217.695)">
        <path d="M9.476,-5.19C9.907,2.282 11.103,9.602 10.475,17.104C10.422,17.739 9.421,17.779 9.476,17.135C10.104,9.634 8.906,2.313 8.477,-5.158C8.439,-5.801 9.439,-5.833 9.476,-5.19" style="fill:rgb(31,14,3);fill-rule:nonzero;"/>
    </g>
    <g transform="matrix(-0.885806,-0.464055,-0.464055,0.885806,658.494,258.779)">
        <path d="M-3.89,-14.867C-1.909,-13.961 1.253,-13.234 4.151,-12.77C1.679,-7.831 -1.036,-3.122 -3.89,1.325C-5.61,0.818 -8.434,-0.044 -11.791,-1.187C-9.054,-5.607 -6.394,-10.211 -3.89,-14.867" style="fill:rgb(218,203,200);fill-rule:nonzero;"/>
    </g>
    <g transform="matrix(1,0,0,1,754.768,342.976)">
        <path d="M0,-80.295C3.252,-66.525 8.289,-53.302 13.447,-40.156C16.028,-33.578 18.629,-27.008 21.056,-20.37C22.213,-17.202 23.313,-14.015 24.361,-10.809C24.933,-9.063 25.473,-7.306 26,-5.545C26.516,-3.823 27.797,-2.049 26.801,-0.18C26.498,0.389 27.361,0.893 27.664,0.324C28.8,-1.808 27.661,-3.704 26.965,-5.811C25.811,-9.302 24.769,-12.826 23.564,-16.303C21.051,-23.557 18.231,-30.702 15.424,-37.847C9.921,-51.846 4.429,-65.89 0.965,-80.561C0.816,-81.188 -0.147,-80.922 0,-80.295" style="fill:rgb(31,14,3);fill-rule:nonzero;"/>
    </g>
    <g transform="matrix(1,0,0,1,730.318,338.013)">
        <path d="M0,1.037C4.331,6.65 7.531,13.66 14.756,15.889C21.8,18.061 29.703,15.543 36.183,12.753C52.431,5.755 66.963,-3.359 79.535,-15.861C79.993,-16.317 79.285,-17.024 78.828,-16.568C73.207,-10.978 67.227,-5.81 60.648,-1.369C54.027,3.1 46.967,6.558 39.795,10.022C32.871,13.367 25.021,16.514 17.189,15.402C8.906,14.226 5.475,6.508 0.863,0.533C0.476,0.03 -0.395,0.527 0,1.037" style="fill:rgb(31,14,3);fill-rule:nonzero;"/>
    </g>
    <g transform="matrix(1,0,0,1,685,295.412)">
        <path d="M0,-83.114C0.074,-68.587 3.232,-54.289 6.407,-40.181C8.03,-32.969 9.896,-25.813 12.114,-18.76C13.022,-15.873 13.942,-13.016 15.126,-10.227C16.56,-6.848 18.137,-3.561 19.018,0.019C19.172,0.645 20.136,0.379 19.982,-0.247C18.472,-6.389 15.33,-12.083 13.375,-18.1C11.089,-25.134 9.244,-32.304 7.585,-39.508C4.292,-53.807 1.075,-68.377 1,-83.114C0.997,-83.759 -0.003,-83.759 0,-83.114" style="fill:rgb(31,14,3);fill-rule:nonzero;"/>
    </g>
    <g transform="matrix(1,0,0,1,669.5,315.985)">
        <path d="M0,-86.187C-1.832,-71.036 -1.166,-55.649 0.605,-40.526C1.44,-33.392 2.647,-26.286 4.817,-19.429C6.95,-12.693 9.849,-6.215 13.068,0.065C13.362,0.639 14.226,0.133 13.932,-0.439C10.604,-6.929 7.71,-13.606 5.507,-20.563C3.271,-27.624 2.217,-35.051 1.391,-42.392C-0.242,-56.895 -0.756,-71.671 1,-86.187C1.077,-86.826 0.076,-86.819 0,-86.187" style="fill:rgb(31,14,3);fill-rule:nonzero;"/>
    </g>
    <g transform="matrix(1,0,0,1,717.25,226.554)">
        <path d="M0,-64.256C3.966,-63.848 7.932,-63.535 11.762,-62.363C15.761,-61.139 19.645,-58.929 23.201,-56.766C29.975,-52.645 36.764,-47.164 42.037,-41.231C53.24,-28.624 62.176,-14.337 70.068,0.496C70.371,1.066 71.234,0.56 70.932,-0.008C62.854,-15.191 53.637,-29.681 42.177,-42.576C39.388,-45.714 36.078,-48.36 32.803,-50.965C29.626,-53.493 26.457,-55.956 22.982,-58.069C19.544,-60.161 15.835,-62.012 12.027,-63.327C8.196,-64.651 3.998,-64.845 0,-65.256C-0.642,-65.322 -0.635,-64.321 0,-64.256" style="fill:rgb(31,14,3);fill-rule:nonzero;"/>
    </g>
</svg>
